<svg xmlns="http://www.w3.org/2000/svg" viewBox="0 0 956.49 756.5"><defs><style>.cls-1{fill:#adcfe8;}.cls-2{fill:#9ac0d8;}.cls-3{opacity:0.53;}.cls-4{fill:#dce8ef;}.cls-5{opacity:0.56;}.cls-6{fill:#8bb5c9;}.cls-7{fill:#997444;}.cls-8{fill:#825f38;}.cls-9{fill:#72b4b2;}.cls-10{fill:#4fa09b;}.cls-11{opacity:0.17;}.cls-12{fill:#bddff4;}.cls-13{fill:#a4aaba;}.cls-14{fill:#8c8da1;}.cls-15{fill:#fff;}.cls-16{fill:#afd1eb;}.cls-17{fill:#495db2;}.cls-18{opacity:0.54;}.cls-19{opacity:0.67;}.cls-20{fill:#99c3dd;}.cls-21{fill:#ffa591;}.cls-22{fill:#535353;}.cls-23{fill:#95c2d9;}.cls-24{fill:#ced0dd;}.cls-25{fill:#f2c9a5;}.cls-26{fill:#f8e4cb;}.cls-27{fill:#ed8470;}.cls-28{fill:#d1622a;}.cls-29{fill:#fcc683;}.cls-30{fill:#353443;}.cls-31{fill:#efb270;}.cls-32{opacity:0.51;}.cls-33{fill:#f9d1b7;}.cls-34{opacity:0.14;}.cls-35{fill:#f9998a;}.cls-36{fill:#ed886f;}.cls-37{fill:#e07946;}.cls-38{fill:#e9e4df;}.cls-39{fill:#a4a09d;}.cls-40{opacity:0.2;}.cls-41{fill:#d6a990;}.cls-42{opacity:0.19;}.cls-43{fill:#f9c3c0;}.cls-44{opacity:0.59;}.cls-45{opacity:0.15;}.cls-46{fill:#3d56a5;}.cls-47{opacity:0.66;}.cls-48{fill:#e8e5e3;}.cls-49{opacity:0.3;}.cls-50{fill:#607dd8;}.cls-51{fill:#e2ccb3;}.cls-52{fill:#b9daef;}</style></defs><g id="Layer_2" data-name="Layer 2"><g id="Layer_1-2" data-name="Layer 1"><g id="background_3" data-name="background 3"><g id="background_3-2" data-name="background 3"><path class="cls-1" d="M912.85,376q-.93,7-1.85,14.06c-.71,5.31-1.4,10.63-2.11,16a65.67,65.67,0,0,1-4.26,16.39c-5.46,13.31-14.9,21.85-25.39,21.85H799.6c-14.39,0-26.8-16.08-29.69-38.47q-1.92-15-3.85-30a78.44,78.44,0,0,1-.58-12.56c.47-12.36,3.95-23.64,9.36-31.86a38.8,38.8,0,0,1,3.06-4.06c5-5.77,11.1-9.22,17.85-9.22h87.44c8.06,0,15.24,4.92,20.57,12.82,5.71,8.38,9.32,20.13,9.7,33A75.7,75.7,0,0,1,912.85,376Z"/><path class="cls-2" d="M913.47,363.83a69.09,69.09,0,0,0-4.59-23.16q-1.41,10.75-2.83,21.52c-2.94,22.29-15.31,38.25-29.65,38.25H796.76c-14.4,0-26.8-16.09-29.68-38.48-.29-2.23-.57-4.46-.86-6.69a72.8,72.8,0,0,0-.73,7.92,76.29,76.29,0,0,0,.57,12.57q1.92,15,3.86,30c2.88,22.4,15.28,38.48,29.68,38.48h79.64c14.33,0,26.71-16,29.65-38.25l4-30A78.3,78.3,0,0,0,913.47,363.83Z"/><g class="cls-3"><path class="cls-4" d="M911,390.05c-.71,5.31-1.4,10.63-2.11,16a65.67,65.67,0,0,1-4.26,16.39l-1.34.24c-35.35,5.87-65.06-37.7-70.29-57.14-4.19-15.56.76-38.79,2.9-47.45.54-2.17.9-3.42.9-3.42.31,1.17.62,2.31.92,3.42,7.18,26.54,10.65,36.32,37.19,56.93C889.87,386.59,902.53,389.66,911,390.05Z"/></g><g class="cls-5"><path class="cls-6" d="M861.94,444.16l-62.34.09c-14.39,0-26.8-16.08-29.69-38.47q-1.92-15-3.85-30a78.44,78.44,0,0,1-.58-12.56c.47-12.36,3.95-23.64,9.36-31.86a38.8,38.8,0,0,1,3.06-4.06c.08,9.32,1.29,46,25,78.13C825.54,436.15,854,442.67,861.94,444.16Z"/></g><path class="cls-7" d="M903.76,330.87c-1.75,4.93-6.48,9.62-7.61,10.72-12.83,12.67-25.79,7.34-56.38,6.72-35.62-.72-51.19,5.81-60.85-8.28a27.75,27.75,0,0,1-4.09-8.7c5.39-8.18,12.71-13.28,20.91-13.28h87.44C891.25,318.05,898.43,323,903.76,330.87Z"/><path class="cls-8" d="M883.48,330.56c-1.26,3.51-4.63,6.85-5.43,7.64-9.15,9-18.39,5.24-40.21,4.79-25.39-.51-36.5,4.14-43.39-5.9a20,20,0,0,1-2.91-6.21c3.84-5.83,9.06-9.46,14.91-9.46H868.8C874.55,321.42,879.67,324.92,883.48,330.56Z"/><path class="cls-9" d="M836.49,347.32c-.17-.37-17.16-37.11-33.22-79.1-21.6-56.51-31.33-95.12-28.92-114.75l2.34.28c-5.67,46,61.25,191.12,61.93,192.58Z"/><path class="cls-9" d="M816.07,173.67a32.1,32.1,0,0,1-5,15.82c-9,14.39-26.82,20.82-26.82,20.82,4.37-16.05,12.21-31.13,19-39.52C810.54,161.82,816.64,160.47,816.07,173.67Z"/><path class="cls-9" d="M794.49,242.22c.76.11,1.19.2,1.19.2l-.87,1.29a84.25,84.25,0,0,1-21.93,22c-11.78,7.77-21,7.48-16.33-6.57a23.07,23.07,0,0,1,9.78-12.62C776.51,240.15,790.39,241.61,794.49,242.22Z"/><path class="cls-9" d="M804.71,272.83a86.75,86.75,0,0,1-20,21.37c-13.06,9.69-24.18,10.54-19.14-4.61a23.14,23.14,0,0,1,11.3-13.5C788.83,269.65,804.71,272.83,804.71,272.83Z"/><path class="cls-9" d="M816.88,298.78a87.28,87.28,0,0,1-19.25,20.81c-13.37,10.21-25,11.39-19.88-4a23.07,23.07,0,0,1,10.83-13.24C800.57,295.52,816.88,298.78,816.88,298.78Z"/><path class="cls-9" d="M783.92,211.43a85.74,85.74,0,0,1-21.33,22.34c-12.46,8.76-22.67,9-17.8-5.58a23.33,23.33,0,0,1,13-14.32C769.45,208.53,783.92,211.43,783.92,211.43Z"/><path class="cls-9" d="M825.79,207.39a32,32,0,0,1-4,14.14c-7.51,13.65-23.22,20.66-27,22.18L794,244l.51-1.81c5-17.37,14-33.34,21-40.55C821.61,195.42,826.29,195.74,825.79,207.39Z"/><path class="cls-9" d="M837.43,235.55a33.1,33.1,0,0,1-7.36,19.2c-9.41,12-24.44,17.43-24.44,17.43C810,256,818,240.82,824.8,232.46,832,223.67,838,222.44,837.43,235.55Z"/><path class="cls-9" d="M847.6,260.09c-.45,10.54-5.94,18.62-12.23,24.47a64.36,64.36,0,0,1-19.58,12.16,123.27,123.27,0,0,1,15.7-35C840.1,249,848.25,244.91,847.6,260.09Z"/><path class="cls-9" d="M800.2,144.22a31.81,31.81,0,0,1-3.37,13.24c-6.68,13.3-20.87,19.17-20.87,19.17,3-13.06,8.3-25.38,13.15-33.06C795.2,133.94,800.63,131.6,800.2,144.22Z"/><path class="cls-9" d="M784.5,112.49a95.45,95.45,0,0,1-2.31,20.18,127.5,127.5,0,0,1-6.85,22.51S769,135,772.09,118.82a27.77,27.77,0,0,1,4.62-11.36l.22-.3C781.93,100.57,784.34,104.15,784.5,112.49Z"/><path class="cls-9" d="M775.56,173.78c-6.84,8.3-15.13,14.59-21.86,17.77-9.46,4.47-15.83,2.77-10.66-8.19a19.58,19.58,0,0,1,8.56-9.28C762,168.54,775.56,173.78,775.56,173.78Z"/><path class="cls-10" d="M788.58,302.3c3.2,6.53,6.28,12.32,9,17.29-13.37,10.21-25,11.39-19.88-4A23.07,23.07,0,0,1,788.58,302.3Z"/><path class="cls-10" d="M776.88,276.09c2.61,6.46,5.24,12.51,7.84,18.11-13.06,9.69-24.18,10.54-19.14-4.61A23.14,23.14,0,0,1,776.88,276.09Z"/><path class="cls-10" d="M766.33,246.56c2.09,6.68,4.29,13.09,6.55,19.19-11.78,7.77-21,7.48-16.33-6.57A23.07,23.07,0,0,1,766.33,246.56Z"/><path class="cls-10" d="M757.74,213.87q2.19,10.26,4.85,19.9c-12.46,8.76-22.67,9-17.8-5.58A23.33,23.33,0,0,1,757.74,213.87Z"/><path class="cls-10" d="M751.6,174.08q.84,8.89,2.1,17.47c-9.46,4.47-15.83,2.77-10.66-8.19A19.58,19.58,0,0,1,751.6,174.08Z"/><path class="cls-10" d="M831.49,261.71c8.61-12.75,16.76-16.8,16.11-1.62-.45,10.54-5.94,18.62-12.23,24.47C834.56,278.88,833.32,271,831.49,261.71Z"/><path class="cls-10" d="M824.8,232.46c7.2-8.79,13.2-10,12.63,3.09a33.1,33.1,0,0,1-7.36,19.2C828.62,247.88,826.88,240.38,824.8,232.46Z"/><path class="cls-10" d="M815.51,201.67c6.1-6.25,10.78-5.93,10.28,5.72a32,32,0,0,1-4,14.14C819.92,215.08,817.83,208.42,815.51,201.67Z"/><path class="cls-10" d="M803.28,170.79c7.26-9,13.36-10.32,12.79,2.88a32.1,32.1,0,0,1-5,15.82C808.7,183.26,806.1,177,803.28,170.79Z"/><path class="cls-10" d="M800.2,144.22a31.81,31.81,0,0,1-3.37,13.24q-3.65-7.05-7.72-13.89C795.2,133.94,800.63,131.6,800.2,144.22Z"/><path class="cls-9" d="M836.12,346.88c-.55-6.82-13.22-167.55,7.58-207.56l2.09,1.08c-20.5,39.42-7.46,204.63-7.33,206.3Z"/><path class="cls-9" d="M875.23,177.77a26.74,26.74,0,0,1-9.84,12.1c-13,8.87-31.5,6.16-31.5,6.16,9.34-12.6,21.54-22.65,30.58-27.06C874.11,164.25,880.14,166,875.23,177.77Z"/><path class="cls-9" d="M832.64,230.2c.66.47,1,.75,1,.75l-1.23.76A69.11,69.11,0,0,1,805,241.36c-13.38,1.44-21.75-3.27-12.78-13.89a18.7,18.7,0,0,1,13.17-6.86C816.85,219.64,829.09,227.66,832.64,230.2Z"/><path class="cls-9" d="M831.82,263.17a70.93,70.93,0,0,1-25.43,10c-15.19,2.59-25.67-2-16-13.44a18.88,18.88,0,0,1,14.85-6.94C818.33,252.61,831.82,263.17,831.82,263.17Z"/><path class="cls-9" d="M834.34,292.81a71.16,71.16,0,0,1-24.57,9.8c-15.65,2.92-26.72-1.62-16.87-13.29a18.83,18.83,0,0,1,14.33-6.92C820.48,282,834.34,292.81,834.34,292.81Z"/><path class="cls-9" d="M833.2,196.89a70.12,70.12,0,0,1-27,10.2c-14.33,2-23.78-2.62-14.45-13.68,4.73-5.6,10.7-7.24,16.63-6.89C820.9,187.27,833.2,196.89,833.2,196.89Z"/><path class="cls-9" d="M872.91,213.36a26.73,26.73,0,0,1-8.37,11c-11.42,8.89-28.14,7.75-32.11,7.33l-.86-.1c.35-.48.71-1,1.07-1.41,10.39-13.5,23.9-23.83,32.76-27C873.06,200.37,877.25,202.92,872.91,213.36Z"/><path class="cls-9" d="M874.21,244.76a27.23,27.23,0,0,1-13.14,14.05c-12.61,6.48-28.2,4.2-28.2,4.2,9.42-12.7,21.74-22.8,30.79-27.16C873.18,231.26,879.09,233,874.21,244.76Z"/><path class="cls-9" d="M875.36,272.15c-3.92,9.44-11.63,14.2-19.35,16.53a56.89,56.89,0,0,1-22,1.72,100.1,100.1,0,0,1,26-24.53C872.2,258.34,881,258.55,875.36,272.15Z"/><path class="cls-9" d="M870.48,143.14A26.63,26.63,0,0,1,863,153.65c-10.54,9-25.51,7.52-25.51,7.52,7.12-10.51,16.06-19.27,23.06-24C869.32,131.31,875.08,131.78,870.48,143.14Z"/><path class="cls-9" d="M866.66,106.5a84.34,84.34,0,0,1-8.84,17.38,105.7,105.7,0,0,1-13.77,17.33s.93-21.58,9.13-34.88a22.76,22.76,0,0,1,8-8.19l.29-.16C868.27,94.34,869.29,98.78,866.66,106.5Z"/><path class="cls-9" d="M838.07,158.36c-9,4.32-18.72,6.09-25.94,5.76-10.16-.46-15.43-5.08-7-12.64A16.07,16.07,0,0,1,816,147.1C827.41,147,838.07,158.36,838.07,158.36Z"/><path class="cls-10" d="M807.23,282.4c.76,7.53,1.65,14.32,2.54,20.21-15.65,2.92-26.72-1.62-16.87-13.29A18.83,18.83,0,0,1,807.23,282.4Z"/><path class="cls-10" d="M805.24,252.75c.23,7.17.64,14,1.15,20.38-15.19,2.59-25.67-2-16-13.44A18.88,18.88,0,0,1,805.24,252.75Z"/><path class="cls-10" d="M805.4,220.61c-.32,7.13-.43,14.07-.39,20.75-13.38,1.44-21.75-3.27-12.78-13.89A18.7,18.7,0,0,1,805.4,220.61Z"/><path class="cls-10" d="M808.4,186.52c-.94,7-1.65,13.84-2.18,20.57-14.33,2-23.78-2.62-14.45-13.68C796.5,187.81,802.47,186.17,808.4,186.52Z"/><path class="cls-10" d="M816,147.1q-2.19,8.55-3.88,17c-10.16-.46-15.43-5.08-7-12.64A16.07,16.07,0,0,1,816,147.1Z"/><path class="cls-10" d="M860.06,265.87c12.14-7.53,21-7.32,15.3,6.28-3.92,9.44-11.63,14.2-19.35,16.53C857.16,283.09,858.63,275.31,860.06,265.87Z"/><path class="cls-10" d="M863.66,235.85c9.52-4.59,15.43-2.83,10.55,8.91a27.23,27.23,0,0,1-13.14,14.05C862,251.82,862.93,244.11,863.66,235.85Z"/><path class="cls-10" d="M865.4,203.15c7.66-2.78,11.85-.23,7.51,10.21a26.73,26.73,0,0,1-8.37,11C865,217.57,865.28,210.46,865.4,203.15Z"/><path class="cls-10" d="M864.47,169c9.64-4.72,15.67-3,10.76,8.8a26.74,26.74,0,0,1-9.84,12.1C865.28,183,865,176,864.47,169Z"/><path class="cls-10" d="M870.48,143.14A26.63,26.63,0,0,1,863,153.65q-1-8.22-2.45-16.45C869.32,131.31,875.08,131.78,870.48,143.14Z"/><path class="cls-9" d="M853.46,344.16l-1.45-.6c.41-1,41.11-100,36.14-130.38l1.55-.25C894.74,243.74,855.14,340.08,853.46,344.16Z"/><path class="cls-9" d="M862.49,227.93a21,21,0,0,0,3.73,10.33c6.34,9.23,18.37,12.83,18.37,12.83-3.32-10.51-8.92-20.24-13.67-25.56C865.85,219.84,861.77,219.17,862.49,227.93Z"/><path class="cls-9" d="M878.63,272.69l-.78.17c.2.28.4.56.61.83a54.66,54.66,0,0,0,15.15,13.83c8,4.71,14.17,4.18,10.69-5a15,15,0,0,0-6.84-8C890.53,270.63,881.34,272.13,878.63,272.69Z"/><path class="cls-9" d="M872.63,293.43a56.4,56.4,0,0,0,13.85,13.45c8.94,5.95,16.36,6.09,12.61-3.79a15.07,15.07,0,0,0-7.87-8.55C883.11,290.71,872.63,293.43,872.63,293.43Z"/><path class="cls-9" d="M865.22,311.14a56.61,56.61,0,0,0,13.34,13.11c9.16,6.28,16.94,6.62,13.12-3.45a15,15,0,0,0-7.55-8.39C876,308.35,865.22,311.14,865.22,311.14Z"/><path class="cls-9" d="M884.85,251.82a55.56,55.56,0,0,0,14.77,14c8.51,5.36,15.31,5.16,11.68-4.38a15.12,15.12,0,0,0-9-9C894.4,249.34,884.85,251.82,884.85,251.82Z"/><path class="cls-9" d="M856.91,250.72a20.93,20.93,0,0,0,3,9.25c5.35,8.79,16,12.85,18.52,13.72l.55.18c-.12-.39-.25-.79-.38-1.18-3.8-11.36-10.16-21.64-15-26.17C859.38,242.6,856.27,243,856.91,250.72Z"/><path class="cls-9" d="M849.9,269.87a21.59,21.59,0,0,0,5.4,12.49C861.87,290,872,293,872,293c-3.35-10.59-9-20.39-13.79-25.68C853.21,261.78,849.19,261.18,849.9,269.87Z"/><path class="cls-9" d="M843.79,286.58c.57,7,4.43,12.15,8.76,15.8a42,42,0,0,0,13.34,7.35A80.48,80.48,0,0,0,854.54,287C848.48,278.9,843,276.51,843.79,286.58Z"/><path class="cls-9" d="M872.27,207.75a20.72,20.72,0,0,0,2.59,8.67c4.79,8.59,14.38,12,14.38,12a74.84,74.84,0,0,0-9.61-21.49C875.33,200.72,871.65,199.37,872.27,207.75Z"/><path class="cls-9" d="M881.88,186.06a63.59,63.59,0,0,0,2.06,13.33,84,84,0,0,0,5.15,14.71s3.68-13.69,1.21-24.3a18.24,18.24,0,0,0-3.37-7.38l-.15-.19C883.28,178,881.77,180.51,881.88,186.06Z"/><path class="cls-9" d="M889.43,226.47a44.15,44.15,0,0,0,15,11c6.41,2.61,10.6,1.24,6.88-5.85a12.75,12.75,0,0,0-5.94-5.85C898.29,222.47,889.43,226.47,889.43,226.47Z"/><path class="cls-10" d="M884.13,312.41c-2,4.46-3.85,8.43-5.57,11.84,9.16,6.28,16.94,6.62,13.12-3.45A15,15,0,0,0,884.13,312.41Z"/><path class="cls-10" d="M891.22,294.54c-1.56,4.39-3.16,8.51-4.74,12.34,8.94,5.95,16.36,6.09,12.61-3.79A15.07,15.07,0,0,0,891.22,294.54Z"/><path class="cls-10" d="M897.46,274.51c-1.21,4.52-2.51,8.86-3.85,13,8,4.71,14.17,4.18,10.69-5A15,15,0,0,0,897.46,274.51Z"/><path class="cls-10" d="M902.32,252.45c-.79,4.6-1.7,9.08-2.7,13.41,8.51,5.36,15.31,5.16,11.68-4.38A15.12,15.12,0,0,0,902.32,252.45Z"/><path class="cls-10" d="M905.36,225.76q-.32,6-.94,11.7c6.41,2.61,10.6,1.24,6.88-5.85A12.75,12.75,0,0,0,905.36,225.76Z"/><path class="cls-10" d="M854.54,287c-6.06-8.14-11.58-10.53-10.75-.46.57,7,4.43,12.15,8.76,15.8C852.94,298.58,853.57,293.32,854.54,287Z"/><path class="cls-10" d="M858.22,267.35c-5-5.57-9-6.17-8.32,2.52a21.59,21.59,0,0,0,5.4,12.49C856.09,277.74,857.05,272.69,858.22,267.35Z"/><path class="cls-10" d="M863.6,246.52c-4.22-3.92-7.33-3.53-6.69,4.2a20.93,20.93,0,0,0,3,9.25C861,255.6,862.23,251.1,863.6,246.52Z"/><path class="cls-10" d="M870.92,225.53c-5.07-5.69-9.15-6.36-8.43,2.4a21,21,0,0,0,3.73,10.33C867.64,234,869.21,229.77,870.92,225.53Z"/><path class="cls-10" d="M872.27,207.75a20.72,20.72,0,0,0,2.59,8.67c1.49-3.21,3.08-6.4,4.77-9.53C875.33,200.72,871.65,199.37,872.27,207.75Z"/><g class="cls-11"><path class="cls-12" d="M726.59,679.1c10.72-3.66,48.57-17.11,78-52.65,61.83-74.54,57-210.36-6-261.86-79.31-64.85-225.75,24.48-259.08-28.76-19-30.4,25.83-64.16,19.94-119.36-10.36-97-170.87-199.19-303.4-176.55C65.17,72.55-50.93,361.51,33.65,517.44c35,64.48,110,116.8,172.22,141,4,1.58,58.08,22.43,118.28,25.35a434.49,434.49,0,0,0,67-1.94c17.33-1.84,30-4.18,32.73-4.67C447.92,672.89,627.44,713,726.59,679.1Z"/></g><rect class="cls-13" x="257.5" y="129.69" width="105.27" height="78" rx="19.63"/><path class="cls-14" d="M362.76,179.17V143a13.31,13.31,0,0,0-13.31-13.32H270.81A13.31,13.31,0,0,0,257.5,143v36.16Z"/><polygon class="cls-15" points="291.88 126.38 276.27 107.75 326.54 107.75 343.88 126.38 291.88 126.38"/><path d="M346,127.3H291.45l-17.14-20.46h52.63Zm-53.69-1.83h49.47l-15.63-16.8h-47.9Z"/><rect class="cls-13" x="216.78" y="26.63" width="189.29" height="140.62" rx="31.7"/><path class="cls-16" d="M397.6,56.22V139a21.68,21.68,0,0,1-18.26,21.41,21.33,21.33,0,0,1-3.42.27H246.73A21.68,21.68,0,0,1,225.05,139V56.22a21.67,21.67,0,0,1,21.68-21.68H375.92A21.68,21.68,0,0,1,397.6,56.22Z"/><g class="cls-3"><path class="cls-17" d="M334.66,64.49l35.15,51.38c-2.6,3.18-22.81,27.13-56.79,27-31.65-.09-51-21-54.08-24.34q17.58-27,35.15-54.08A58.91,58.91,0,0,0,334.66,64.49Z"/></g><g class="cls-18"><path class="cls-15" d="M332,75.31c-6.64-7.47-19.19-6.6-24.34,0s-2.42,17.92,2.71,21.63c1.11.8,2.57,1.41,2.7,2.7.27,2.62-6,6.11-7.7,5.79,1.36-1.84,2.69-4.23,2.35-6.29a3.92,3.92,0,0,0-2.41-3c-5.52-2.61-12.79-10.53-13.05-12.86a.82.82,0,0,0-.91-.73.83.83,0,0,0-.73.91c.34,3.07,8,11.36,14,14.17A2.34,2.34,0,0,1,306,99.4a5.29,5.29,0,0,1-.82,3.14,2.51,2.51,0,0,0-.13-1.71c-.52-.88-1.68-1.07-5.59-1.19-5.59-.17-10.81,0-10.81,0s1.35-4.2,0-5.41a2.52,2.52,0,0,0-2.71,0c-2.35,1.42-4.45,10.33,0,10.82,2.71.3,11.12-.3,10.82,2.71-4.63-1.59-6.9-1-8.11,0s-1.18,1.85-2.71,2.7c-1.7.94-4.29,1.2-5.41,0s-.28-3.25-1.11-3.54c-.53-.18-1.25.51-1.59.84a4.61,4.61,0,0,0-1.16,1.85c-1.25,3.53-1.88,5.29-1.55,6.26a4,4,0,0,0,2.71,2.7c1.8.3,2.57-1.74,5.41-2.7.41-.14,3.5-1.15,5.41,0,3.3,2-.44,8.39,2.7,13.52,4,6.61,16.12,5.55,16.85,5.5,3.9-.26,8.24-1.78,12.9-5.5,13.52-10.82,8.11-29.75,8.11-29.75C337.1,93.47,338,82.09,332,75.31Z"/></g><g class="cls-19"><rect class="cls-17" x="235.86" y="48.41" width="37.86" height="2.7"/></g><g class="cls-19"><rect class="cls-17" x="235.56" y="56.53" width="37.86" height="2.7"/></g><g class="cls-19"><rect class="cls-17" x="235.86" y="64.64" width="37.86" height="2.7"/></g><path class="cls-20" d="M318.44,160.67H246.73A21.68,21.68,0,0,1,225.05,139V56.22a21.52,21.52,0,0,1,3.68-12.09c-2,25.39-2.91,101.1,56.53,111Z"/><polygon class="cls-14" points="238.26 189.03 232.42 207.96 179.8 207.96 168.11 189.03 179.92 189.03 187.04 199.7 216.78 199.7 222.12 189.03 238.26 189.03"/><rect class="cls-13" x="247.18" y="206.7" width="129.55" height="148.27"/><polygon class="cls-13" points="230.15 188.73 392.4 188.73 422.15 232 205.81 232 230.15 188.73"/><rect class="cls-14" x="205.67" y="230.53" width="216.33" height="13.52"/><path class="cls-16" d="M245.2,191.58H379.62a6.28,6.28,0,0,1,5.18,2.73l17.29,25.14a6.28,6.28,0,0,1-5.18,9.84H231.06a6.28,6.28,0,0,1-5.48-9.36l14.14-25.14A6.29,6.29,0,0,1,245.2,191.58Z"/><rect class="cls-15" x="246.68" y="202.11" width="132.5" height="0.89"/><rect class="cls-15" x="246.53" y="218.33" width="132.5" height="0.89"/></g><path class="cls-20" d="M397.6,56.22V139a21.68,21.68,0,0,1-18.26,21.41c2.06-10.61,5.55-36.44-6.6-64.9-18.19-42.59-57.34-58.14-64.88-61h68.06A21.68,21.68,0,0,1,397.6,56.22Z"/></g><g id="woman_1" data-name="woman 1"><path class="cls-14" d="M462.86,583.13a9.48,9.48,0,0,0,9.47,9.47h.38L561,589.1a9.46,9.46,0,0,0,9-9.11q.15-3.87.29-7.74a9.47,9.47,0,0,0-10.66-9.73l-88.55,11.2a9.48,9.48,0,0,0-8.19,8A10.27,10.27,0,0,0,462.86,583.13Z"/><path class="cls-13" d="M462.86,581.77v1.36a9.48,9.48,0,0,0,9.47,9.47h.38L561,589.1l8.72-.34c.11-2.93.21-5.85.32-8.77.15-3.82.63-5.24.29-7.74-.49-3.63-2.1-7.3-2.9-7.16-.61.1-1.1,2.44-.47,12.56l-104,4.11Z"/><circle class="cls-14" cx="463.04" cy="586" r="18.62"/><circle class="cls-13" cx="463.04" cy="586" r="12.41"/><path class="cls-21" d="M478.49,604.62a73.2,73.2,0,0,0-2.37-39.93l25.27-5.86A138.91,138.91,0,0,0,500,576.62c-.29,19.69,3.8,26.94,0,35.78-2.13,5-7.1,11.22-19.88,15.91-5.67,1.48-7.41.84-7.95,0-.39-.6-.12-1.22,0-4,.09-2.13,0-3.4,0-4C472.15,618.35,473.34,614.17,478.49,604.62Z"/><path class="cls-22" d="M507.11,611.25c-.13,3.25-1.64,7.22-5.72,14.26-7.13,12.28-7.26,15.38-9.26,18.59a17.26,17.26,0,0,1-2.19,2.79c-4.46,4.77-12.72,5.22-13.82,5.27-6.63.3-18.12-1.8-19.88-7.95-.58-2,.12-3.6,1.74-5.88A153.22,153.22,0,0,0,467,625.51C473.8,614.4,478.44,604,478.53,604l0,.12c-2.37,7.42-5.5,17.19-2.37,20.21,2.95,2.85,11.26-.51,15.9-4,.52-.38,8.64-6.63,9.37-16.23.3-4-.75-6.73,0-7.13s3.73,3.45,5.1,8.72A19.59,19.59,0,0,1,507.11,611.25Z"/><rect class="cls-13" x="553.04" y="427.03" width="24.14" height="143.41" transform="translate(1130.21 997.48) rotate(180)"/><path class="cls-21" d="M354.62,184a112.83,112.83,0,0,1-11-5.79c-6.68-4-8.28-5.91-12.84-7-3.45-.87-6.58-.58-12.84,0a84.44,84.44,0,0,0-17.13,3.53c-4.52,1.29-8.73,2.52-8.56,3.52s3.53,1.17,6.84,1.44a95,95,0,0,0,15.15,0l-22,5.62q-4.73,2.56-4.28,3.53c.35.78,3.21.78,8.56,0l25.69-3.53-23.13,7.42c-2.15.51-3.08,2.15-2.56,3.17a3,3,0,0,0,2.56,1.18l31.69-4.71a22,22,0,0,0-4.28,3.53c-3.27,3.49-6.19,9.08-4.28,10.58,1.53,1.21,5.41-.8,12.84-3.53A172.35,172.35,0,0,1,354.62,197Z"/><path class="cls-23" d="M572.22,120.66a164.75,164.75,0,0,0-30.74,11.47c-1.31.61-3.54,1.69-6.17,3.25a74.3,74.3,0,0,0-18,15.1c-7.67,8.56-29.49,30.15-60.07,60.2-16.5-6.92-34.54-13.78-54-20.2s-38.22-11.66-55.67-15.9q2,15.9,4,31.81a381.06,381.06,0,0,0,62.6,31.23c24.76,9.63,37.41,14.93,52.7,13.76,44.27-3.4,70.51-45.82,74.65-52.75Z"/><rect class="cls-24" x="570.28" y="427.03" width="6.9" height="143.41"/><path class="cls-14" d="M569.27,568.77q-.49,3.83-1,7.65a9.5,9.5,0,0,0,7.4,10.5l86.5,18.17.37.07a9.48,9.48,0,0,0,10.87-7.49c0-.09,0-.18.05-.28a9.47,9.47,0,0,0-6.6-10.65l-85.45-25.81A9.48,9.48,0,0,0,569.27,568.77Z"/><path class="cls-14" d="M577.52,569.62v9a7.8,7.8,0,0,1-3.66,6.43L535.3,610.86c-6.19,4.14-15.19.33-15.19-6.43h0a7.43,7.43,0,0,1,1.91-4.91l30.54-34.81a10,10,0,0,1,7.51-3.23h8C573.3,561.48,577.52,565.12,577.52,569.62Z"/><path class="cls-13" d="M567.13,585.12l8.54,1.8,86.5,18.17.37.07a9.48,9.48,0,0,0,10.87-7.49l-99.88-27.62q-2.34,5.52-4.69,11Z"/><ellipse class="cls-14" cx="529.22" cy="621.31" rx="17.32" ry="18.93"/><ellipse class="cls-13" cx="529.22" cy="621.31" rx="11.55" ry="12.62"/><circle class="cls-14" cx="660.34" cy="599.93" r="18.62" transform="translate(-87.57 113.52) rotate(-9.22)"/><circle class="cls-13" cx="660.34" cy="599.93" r="12.41" transform="translate(-146.63 980.42) rotate(-67.5)"/><path class="cls-21" d="M383.49,607.84q.31,5.88.62,11.77l4.14-.31,40.43-3,3.22-.24a18.88,18.88,0,0,0,.39-8.29,18.15,18.15,0,0,0-2.34-6.07,22.35,22.35,0,0,0-2.35-3.16c-2.78-3.29-5.26-10.63-5.25-27.52,0-3.63.12-7.68.38-12.23a5.86,5.86,0,0,0-5.7-6h-8.87a9.14,9.14,0,0,0-4,1.76c-4.05,3.14-4,9-3.88,15.89.09,5.46.21,11.59-1.62,17.63-1.47,4.85-4.8,11.63-13.44,18.48C384.65,607,384.08,607.41,383.49,607.84Z"/><path class="cls-25" d="M573.71,411.61,435.33,387.56a4.55,4.55,0,0,1-.75-8.76l101.85-36.4a4.56,4.56,0,0,1,1.9-.25l148.72,12.23c1.52.12,2.05,4.68,1.42,8.71-2,12.69-21.16,12.18-60.07,30.47-13.94,6.55-28.87,14.79-52.12,17.75A12.32,12.32,0,0,1,573.71,411.61Z"/><path class="cls-25" d="M704.81,345.24c18.86-32.9,20-57.15,17.18-73.53-2.66-15.7-8.58-22.7-7.89-40.87.87-23,11.15-28.05,12.67-47.87,1.35-17.58-4.63-41.06-19.88-54.51-21.3-18.77-52-10.37-111.14,5.77-30.35,8.29-46.47,16.61-53.54,31.78a47.79,47.79,0,0,0-4.28,23.78c6.05,78.57,4.79,118.1,21.62,136.64C589.57,359.5,648.44,366,704.81,345.24Z"/><path class="cls-26" d="M683.71,342.13c16.74-31.33,17.66-54.8,15-70.9s-8.59-22.85-7.9-40.86c.88-23,11.15-28.06,12.67-47.87,1.35-17.58-4.63-41.07-19.88-54.51a41,41,0,0,0-19.44-9.6c18.41-2,31.8.45,42.72,10.07,15.25,13.45,21.23,36.93,19.88,54.51-1.52,19.82-11.8,24.85-12.67,47.87-.69,18,5.23,24.72,7.89,40.87s1.73,39.56-15,70.89c-2.36,5.7-6.47,12.56-13.58,17.18-4,2.63-5.6,2.28-6.18,2.07C681.8,359.92,683.54,343.66,683.71,342.13Z"/><path class="cls-26" d="M692.64,355c10,4.47,13.39,25.32,6.92,40-3.13,7.08-9,13.6-32.23,23.75-27.79,12.16-70.52,30.86-85.49,14.06-2.88-3.25-6.6-9.9-4.44-24.25a196.2,196.2,0,0,0,59.47-21.67C668.25,369.14,681.26,349.91,692.64,355Z"/><path class="cls-23" d="M493.72,318.61a514.38,514.38,0,0,0-52,19.51c-33.6,14.71-50.4,22.06-58.54,32.52-12.49,16-11.88,35,0,117.09,4.67,32.23,9.12,60.71,13,84.56h32.52l19.51-162.62c88.41-14.26,148.45-41.56,149.61-71.55.25-6.42-2.12-15.19-13-26Z"/><path class="cls-16" d="M658.67,319.34s-6.22,1-15.87,2.07c-29.7,3.2-91.9,6.39-105.41-20.62l-.42-9q-1.35-29.13-2.71-58.27c-.9-19.39-.72-38.87-2.71-58.19-.66-6.49-1.4-12.34.23-20.2,4.1-19.72,18.78-31.29,20.41-32.54,20-15.31,44.17-10.55,50.45-9.17,33.15,7.29,50.39,37.76,54,44.21l.26,20.82,1.27,103Z"/><path class="cls-21" d="M603.75,115.46a20.27,20.27,0,0,1-36.18,7.87c.83-4.74,1.85-9.68,3.1-14.78.5-2.07,1-4.1,1.57-6.08h0c0-.55-.09-.93-.09-.93s-.52-2.5-1.14-5l-.06-.27c-.23-1-.46-2-.7-3.05-.06-.29-.12-.58-.19-.88-.23-1-.46-2.06-.7-3.1v0q-1.41-6.21-2.81-12.42l22.26,6.7,1.65.49,2.49.75Q598.35,100.08,603.75,115.46Z"/><path class="cls-27" d="M593.05,92.57c0,.06,0,.14,0,.22s-.1.47-.24.93c-1.41,4.91-9.29,9.73-9.29,9.73a41.36,41.36,0,0,1-12.8,5.1,26.71,26.71,0,0,0,1.23-3.78,8,8,0,0,0,.34-2.3,54.93,54.93,0,0,0,14.88-10.64c.25-.24.44-.48.65-.7l1.73.47.47.14Z"/><path class="cls-21" d="M545,71.24c2.35,11.7,11.11,29.2,25.17,31.47,24.72,4,49.64-41.71,45-46.41-1.08-1.09-3,.84-7.09.82-16.63-.08-21.55-34.59-36.59-32.45-13.15,1.87-20.77,15.55-22.48,18.62A40.55,40.55,0,0,0,545,71.24Z"/><path d="M558.19,64.87a3,3,0,1,1-3.29-2.61A3,3,0,0,1,558.19,64.87Z"/><path d="M584.11,62.64A3,3,0,1,1,580.82,60,3,3,0,0,1,584.11,62.64Z"/><path class="cls-28" d="M546.69,59.09a8.89,8.89,0,0,1,3.11-2.47,12.7,12.7,0,0,1,3.62-1.18,12.53,12.53,0,0,1,3.82-.08A9,9,0,0,1,561,56.69a2.45,2.45,0,0,1-.52,1.94c-1,1.06-2.63.12-6.44.38-1.65.11-1.82.31-3.51.35A17.17,17.17,0,0,1,546.69,59.09Z"/><path class="cls-28" d="M586.83,53.73a8.88,8.88,0,0,0-3.6-1.7,12.82,12.82,0,0,0-3.8-.33,12.44,12.44,0,0,0-3.73.79,9,9,0,0,0-3.35,2.14,2.5,2.5,0,0,0,.95,1.78c1.19.8,2.58-.48,6.35-1.1,1.63-.26,1.85-.1,3.5-.45A17.65,17.65,0,0,0,586.83,53.73Z"/><path class="cls-27" d="M568,79.56c-3.54-2.21-3.73-3.4-3-7.13a66.39,66.39,0,0,0,.68-10l1.49,0a67.52,67.52,0,0,1-.72,10.37c-.66,3.2-.64,3.61,2.24,5.41Z"/><path class="cls-27" d="M570.41,87.94a13.12,13.12,0,0,1-4.71-.42l.37-1.44c2.94.76,5.34.53,7.14-.68a8.22,8.22,0,0,0,3.15-5.22l1.48.19a9.69,9.69,0,0,1-3.79,6.26A8.17,8.17,0,0,1,570.41,87.94Z"/><path class="cls-29" d="M535.76,20c-7.57,11-4.87,24.13-4,27.83,1.45,3,4,7.1,8,7.95,9.18,2,15.52-15.32,28.28-17.28,5.73-.88,14.32,1.09,26.41,14.5l.72,6.28c5.92-4.54,18.88-3,12.3,11.71-1.64,3.3-4.8,5.68-3.45,6.37-7.89,9.27-7.71,22.38-.65,30.12,8.63,9.44,23.9,6.89,31.81,0,9.91-8.64,11.21-26.62,0-39.77.29-2,4.51-36-19.88-55.66C602,1.32,586.88.24,583.47.07,568.69-.67,558,4.81,551.66,8,545,11.41,539.81,14.07,535.76,20Z"/><path class="cls-30" d="M435.37,618.06c-4,5.12-11.06,4.11-22.93,4.58-18.19.73-29.42,4.22-45.87,2.3-3.65-.43-9.6-1.37-10.7-4.76a5.25,5.25,0,0,1,.53-3.81c3.69-7.74,31.08-13.48,35.4-14.37-6.15,3.66-7.17,5.69-6.88,6.88.83,3.43,13.31,3.26,20.64,2.3,5.68-.75,9.78-1.34,13.76-4.59a21,21,0,0,0,6.87-11.47c6.46,2.46,10.89,7.77,11.47,13.76C437.75,609.78,438.19,614.4,435.37,618.06Z"/><path class="cls-31" d="M435.37,615.25c-4,5.13-11.06,4.12-22.93,4.59-18.19.73-29.42,4.22-45.87,2.29-3.59-.42-9.41-1.33-10.64-4.6a4.39,4.39,0,0,0-.06,2.65c1.1,3.39,7.05,4.33,10.7,4.76,16.45,1.92,27.68-1.57,45.87-2.3,11.87-.47,19,.54,22.93-4.58,2.7-3.5,2.41-7.88,2.3-9A11.87,11.87,0,0,1,435.37,615.25Z"/><path class="cls-31" d="M384.92,606.08a1.82,1.82,0,0,0,.54.89c.84-1.19,2.68-2.79,6.34-5-.93.19-2.93.61-5.54,1.22C385,604.52,384.76,605.43,384.92,606.08Z"/><path class="cls-16" d="M571.77,331.62a516.18,516.18,0,0,0-52,19.51c-33.59,14.71-50.39,22.06-58.54,32.52-12.48,16-11.88,35,0,117.09,4.67,32.23,9.13,60.71,13,84.56h32.53l19.51-162.62c70.58.67,125.43-26.05,136.6-65.05,2.2-7.69,3.44-18.45,0-32.52Z"/><g class="cls-32"><path class="cls-23" d="M537,291.8a182.2,182.2,0,0,0,18.67,22.39l87.48-11.93,15.09-20.75-1.27-103L639.14,171s-15.9,43.74-35.79,51.69-59.64,19.89-67.59,11.93a5.94,5.94,0,0,0-1.5-1.13Z"/></g><path class="cls-31" d="M507.11,611.25c-.13,3.25-1.64,7.22-5.72,14.26-7.13,12.28-7.26,15.38-9.26,18.59a17.26,17.26,0,0,1-2.19,2.79c-4.46,4.77-12.72,5.22-13.82,5.27-6.63.3-18.12-1.8-19.88-7.95-.58-2,.12-3.6,1.74-5.88a10.69,10.69,0,0,0,2.23,5.88c1,1.23,2.82,2.84,8,4,5.39,1.19,10.95,2.42,15.91,0,3.15-1.54,2.64-2.89,11.93-19.88A145.56,145.56,0,0,0,504,612.4c1.12-2.72,2-5,2.54-6.69A19.08,19.08,0,0,1,507.11,611.25Z"/></g><g id="women_4" data-name="women 4"><path class="cls-21" d="M159.77,305.37c8.08-13.37,29.39-12.11,31.81-11.93,15.52,1.13,19,9.46,46,23.86,9.86,5.26,21.84,11.65,37.52,15.9,18,4.89,32.17,4.57,51.69,4a344.6,344.6,0,0,0,63.62-7.95v19.88a295.77,295.77,0,0,1-113.63,31.81A509.35,509.35,0,0,1,207.49,361c-32.6-11.94-43.72-19.88-48.34-31.81C158.25,326.91,154,315,159.77,305.37Z"/><path class="cls-33" d="M151.82,309.34c-3.39,21.69,21.59,40.94,39.76,47.72,6.64,2.47,12.62,4.86,19.32,2.83,21.84-6.61,24.42-50.55,24.42-50.55-22.18-24.25-50.68-32.08-68.17-21.89C159.47,291.92,153.25,300.25,151.82,309.34Z"/><path class="cls-21" d="M399.07,329.18a9.68,9.68,0,0,0,4-4c1.72-3.36,1.21-7.71,0-8-.87-.25-1.35,1.82-4,4-3.26,2.68-5.47,2-8,4-1.49,1.17-3.3,3.39-4,8h8Z"/><path class="cls-21" d="M379,337.22l28.16-16.08a67.21,67.21,0,0,1,16.08,0,70.11,70.11,0,0,1,16.09,4c5.49,2.06,8.09,2.83,8,4,0,1-1.77,1.64-2.29,1.85-3.94,1.51-7.41-.45-11.54-1.6-7.62-2.12-14.3-.6-14.32-.25s9.05.82,21.48,4.23c3.89,1.07,10.9,3,10.75,4.78-.08.86-1.88,1.35-2.79,1.59-5.31,1.4-9.29-.72-14.33-2-8.17-2.05-15.09-.82-15.11-.57s4.89.4,11.93,1.76c6.2,1.2,16.5,3.8,16.32,5.58-.11,1.07-4,1.5-4.78,1.59a19.78,19.78,0,0,1-8-.8,40.51,40.51,0,0,0-15.12-1.19c14.18,5.44,16.91,7.29,16.71,8s-3.1.62-6.36,0l-14.76-2.83s-16.09,8-32.17,0S379,337.22,379,337.22Z"/><g class="cls-34"><path class="cls-15" d="M171.66,285.31c16.14-.34,35.61,8.61,51.73,26.24,0,0-2.27,38.62-20.55,48.89a18.38,18.38,0,0,0,8.06-.55c21.84-6.61,24.42-50.55,24.42-50.55C215,287.08,189.27,278.65,171.66,285.31Z"/></g><path class="cls-35" d="M802.75,354c18.15-4.87,29-12.88,35.78-19.88,5.86-6.07,10-12.81,11.93-11.93,2.38,1.08-.65,12.93-4,23.86,0,0-15.91,23.85-15.91,31.81s-8,7.95-31.81-8S802.75,354,802.75,354Z"/><path class="cls-13" d="M194.17,707.28A10.16,10.16,0,0,1,184,697.12V421.32a10.16,10.16,0,0,1,20.32,0v275.8A10.16,10.16,0,0,1,194.17,707.28Z"/><path class="cls-13" d="M834.78,722a10.16,10.16,0,0,1-10.16-10.16V436a10.16,10.16,0,0,1,20.32,0v275.8A10.16,10.16,0,0,1,834.78,722Z"/><circle class="cls-14" cx="190.08" cy="715.3" r="28.38" transform="translate(-368.73 229.99) rotate(-34.15)"/><circle class="cls-13" cx="190.08" cy="715.3" r="18.92" transform="translate(-454.75 352) rotate(-45.72)"/><circle class="cls-14" cx="834.22" cy="728.12" r="28.38" transform="translate(-267.56 617.9) rotate(-35.4)"/><circle class="cls-13" cx="834.22" cy="728.12" r="18.92" transform="translate(-244.65 977.35) rotate(-54.12)"/><polygon class="cls-26" points="467.84 343.48 460.1 285.45 474.67 284.18 480.48 346.84 467.84 343.48"/><polygon class="cls-21" points="135.28 259.15 140.28 265.93 141.74 267.89 144.04 271 146.27 274.03 153.79 284.2 131.02 301.02 112.51 275.98 120.15 270.33 122.44 268.64 123.44 267.9 125.65 266.27 135.28 259.15"/><path class="cls-36" d="M141.36,270.68l2.29,3.11,2.24,3-.31.16a17.56,17.56,0,0,1-3.94,1.4c-6.67,1.58-13.83-.54-16.73-1.52-.31-.64-.62-1.28-.94-1.91-.6-1.18-1.24-2.35-1.92-3.52l-.37-.64a1,1,0,0,1-.1-.17l.5,0,1,.05c2.15.1,4.28.16,6.42.19Q135.44,271,141.36,270.68Z"/><path class="cls-21" d="M137.24,227.17c5.46,6.26,9.37,10.72,12,17.4.88,2.24,7.33,18.64-.25,26.6-3.45,3.63-8.31,3.71-16.68,4.25-9.11.59-19.93,1.3-28.86-4.56-12.56-8.23-21.54-29.43-11.75-44,7.49-11.15,23.9-15.32,34.07-10.51C129.2,218,131.88,221,137.24,227.17Z"/><path class="cls-37" d="M110,231.34c-1,2.18-3.23,7-1.41,11.36,2.14,5.09,8.49,6.58,8.06,9.45-.21,1.41-1.91,2.33-3.25,2.86-.2-.13-3.86-2.49-5.8-1.07a2.58,2.58,0,0,0-.94,1.51c-1.08,4.13,3.48,11.95,10.22,11.51,2.49,3.3,5,6.88,7.37,10.74a149.3,149.3,0,0,1,18.44,44.44c-12.88-3.81-46.2-15.63-67.3-48.43a107.3,107.3,0,0,1-12.6-27.58,29.61,29.61,0,0,1,.64-10.86c.94-3.71,2.28-5.82,3.71-8.56,6.49-12.42,3.38-15.84,8-19.88,6-5.32,16.29-3.67,18.73-3.28,7.36,1.18,8.85,4.37,13.08,3.28,6.72-1.73,6.44-10.7,11.92-11.93,6.45-1.44,17.26,8.65,15.91,15.91C133.18,219.23,116.37,217.66,110,231.34Z"/><path class="cls-37" d="M120.88,236.07a8.94,8.94,0,0,1-.06-4.11,12.4,12.4,0,0,1,3.75-6.65,8.78,8.78,0,0,1,3.56-2,2.71,2.71,0,0,1,1.29,1.73c.26,1.48-1.6,2.13-3.85,5.27-1,1.36-.91,1.63-2,3A16.94,16.94,0,0,1,120.88,236.07Z"/><path class="cls-27" d="M116,259.29s-5.05-1.18-4.91,1.38,3.77,2.58,3.77,2.58c0-.21.06-.42.1-.63-1.67,0-2.92-.64-3.13-1.53a1.45,1.45,0,0,1,.35-1.32c.3-.29.71-.31,1.51-.33a8.92,8.92,0,0,1,1.72.12Z"/><path class="cls-36" d="M151.49,251.2a12.63,12.63,0,0,1-8.13,2.46.87.87,0,1,0-.1,1.74,14.15,14.15,0,0,0,8-2L152,253Z"/><path class="cls-38" d="M933.74,432.59H202.12a22.74,22.74,0,0,1-15.53-6.13L11.64,263A22.75,22.75,0,0,1,42.7,229.75L211.1,387.08H933.74a22.76,22.76,0,0,1,0,45.51Z"/><path class="cls-38" d="M933.74,432.59H202.12a22.74,22.74,0,0,1-15.53-6.13L11.64,263A22.75,22.75,0,0,1,42.7,229.75L211.1,387.08H933.74a22.76,22.76,0,0,1,0,45.51Z"/><path class="cls-15" d="M933.74,432.59H202.12a22.74,22.74,0,0,1-15.53-6.13L11.64,263A22.75,22.75,0,0,1,42.7,229.75L211.1,387.08H933.74a22.76,22.76,0,0,1,0,45.51Z"/><path class="cls-39" d="M921.81,456.89H190.19a15.22,15.22,0,0,1-10.4-4.11L4.84,289.32A15.24,15.24,0,1,1,25.65,267L196.21,426.4h725.6a15.25,15.25,0,1,1,0,30.49Z"/><path class="cls-13" d="M842.51,549.44H190.19a8.84,8.84,0,0,1,0-17.67H842.51a8.84,8.84,0,1,1,0,17.67Z"/><path class="cls-33" d="M468.53,385.54l-15,.7c-27.8,1.24-61.68,2.47-100.26,3.27-16.09.33-30.49.55-43.44.61l-5.84,0c-76.08.11-99.75-5.28-121.7-20.51-29.55-20.5-44.06-50.57-51.47-71.35l4-3.28,15.65-12.84a216.91,216.91,0,0,0,43.74,4c17.35-.22,27.15-2.52,43.74,0a114.59,114.59,0,0,1,27.83,8l.21-.21a179.08,179.08,0,0,1,35.37-25.3c23.53-12.89,56.39-23.9,91.66-14.26a106.46,106.46,0,0,1,44.36,24.3,100.68,100.68,0,0,1,7.33,7.51C479.72,326,470,378.31,468.53,385.54Z"/><g class="cls-40"><path class="cls-41" d="M309.78,390.12l-5.84,0c-76.08.11-99.75-5.28-121.7-20.51-29.55-20.5-44.06-50.57-51.47-71.35a9.57,9.57,0,0,0,2-1.64c4.52-4.89,2.33-13,2-14.26,6.64,7.15,16.47,18,27.83,31.81,22.8,27.64,20.33,28.81,27.84,35.78,37.51,34.82,115.3,19.88,115.3,19.88h0Z"/></g><path class="cls-21" d="M453.48,386.24q-10.73.47-22.63.94c-22.91.9-49,1.74-77.63,2.33-18.54.39-34.86.61-49.28.63a283.73,283.73,0,0,1-5.08-36.29c-.66-8.29-1.09-17.58-1.09-27.73,0-31.54,2.07-48.6,3.22-55.67.12-.73.23-1.35.33-1.87l.05,0c4.22-2.31,8.74-4.56,13.51-6.64a130.92,130.92,0,0,1,43.65-11h.13c2.38-.15,4.79-.23,7.22-.21a103.56,103.56,0,0,1,27.1,3.65,109.07,109.07,0,0,1,16.79,6,107,107,0,0,1,13.67,7.48,102.55,102.55,0,0,1,13.9,10.78l3.58,19.66,5,34.8,3.76,26.34Z"/><g class="cls-42"><path class="cls-43" d="M423.44,267.84c-7.81,14.05-23,30.44-57.06,30.44-32,0-52.05-14.41-65-29.73,4.22-2.31,8.74-4.56,13.51-6.64a130.92,130.92,0,0,1,43.65-11h.13c2.39-.13,4.79-.21,7.22-.21a103.56,103.56,0,0,1,27.1,3.65,109.07,109.07,0,0,1,16.79,6A107,107,0,0,1,423.44,267.84Z"/></g><g class="cls-44"><path class="cls-35" d="M458.15,346.88l-8.5,12.54-18.8,27.76c-22.91.9-49,1.74-77.63,2.33-18.54.39-34.86.61-49.28.63q-1.47-7.14-2.64-14.74a306.29,306.29,0,0,1-3.53-49.28,184.62,184.62,0,0,0,39.76,7.95c22,1.9,48.81,3.71,67.6-11.93,16.16-13.45,18-33,23.86-31.81,6.05,1.18,2.66,21.65,16.9,42.75A70.21,70.21,0,0,0,458.15,346.88Z"/></g><g class="cls-45"><path class="cls-43" d="M409.77,260.36c-5.31,11.06-16.23,26-44.4,26-25.46,0-40.86-12.19-50.49-24.44,21.87-9.51,49.18-15.49,78.1-7.59A109.07,109.07,0,0,1,409.77,260.36Z"/></g><path class="cls-21" d="M810.7,365.88c18.15-4.87,29-12.88,35.79-19.88,5.85-6.07,10-12.81,11.93-11.93,2.37,1.08-.66,12.93-4,23.85,0,0-15.91,23.86-15.91,31.81s-7.95,8-31.81-8S810.7,365.88,810.7,365.88Z"/><path class="cls-46" d="M445.11,292.16c17-4.88,43.35-12.63,75.55-23,45-14.47,49.92-17.46,63.62-18.39,18.61-1.27,39.15,2.23,103.38,37.2,26.45,14.4,60.7,34.35,99.4,60.61L767,381.78l-162.8-67-151.1,37.62Z"/><path class="cls-17" d="M826.38,358.59l-9.65,12.93L803,390,604.16,346.22l-3.33.88h0c-6.23,1.67-14.65,4-24.47,7.06-48.66,15-64,25.28-91.9,31.81-15.28,3.57-37.95,6.84-67.37,3.75-1-4.86-1.94-10.33-2.71-16.35a223.26,223.26,0,0,1,10.88-102.71,126.57,126.57,0,0,1,37.68,22.74q2,1.75,3.84,3.53c14.67-1.41,33-3.44,53.91-6.39,55.55-7.82,60.61-12.4,83.5-11.93,27.89.58,44,7.35,103.38,31.81C732.63,320.76,773.44,337.44,826.38,358.59Z"/><path class="cls-21" d="M166.56,314.19c8.08-13.37,29.38-12.11,31.81-11.93,15.51,1.13,19,9.46,46,23.86,9.86,5.26,21.84,11.65,37.53,15.9,18,4.89,32.16,4.57,51.69,4a344.08,344.08,0,0,0,63.62-8v19.88a295.27,295.27,0,0,1-113.64,31.81,506.89,506.89,0,0,1-69.27-19.88C181.67,357.91,170.56,350,165.93,338,165,335.73,160.73,323.83,166.56,314.19Z"/><path class="cls-33" d="M158.61,318.16c-3.4,21.69,21.58,40.94,39.76,47.72,6.63,2.47,12.62,4.86,19.32,2.83,21.83-6.62,24.42-50.55,24.42-50.55-22.18-24.25-50.68-32.09-68.18-21.89C166.26,300.74,160,309.07,158.61,318.16Z"/><g class="cls-47"><path class="cls-46" d="M822,357.51l-13.76,18.43L609.44,332.2l-3.32.89h0c-6.23,1.67-14.64,4-24.47,7.06-48.66,15-64,25.28-91.89,31.81-15.29,3.57-38,6.84-67.38,3.75-1-4.86-1.94-10.34-2.71-16.35A223.63,223.63,0,0,1,426,271l-.77-.31a223.26,223.26,0,0,0-10.88,102.71c.77,6,1.71,11.49,2.71,16.35,29.42,3.09,52.09-.18,67.37-3.75,27.94-6.53,43.24-16.79,91.9-31.81,9.82-3,18.24-5.39,24.47-7.06h0l3.33-.88L803,390l13.76-18.44,9.65-12.93-4-1.6Z"/></g><path class="cls-21" d="M405.86,338a9.86,9.86,0,0,0,4-4c1.72-3.36,1.2-7.71,0-8.05-.87-.24-1.35,1.83-4,4-3.27,2.68-5.47,2-8.05,4-1.49,1.17-3.29,3.39-4,8h8Z"/><path class="cls-21" d="M385.75,346,413.9,330A67.3,67.3,0,0,1,430,330a70.08,70.08,0,0,1,16.08,4c5.49,2.06,8.09,2.83,8.05,4,0,1-1.77,1.64-2.3,1.84-3.94,1.52-7.41-.44-11.54-1.59-7.61-2.12-14.29-.61-14.32-.25s9.06.82,21.49,4.23c3.89,1.07,10.9,3,10.74,4.78-.08.86-1.88,1.35-2.79,1.59-5.31,1.4-9.29-.73-14.32-2-8.18-2.06-15.1-.83-15.12-.57s4.89.4,11.93,1.76c6.2,1.2,16.5,3.8,16.32,5.57-.11,1.08-4,1.51-4.77,1.6a19.75,19.75,0,0,1-8-.8A40.36,40.36,0,0,0,426.35,353c14.18,5.43,16.91,7.28,16.72,8s-3.1.62-6.37,0l-14.76-2.83s-16.08,8-32.17,0S385.75,346,385.75,346Z"/><g class="cls-34"><path class="cls-15" d="M178.44,294.13c16.15-.34,35.61,8.61,51.74,26.24,0,0-2.27,38.62-20.56,48.89a18.44,18.44,0,0,0,8.07-.55c21.83-6.62,24.42-50.55,24.42-50.55C221.74,295.9,196.05,287.47,178.44,294.13Z"/></g><path class="cls-37" d="M99,266.47s39.76,8,43.74,15.91,19.88-4,39.76,4,31.81-4,43.74,4,4,15.9,4,15.9-8-8-23.86-8c-9.82,0-13.57,1.52-19.69,1.74a50.27,50.27,0,0,1-16.1-1.74c-7.23-2-7.29-3.75-11.92-4-6.08-.3-7.59,2.71-15.91,4a40.8,40.8,0,0,1-11.93,0,45,45,0,0,1-19.88-7.95Z"/><path class="cls-21" d="M139.82,231.23l9.37,4.69a4.38,4.38,0,0,1,1.14,7l-3.65,3.65-7.41-14.81A.41.41,0,0,1,139.82,231.23Z"/><path class="cls-48" d="M944.79,397.69H213.17a22.76,22.76,0,0,1-15.54-6.13L22.68,228.09a23,23,0,0,1-2.87-3.25A22.76,22.76,0,0,0,11.64,263l175,163.46a22.74,22.74,0,0,0,15.53,6.13H933.74a22.76,22.76,0,0,0,18.41-36.13A22.73,22.73,0,0,1,944.79,397.69Z"/><path d="M134.93,233.23a3,3,0,1,1-3.29-2.61A3,3,0,0,1,134.93,233.23Z"/><g class="cls-49"><path class="cls-50" d="M707.54,310.43C648.12,286,632.05,279.2,604.16,278.62c-22.89-.47-27.95,4.11-83.5,11.93-20.91,2.95-39.24,5-53.91,6.39q-1.86-1.77-3.84-3.53a124.53,124.53,0,0,0-29.14-19.05l31,27.9a269.51,269.51,0,0,0,48.38-3.76c14.82-2.53,53.62-10.27,71.77-11.65,3.57-.27,7.32-.37,11.73-.28,27.89.58,44,7.36,103.38,31.81,25.09,10.33,65.89,27,118.84,48.16l-9.65,12.93-7.6,10.19,1.35.3,13.76-18.44,9.65-12.93C773.44,337.44,732.63,320.76,707.54,310.43Z"/></g><path class="cls-41" d="M269.94,310.21a223.36,223.36,0,0,1-17.75-20.95,115,115,0,0,1,13.55,4.83l.21-.21c0,.47,0,.94,0,1.42A33.86,33.86,0,0,0,269.94,310.21Z"/></g><g id="hand"><g id="apparatus"><path class="cls-21" d="M410.87,230.31c-1.46-.77-3.63-1.95-6.21-3.45-5.06-3-5.74-3.68-7.76-4.32-3.79-1.19-9.61-1.21-10.92,1.38-1.17,2.33,1.29,6.86,6.42,10.41Z"/><path class="cls-26" d="M381.76,252.52c-2,6.78-4,13-4,13s-32.54-3.6-26.82-16.73c.67-1.54,1.36-3,2-4.27,5.15-9.8,10.35-13.15,10.35-13.15s12.2-19.19,24-25.83,21.37-.54,22,4.76-22.79,20.34-23.79,27.59A123.85,123.85,0,0,1,381.76,252.52Z"/><path class="cls-51" d="M377.72,265.5s-32.54-3.6-26.82-16.73c.67-1.54,1.36-3,2-4.27,8,3.65,18.51,7.48,28.82,8C379.76,259.3,377.72,265.5,377.72,265.5Z"/><path class="cls-51" d="M385.43,237.87c1-7.25,24.37-22.3,23.79-27.59-.32-2.94-3.41-6.12-8.11-7.24a6.78,6.78,0,0,1,1.9,3.79c.58,5.29-22.79,20.34-23.78,27.59a128,128,0,0,1-3.67,14.65c-2,6.78-4.05,13-4.05,13s-10-1.11-17.93-4.33c7.33,5.92,24.14,7.78,24.14,7.78s2-6.2,4-13A123.85,123.85,0,0,0,385.43,237.87Z"/></g><path class="cls-21" d="M389.6,230.82C382.3,230,363,225,362,225.64l-.18.13a2.18,2.18,0,0,0-.68,1.42c-.16,1.7,14.75,7.28,25,9.84a3.86,3.86,0,0,1,.73.23c0,.15-23.44-7.39-25.21-3.69-.41.84.42,2,.69,2.42,1.26,1.81,3.55,1.91,8.62,2.76,1.84.31,3.67.72,5.52,1,2.59.45,6.36,1.12,11,2.08a48.79,48.79,0,0,1-10.34.34c-6.34-.47-11.07-2.08-11.9-.52-.43.79.39,2,.69,2.41,1.92,2.79,5.7,3.26,10.17,3.63,4.21.34,9.57.65,15.87.69a65.44,65.44,0,0,1-8.8,1.21c-6.42.43-10.22-.28-10.35.34s4.78,2.77,10.18,3.62a65.21,65.21,0,0,0,11.9.52h0l28.62-.34,14.84-6,.52-18-34.15-.7A34.52,34.52,0,0,1,389.6,230.82Z"/><path class="cls-16" d="M619.26,127.31c-9,1.64-13.52,10.2-19.88,19.88-9.39,14.28-24,32.91-46.93,52.54L420.37,222.88l13.22,29.72L555,247c13.08-.91,39.93-4.72,64.28-24.29,4.52-3.63,45.13-36.26,35.78-67.59C650.24,139,632.71,124.84,619.26,127.31Z"/><path class="cls-52" d="M552.45,208.13c23-19.64,37.54-38.27,46.93-52.55,6.36-9.68,10.92-18.24,19.88-19.88,13.45-2.47,31,11.73,35.78,27.83a32.92,32.92,0,0,1,1.14,5.51,34.31,34.31,0,0,0-1.14-13.9c-4.8-16.1-22.33-30.3-35.78-27.83-9,1.64-13.52,10.2-19.88,19.88-9.39,14.28-24,32.91-46.93,52.54L420.37,222.88l3.47,7.79Z"/></g></g></g></svg>