<svg xmlns="http://www.w3.org/2000/svg" viewBox="0 0 1053.37 918.92"><defs><style>.cls-1{opacity:0.17;}.cls-2{fill:#bddff4;}.cls-3{fill:#f2c9a5;}.cls-4{fill:#f7e8e1;}.cls-5{fill:#dd6648;}.cls-6{fill:#aa6e2d;}.cls-7{fill:#f8e4cb;}.cls-8{fill:#efd9bf;}.cls-9{opacity:0.54;}.cls-10{fill:#f9a779;}.cls-11{fill:#61aa9f;}.cls-12{fill:#69b2a5;}.cls-13{opacity:0.56;}.cls-14{fill:#579e92;}.cls-15{opacity:0.36;}.cls-16{fill:#fff;}.cls-17{fill:#adcfe8;}.cls-18{fill:#9ac0d8;}.cls-19{opacity:0.53;}.cls-20{fill:#dce8ef;}.cls-21{fill:#8bb5c9;}.cls-22{fill:#997444;}.cls-23{fill:#825f38;}.cls-24{fill:#72b4b2;}.cls-25{fill:#4fa09b;}.cls-26{opacity:0.47;}.cls-27{fill:#6fa9c6;}.cls-28{opacity:0.49;}.cls-29{fill:#80cfe8;}.cls-30{opacity:0.34;}.cls-31{fill:#dcf3f9;}.cls-32{opacity:0.63;}.cls-33{fill:#ffa591;}.cls-34{fill:#495db2;}.cls-35{opacity:0.13;}.cls-36{fill:#5f7ad3;}.cls-37{fill:#ff958d;}.cls-38{fill:#21212d;}.cls-39{fill:#ed886f;}.cls-40{fill:#353443;}.cls-41{fill:#ed8470;}.cls-42{opacity:0.15;}.cls-43{fill:#6a6a82;}.cls-44{fill:#3f569e;}.cls-45{opacity:0.58;}.cls-46{fill:#ed744a;}.cls-47{opacity:0.3;}</style></defs><g id="Layer_2" data-name="Layer 2"><g id="Layer_1-2" data-name="Layer 1"><g id="background_4" data-name="background 4"><g class="cls-1"><path class="cls-2" d="M967.12,772.91c44.87-51.3,50.18-115.19,51.53-134.53,2-28.15,2-99.25-42.94-157.44-66.35-85.83-186.06-84.17-183.19-117.36,2.24-26,66.33-24.88,77.28-60.11C883.18,260.42,808.55,191,741,154.63,591.25,74,398.32,113.75,268.69,186.11,206.22,221,53.71,302.88,22.53,466.63c-18.78,98.62,15.38,179,28.62,209C137,870.22,352.75,910.89,366,913.17c52.48,9,97.56,5.38,128.8,2.86,76.34-6.14,104.65-22.46,214.69-54.38C890.78,809.06,924.93,821.16,967.12,772.91Z"/></g><rect class="cls-3" x="219.95" y="194.7" width="271.93" height="74.42"/><rect class="cls-3" x="219.95" y="283.44" width="271.93" height="74.42"/><rect class="cls-3" x="219.95" y="372.17" width="271.93" height="74.42"/><rect class="cls-4" x="304.39" y="226.19" width="103.05" height="14.31"/><path class="cls-5" d="M340,169H259.73V71.56H340Zm-74.42-5.84h68.58V77.4H265.57Z"/><path class="cls-5" d="M431.59,97.44H351.33V0h80.26ZM357.17,91.6h68.58V5.84H357.17Z"/><path class="cls-5" d="M454.49,169H351.33V108.77H454.49Zm-97.32-5.84h91.48V114.61H357.17Z"/><path class="cls-4" d="M1053.37,655.06c0,34.52-29.24,66.73-79.82,94-49.68,26.77-119.95,48.75-203.33,63.42-72.83,12.82-155.67,20.07-243.53,20.07-87.61,0-170.22-7.2-242.9-19.95-84.23-14.78-155.12-37-205-64.09S0,689.35,0,655.06c0-51.31,64.63-97.54,168-129.94,60.56-19,134.42-33.23,216.35-41q7.95-.75,16-1.41,29.88-2.49,61-3.79,32.1-1.35,65.32-1.36,13,0,25.82.21,34.35.57,67.46,2.57,13.06.78,25.89,1.79,15.69,1.21,31,2.76t30.29,3.37c55.16,6.78,106,16.57,150.8,28.8,19.7,5.38,38.22,11.22,55.42,17.48C1000.27,566.22,1053.37,608.55,1053.37,655.06Z"/><path class="cls-6" d="M561.21,404.09l-19.08,68.84c-.66,2.38-2,3-3,1.4a10.18,10.18,0,0,1-.81-6.09L550,390.14c1.2-8,4.84-12.17,8.13-9.26s5,11.8,3.8,19.83A29.47,29.47,0,0,1,561.21,404.09Z"/><path class="cls-6" d="M811.32,390.14,823,468.24c.41,2.7-.17,5.68-1.27,6.67-.94.83-2-.05-2.5-2L800.1,404.09c-2-7.08-1.2-16.7,1.7-21.48s6.85-2.93,8.81,4.15A31.54,31.54,0,0,1,811.32,390.14Z"/><rect class="cls-7" x="531.52" y="349.91" width="294.21" height="56.18" rx="19.75"/><rect class="cls-7" x="540.24" y="103.1" width="277.67" height="218.35" rx="51.92"/><path class="cls-8" d="M543.18,286.25l270.32,4.06c3.54.06,6.82,4.37,8.63,11.39l3.41,13.16c4,15.53-.85,35.22-8.7,35.22H540.48c-7,0-11.87-15.88-9.55-31l2.63-17.23C535,292.44,538.86,286.18,543.18,286.25Z"/><circle class="cls-8" cx="619.29" cy="167.98" r="13.66"/><g class="cls-9"><path class="cls-8" d="M581.55,147.49C571.31,150.91,599.38,168,619.48,168,619.48,168,591.79,144.08,581.55,147.49Z"/></g><g class="cls-9"><path class="cls-8" d="M593.76,196.08c.9,10.76,24.11-12.49,28.86-32C622.62,164.05,592.86,185.32,593.76,196.08Z"/></g><g class="cls-9"><path class="cls-8" d="M645.51,195.21c10.75,1-8.1-25.91-26.51-34C619,161.23,634.76,194.23,645.51,195.21Z"/></g><g class="cls-9"><path class="cls-8" d="M643.18,138.25c-1.32-10.72-23.6,13.42-27.58,33.13C615.6,171.38,644.5,149,643.18,138.25Z"/></g><circle class="cls-8" cx="741.24" cy="167.98" r="13.66"/><g class="cls-9"><path class="cls-8" d="M703.5,147.49C693.26,150.91,721.33,168,741.43,168,741.43,168,713.74,144.08,703.5,147.49Z"/></g><g class="cls-9"><path class="cls-8" d="M715.71,196.08c.9,10.76,24.11-12.49,28.86-32C744.57,164.05,714.81,185.32,715.71,196.08Z"/></g><g class="cls-9"><path class="cls-8" d="M767.46,195.21c10.75,1-8.1-25.91-26.52-34C740.94,161.23,756.71,194.23,767.46,195.21Z"/></g><g class="cls-9"><path class="cls-8" d="M765.13,138.25c-1.32-10.72-23.6,13.42-27.58,33.13C737.55,171.38,766.45,149,765.13,138.25Z"/></g><circle class="cls-8" cx="614.55" cy="253.32" r="13.66"/><g class="cls-9"><path class="cls-8" d="M576.81,232.84c-10.24,3.41,17.83,20.48,37.93,20.48C614.74,253.32,587.05,229.43,576.81,232.84Z"/></g><g class="cls-9"><path class="cls-8" d="M589,281.42c.9,10.76,24.11-12.49,28.86-32C617.88,249.4,588.12,270.67,589,281.42Z"/></g><g class="cls-9"><path class="cls-8" d="M640.77,280.56c10.75,1-8.1-25.92-26.52-34C614.25,246.57,630,279.57,640.77,280.56Z"/></g><g class="cls-9"><path class="cls-8" d="M638.44,223.59c-1.32-10.71-23.6,13.42-27.58,33.13C610.86,256.72,639.76,234.3,638.44,223.59Z"/></g><circle class="cls-8" cx="740.86" cy="254.84" r="13.66"/><g class="cls-9"><path class="cls-8" d="M703.12,234.36c-10.24,3.41,17.83,20.48,37.93,20.48C741.05,254.84,713.36,230.94,703.12,234.36Z"/></g><g class="cls-9"><path class="cls-8" d="M715.33,282.94c.9,10.76,24.11-12.49,28.86-32C744.19,250.92,714.43,272.18,715.33,282.94Z"/></g><g class="cls-9"><path class="cls-8" d="M767.08,282.08c10.75,1-8.1-25.92-26.52-34C740.56,248.09,756.33,281.09,767.08,282.08Z"/></g><g class="cls-9"><path class="cls-8" d="M764.75,225.11c-1.32-10.72-23.6,13.42-27.58,33.13C737.17,258.24,766.07,235.82,764.75,225.11Z"/></g><path class="cls-10" d="M299.56,767.69c0,16.4-5.75,31.76-15.77,44.89-84.23-14.78-155.12-37-205-64.09,11.16-39.14,55.74-68.4,109-68.4C249.54,680.09,299.56,719.31,299.56,767.69Z"/><path class="cls-11" d="M411.92,485.3c0,102-82.69,184.69-184.69,184.69A184.58,184.58,0,0,1,42.54,485.3c0-.46,0-.92,0-1.38,0-.29,0-.57,0-.86,0-.45,0-.89,0-1.34l0-1.44q0-1.65.12-3.3c0-.4,0-.79.05-1.18s0-.78.07-1.18l.09-1.57.09-1.31.12-1.46c.13-1.68.29-3.36.47-5l.12-1.09.09-.78c0-.3.07-.6.11-.9q.11-.93.24-1.86c0-.26.07-.52.1-.78l.18-1.25,0-.14s0-.08,0-.13c.07-.51.15-1,.23-1.52,0-.23.07-.47.11-.7.06-.41.13-.81.2-1.21l.15-.92.24-1.36c0-.3.11-.61.16-.91.1-.52.19-1,.3-1.56s.21-1.12.33-1.68l.15-.75c.12-.56.23-1.11.36-1.67s.23-1.09.35-1.63c.07-.26.13-.53.19-.8.14-.61.28-1.22.43-1.83s.25-1,.38-1.53c0-.17.08-.34.13-.52.14-.56.29-1.13.44-1.69l0-.12.45-1.69.51-1.81c.07-.26.15-.52.22-.77s.23-.77.34-1.15l.3-1c.12-.37.23-.74.35-1.11s.2-.66.31-1,.25-.77.37-1.16l.26-.77c.19-.6.39-1.19.59-1.79l.47-1.35c0-.13.09-.26.13-.38.2-.57.4-1.12.61-1.68a.88.88,0,0,1,0-.15c.23-.63.46-1.25.7-1.88l.6-1.59c.31-.8.63-1.59,1-2.39.23-.58.47-1.16.71-1.74l0-.05.71-1.68.18-.42.6-1.39.3-.66c.21-.48.42-1,.64-1.43.28-.62.56-1.23.85-1.83s.56-1.21.85-1.81l1-2c.33-.67.66-1.33,1-2a.59.59,0,0,0,0-.08l.92-1.75.26-.51.84-1.56a2,2,0,0,1,.11-.2c.26-.48.52-1,.79-1.44.17-.29.33-.59.5-.89s.32-.58.49-.87l.55-.95.86-1.48.05-.08q.48-.82,1-1.65c.07-.12.14-.24.22-.36.18-.31.37-.61.56-.91l.69-1.12c.36-.57.72-1.14,1.09-1.71.67-1.05,1.35-2.09,2-3.13l.73-1.08.75-1.09.5-.72.67-.95.71-1,.47-.66.6-.82.81-1.09c.16-.22.33-.44.49-.67s.53-.69.8-1l.94-1.23c.33-.43.66-.85,1-1.27q1.92-2.44,3.92-4.81c.83-1,1.66-1.93,2.5-2.89l.14-.15c.33-.38.67-.76,1-1.13.13-.16.27-.31.4-.46l1-1.06.45-.49,1-1.05.42-.45,1.16-1.21.1-.1c.39-.41.78-.81,1.18-1.21.15-.16.3-.32.46-.47L97,354.3l1.44-1.41c1.44-1.41,2.92-2.79,4.41-4.15.5-.45,1-.91,1.5-1.35l1.39-1.23.16-.14c.4-.35.81-.71,1.23-1.06l.45-.38c.35-.31.71-.61,1.07-.91l.52-.43.93-.77c.36-.3.71-.59,1.07-.87l.5-.41.73-.58c.4-.32.8-.64,1.21-.95l1.31-1c.41-.31.82-.63,1.24-.93.23-.18.46-.36.7-.53q2.86-2.15,5.82-4.17l1-.72.78-.51c.28-.2.56-.39.85-.57l1.41-.93.11-.07,1.41-.9c.17-.12.35-.23.53-.34l1.3-.81.46-.29,1.19-.72c.77-.47,1.55-.93,2.33-1.38,1-.62,2.1-1.22,3.16-1.81s2.37-1.31,3.58-1.95l1.13-.59.57-.3.41-.21.51-.27,1.43-.72.83-.4.83-.41,1.42-.69.28-.13,1.67-.78.11-.05c.59-.27,1.19-.55,1.79-.81l0,0,1.73-.77.59-.25,1.4-.6,1.89-.78,1.54-.62,2.58-1,1.62-.61,1.93-.7h0l1.94-.68,1.65-.56.59-.19c.55-.18,1.11-.37,1.67-.54l1.27-.41.25-.07.82-.26,1.89-.56,1.72-.49,2-.56c1.43-.38,2.86-.75,4.3-1.1l1.76-.42,2-.46h.07l2-.43.15,0c1.26-.26,2.51-.51,3.77-.74l.4-.08,1.91-.34,1.5-.26.69-.11,1.59-.25.59-.09,1.88-.27,1.64-.22.75-.1,1.82-.22.25,0c.62-.08,1.24-.14,1.87-.21l1.94-.19.37,0,1.61-.14.55-.05c1.27-.1,2.54-.19,3.82-.26l.39,0,1.86-.09h.2l1.45-.06h.13l1,0h.08l1.55,0H223l1.84,0h2.39c6.37,0,12.66.33,18.87.95A184.8,184.8,0,0,1,407,442.83,185.64,185.64,0,0,1,411.92,485.3Z"/><path class="cls-12" d="M261.67,494.69a369.1,369.1,0,0,1-34.31,73.16c-22.55,36.75-50,66-78.24,84.85A184.7,184.7,0,0,1,42.54,485.3c0-.46,0-.92,0-1.38,0-.29,0-.57,0-.86,0-.45,0-.89,0-1.34l0-1.44q0-1.65.12-3.3c0-.4,0-.79.05-1.18s0-.78.07-1.18l.09-1.57.09-1.31.12-1.46c.13-1.68.29-3.36.47-5l.12-1.09.09-.78c0-.3.07-.6.11-.9.08-.62.15-1.24.24-1.86,0-.26.07-.52.1-.78l.18-1.25,0-.14s0-.08,0-.13c.07-.51.15-1,.23-1.52,0-.23.07-.47.11-.7.06-.41.13-.81.2-1.21l.15-.92.24-1.36c0-.3.11-.61.16-.91.1-.52.19-1,.3-1.56s.21-1.12.33-1.68l.15-.75c.12-.56.23-1.11.36-1.67s.23-1.09.35-1.63c.07-.26.13-.53.19-.8.14-.61.28-1.22.43-1.83s.25-1,.38-1.53c0-.17.08-.34.13-.52.14-.56.29-1.13.44-1.69l0-.12.45-1.69.51-1.81c.07-.26.15-.52.22-.77s.23-.77.34-1.15l.3-1c.12-.37.23-.74.35-1.11s.2-.66.31-1,.25-.77.37-1.16l.26-.77c.19-.6.39-1.19.59-1.79l.47-1.35c0-.13.09-.26.13-.38.2-.57.4-1.12.61-1.68a.88.88,0,0,1,0-.15c.23-.63.46-1.25.7-1.88l.6-1.59c.31-.8.63-1.59,1-2.39.23-.58.47-1.16.71-1.74l0-.05.71-1.68.18-.42.6-1.39.3-.66c.21-.48.42-1,.64-1.43.28-.62.56-1.23.85-1.83s.56-1.21.85-1.81l1-2c.33-.67.66-1.33,1-2a.59.59,0,0,0,0-.08l.92-1.75.26-.51.84-1.56a2,2,0,0,1,.11-.2c.26-.48.52-1,.79-1.44.17-.29.33-.59.5-.89s.32-.58.49-.87l.55-.95.86-1.48.05-.08q.48-.82,1-1.65c.07-.12.14-.24.22-.36.18-.31.37-.61.56-.91l.69-1.12c.36-.57.72-1.14,1.09-1.71.67-1.05,1.35-2.09,2-3.13l.73-1.08.75-1.09.5-.72.67-.95.71-1,.47-.66.6-.82.81-1.09c.16-.22.33-.44.49-.67s.53-.69.8-1l.94-1.23c.33-.43.66-.85,1-1.27q1.92-2.44,3.92-4.81c.82-1,1.66-1.93,2.5-2.89l.14-.15c.33-.38.67-.76,1-1.13.13-.16.27-.31.4-.46l1-1.06.45-.49,1-1.05.42-.45,1.16-1.21.1-.1c.39-.41.78-.81,1.18-1.21.15-.16.3-.32.46-.47L97,354.3l1.44-1.41c1.44-1.41,2.92-2.79,4.41-4.15.5-.45,1-.91,1.5-1.35l1.39-1.23.16-.14c.4-.35.81-.71,1.23-1.06l.45-.38c.35-.31.71-.61,1.07-.91l.52-.43.93-.77c.36-.3.71-.59,1.07-.87l.5-.41.73-.58c.4-.32.8-.64,1.21-.95l1.31-1c.41-.31.82-.63,1.24-.93.23-.18.46-.36.7-.53q2.86-2.15,5.82-4.17l1-.72.78-.51c.28-.2.56-.39.85-.57l1.41-.93.11-.07,1.41-.9c.17-.12.35-.23.53-.34l1.3-.81.46-.29,1.19-.72c.77-.47,1.55-.93,2.33-1.38,1-.62,2.1-1.22,3.16-1.81s2.37-1.31,3.58-1.95l1.13-.59q.28-.17.57-.3l.41-.21.51-.27,1.43-.72.83-.4.83-.41,1.42-.69.28-.13,1.67-.78.11-.05c.59-.27,1.19-.55,1.79-.81l0,0,1.73-.77.59-.25,1.4-.6,1.89-.78,1.54-.62,2.58-1,1.62-.61,1.93-.7h0l1.94-.68,1.65-.56.59-.19c.55-.18,1.11-.37,1.67-.54l1.27-.41.25-.07.82-.26,1.89-.56,1.72-.49,2-.56c1.43-.38,2.86-.75,4.3-1.1l1.76-.42,2-.46h.07l2-.43.15,0c1.26-.26,2.51-.51,3.77-.74l.4-.08,1.91-.34,1.5-.26.69-.11,1.59-.25.59-.09,1.88-.27,1.64-.22.75-.1,1.82-.22.25,0c.62-.08,1.24-.14,1.87-.21l1.94-.19.37,0,1.61-.14.55-.05c1.27-.1,2.54-.19,3.82-.26l.39,0,1.86-.09h.2l1.45-.06h.13l1,0h.08l1.55,0H223l1.84,0h2.39c6.37,0,12.66.33,18.87.95,4.67,12.06,9.44,25.91,13.61,41C272.18,387.62,279.2,443.54,261.67,494.69Z"/><g class="cls-13"><path class="cls-14" d="M411.92,485.3c0,102-82.69,184.69-184.69,184.69A184.83,184.83,0,0,1,44.48,458.45C106,550.26,212,588.52,296.1,557.3,369.8,529.92,400.54,458.83,407,442.83A185.09,185.09,0,0,1,411.92,485.3Z"/></g><g class="cls-15"><path class="cls-16" d="M130.19,357c-15.72,11-20.63,26.91-21.91,31.3-3.43,11.73-6.28,35.23,6.26,43.82a19.93,19.93,0,0,0,12.52,3.13c12.05-1.28,17.09-14,37.57-50.08,14.57-25.68,18.21-30.18,15.65-34.43C174.84,341.66,148,344.53,130.19,357Z"/></g><g class="cls-13"><path class="cls-14" d="M45.42,444.66s17.18,57.12,148.85,50,154.57-59.5,154.57-59.5Z"/></g><path class="cls-10" d="M858,517.09c-18.14,29.15-56.31,49.24-100.47,49.24-60.23,0-109.34-37.38-111.63-84.17q15.69,1.21,31,2.76t30.29,3.37C762.32,495.07,813.18,504.86,858,517.09Z"/><path class="cls-10" d="M973.55,749c-49.68,26.77-119.95,48.75-203.33,63.42a69.67,69.67,0,0,1-1.68-15.19c0-48.38,50-87.6,111.73-87.6C919.24,709.67,953.56,725.32,973.55,749Z"/><path class="cls-17" d="M1002.54,409.93l-1.62,12.12q-.93,6.88-1.85,13.78A56,56,0,0,1,995.33,450c-4.79,11.49-13.06,18.86-22.26,18.86H903.24c-12.62,0-23.5-13.88-26-33.2-1.13-8.64-2.26-17.26-3.38-25.91a66.22,66.22,0,0,1-.51-10.84c.41-10.66,3.46-20.4,8.2-27.49a33.15,33.15,0,0,1,2.69-3.51c4.35-5,9.73-7.95,15.65-7.95h76.67c7.07,0,13.36,4.24,18,11.06,5,7.24,8.17,17.38,8.51,28.45A64.22,64.22,0,0,1,1002.54,409.93Z"/><path class="cls-18" d="M1003.08,399.44a58.76,58.76,0,0,0-4-20q-1.24,9.29-2.48,18.56c-2.58,19.24-13.43,33-26,33H900.75c-12.63,0-23.51-13.88-26-33.2L874,392a63.4,63.4,0,0,0-.65,6.84,65.3,65.3,0,0,0,.51,10.85q1.68,12.94,3.38,25.9c2.52,19.32,13.4,33.2,26,33.2h69.83c12.57,0,23.42-13.77,26-33l3.48-25.9A65.47,65.47,0,0,0,1003.08,399.44Z"/><g class="cls-19"><path class="cls-20" d="M1000.92,422.05q-.93,6.88-1.85,13.78A56,56,0,0,1,995.33,450l-1.17.21c-31,5.06-57-32.53-61.64-49.31-3.67-13.42.67-33.46,2.55-40.94.47-1.87.78-2.95.78-2.95.28,1,.55,2,.82,2.95,6.29,22.9,9.33,31.34,32.6,49.12C982.39,419.07,993.49,421.72,1000.92,422.05Z"/></g><g class="cls-13"><path class="cls-21" d="M957.9,468.75l-54.66.08c-12.62,0-23.5-13.88-26-33.2-1.13-8.64-2.26-17.26-3.38-25.91a66.22,66.22,0,0,1-.51-10.84c.41-10.66,3.46-20.4,8.2-27.49a33.15,33.15,0,0,1,2.69-3.51c.07,8.05,1.13,39.7,21.89,67.42C926,461.84,950.94,467.46,957.9,468.75Z"/></g><path class="cls-22" d="M994.57,371c-1.54,4.26-5.68,8.3-6.67,9.26-11.25,10.93-22.62,6.33-49.44,5.79-31.23-.62-44.88,5-53.36-7.15a23.68,23.68,0,0,1-3.58-7.5c4.72-7.05,11.14-11.46,18.33-11.46h76.68C983.6,359.93,989.89,364.17,994.57,371Z"/><path class="cls-23" d="M976.78,370.72c-1.09,3-4,5.92-4.76,6.6-8,7.8-16.12,4.52-35.25,4.13-22.27-.44-32,3.58-38-5.09a17.23,17.23,0,0,1-2.55-5.35c3.37-5,7.94-8.17,13.07-8.17h54.68C969,362.84,973.45,365.86,976.78,370.72Z"/><path class="cls-24" d="M889.78,131.21c2,10,4.71,20.44,7.59,32.31,2.18,9,4.45,18.77,6.59,29.78q1.24,6.39,2.41,13.36c1.18,7.09,2.15,14.35,3,21.64.75,6.78,1.35,13.59,1.82,20.31.93,13.2,1.39,26.07,1.56,37.74.44,29.63-.94,51.52-.94,51.52,7.18,14.05,19.67,19.76,29.85,14.57,10.67-5.43,14.15-20.43,14.57-22.35,0,0-.63-19.21-3.19-46.5-1.4-14.88-3.37-32.15-6.12-50-.26-1.68-.52-3.37-.8-5.07-2.6-16.14-5.85-32.64-9.9-48.18-1.46-5.6-3-11.08-4.7-16.37a193.13,193.13,0,0,0-13-32.12c-2.9-5.45-5.38-10.56-7.5-15.35-22.22-50.31-4.56-65.92-4.56-65.92s-10.65-12.86-18,29.08C885,98.63,886.38,114.26,889.78,131.21Z"/><path class="cls-25" d="M889.78,131.21c2,10,4.71,20.44,7.59,32.31a36.13,36.13,0,0,1,12.06-2.35,62.64,62.64,0,0,1,22,2.77,193.13,193.13,0,0,0-13-32.12c-2.9-5.45-5.38-10.56-7.5-15.35C902.62,124.54,895.63,129.22,889.78,131.21Z"/><path class="cls-25" d="M911.14,248.61c.93,13.2,1.39,26.07,1.56,37.74,4.82-4,12.6-6.48,25-5.33A98.64,98.64,0,0,1,953,283.59c-1.4-14.88-3.37-32.15-6.12-50C931.61,244.42,920,248.8,911.14,248.61Z"/><g class="cls-26"><path class="cls-16" d="M904,193.3q1.24,6.39,2.41,13.36c1.18,7.09,2.15,14.35,3,21.64,4.8-2.27,11.45-3.44,20.67-2.59a98.82,98.82,0,0,1,16.08,2.78c-2.6-16.14-5.85-32.64-9.9-48.18C922.66,189.46,912.11,193.31,904,193.3Z"/></g><path class="cls-25" d="M896.93,118.64c3.33,21.51,8.47,34.34,15,55.14,4.84,15.46,12.58,40.16,17.3,66.61,6.58,36.83,6.66,73.35,6.2,93.34l6.83-1.2c-1.33-28-4.45-66.79-12-106.92-5.62-30-9-48.26-17.23-71.16-3.17-8.83-6.64-17.23-10.36-31.08a279.16,279.16,0,0,1-8.42-48.12A239.34,239.34,0,0,0,896.93,118.64Z"/><path class="cls-24" d="M881.87,162.86c3.46,8.68,6.73,18.14,10.55,28.76,2.89,8,6.1,16.74,10,26.26,1.49,3.69,3.07,7.5,4.77,11.44,2.59,6,5.37,12,8.26,17.93,2.69,5.51,5.48,10.94,8.29,16.23,5.53,10.41,11.18,20.26,16.43,29,13.34,22.31,24.15,37.72,24.15,37.72,2.41,14.93-2,27-10.09,29.47-8.48,2.62-17.31-6.36-18.43-7.52,0,0-8.45-14.68-19.53-36.57-6-11.93-12.85-26-19.5-41-.62-1.42-1.25-2.84-1.87-4.27-5.94-13.63-11.68-27.93-16.53-42-1.75-5.07-3.38-10.12-4.87-15.1a235.16,235.16,0,0,1-7.41-32c-.87-5.85-1.82-11.2-2.83-16.09-10.57-51.28-27.66-51.86-27.66-51.86s.09-16.21,23.46,10.38C869.6,135.68,876,148.14,881.87,162.86Z"/><path class="cls-25" d="M881.87,162.86c3.46,8.68,6.73,18.14,10.55,28.76a25.66,25.66,0,0,0-7.85,5.79,58.79,58.79,0,0,0-11.12,15.82,235.16,235.16,0,0,1-7.41-32c-.87-5.85-1.82-11.2-2.83-16.09C871.59,165.92,877.67,165,881.87,162.86Z"/><path class="cls-25" d="M923.69,263.48c5.53,10.41,11.18,20.26,16.43,29-4.52.07-10,3.05-16.5,11.66a96.43,96.43,0,0,0-7.4,11.44c-6-11.93-12.85-26-19.5-41C910.28,273.15,918.84,269.13,923.69,263.48Z"/><g class="cls-26"><path class="cls-16" d="M902.37,217.88c1.49,3.69,3.07,7.5,4.77,11.44,2.59,6,5.37,12,8.26,17.93-3.73,1.3-8,4.59-12.8,11a95.92,95.92,0,0,0-7.75,12.11c-5.94-13.63-11.68-27.93-16.53-42C890.11,226.7,897.79,223,902.37,217.88Z"/></g><path class="cls-25" d="M872.08,158c8,18.07,11,30.82,16.87,50.36,4.37,14.51,11.34,37.71,20.82,60.33,13.19,31.48,29.89,58.69,39.31,73.26l-4.39,3.38a823.08,823.08,0,0,1-42.3-87c-10.62-25.84-17.06-41.52-22.95-63.67-2.27-8.54-4.17-17-8.43-29.58a299.2,299.2,0,0,0-17.33-41A236.75,236.75,0,0,1,872.08,158Z"/><path class="cls-24" d="M985.07,169.6c-2.06,9.43-4.8,19.27-7.72,30.45-2.21,8.45-4.53,17.68-6.73,28.07q-1.29,6-2.5,12.61c-1.23,6.7-2.27,13.56-3.14,20.45-.82,6.42-1.49,12.86-2,19.23-1.09,12.5-1.72,24.7-2.07,35.77-.87,28.11.1,48.92.1,48.92-7.05,13.13-19,18.2-28.62,13-10.06-5.46-13.14-19.79-13.51-21.63,0,0,.9-18.21,3.75-44,1.56-14.07,3.7-30.41,6.59-47.3.27-1.59.55-3.19.84-4.79,2.72-15.25,6.07-30.81,10.16-45.44,1.48-5.28,3.05-10.43,4.73-15.41a179.89,179.89,0,0,1,12.88-30.11c2.83-5.09,5.27-9.87,7.36-14.36,21.92-47.1,5.36-62.43,5.36-62.43s10.33-11.89,16.69,28.12C990.08,138.82,988.56,153.61,985.07,169.6Z"/><path class="cls-25" d="M985.07,169.6c-2.06,9.43-4.8,19.27-7.72,30.45a34.64,34.64,0,0,0-11.44-2.58,59.55,59.55,0,0,0-21,2,179.89,179.89,0,0,1,12.88-30.11c2.83-5.09,5.27-9.87,7.36-14.36C973,162.9,979.53,167.54,985.07,169.6Z"/><path class="cls-25" d="M962.94,280.41c-1.09,12.5-1.72,24.7-2.07,35.77-4.53-3.89-11.88-6.51-23.72-5.77a94.3,94.3,0,0,0-14.56,2c1.56-14.07,3.7-30.41,6.59-47.3C943.53,275.85,954.56,280.34,962.94,280.41Z"/><g class="cls-26"><path class="cls-16" d="M970.62,228.12q-1.29,6-2.5,12.61c-1.23,6.7-2.27,13.56-3.14,20.45-4.53-2.29-10.84-3.59-19.62-3A92.62,92.62,0,0,0,930,260.32c2.72-15.25,6.07-30.81,10.16-45.44C952.89,223.94,962.87,227.89,970.62,228.12Z"/></g><path class="cls-25" d="M978.45,157.46c-3.49,20.33-8.58,32.36-15.1,51.91-4.84,14.53-12.58,37.75-17.49,62.73-6.82,34.75-7.46,69.41-7.33,88.39l-6.48-1.33c1.7-26.57,5.26-63.26,13-101.12,5.8-28.35,9.33-45.55,17.49-67.05,3.14-8.29,6.57-16.16,10.33-29.2a261.37,261.37,0,0,0,8.74-45.42A225,225,0,0,1,978.45,157.46Z"/><path class="cls-24" d="M1031.58,258.77c-4.15,4.5-9.14,8.82-14.6,13.85-4.13,3.81-8.53,8-13,13-1.75,1.94-3.5,4-5.27,6.2a112.87,112.87,0,0,0-7.52,10.64c-2.18,3.45-4.19,7-6.06,10.6A204.8,204.8,0,0,0,975.77,334a236.76,236.76,0,0,0-9.5,30.43c-10.45,3.55-24.81-1.13-34.52-10.65-10.17-10-10.8-20.89-10.86-22.27a265.56,265.56,0,0,1,29.49-49.94c.62-.81,1.24-1.62,1.88-2.43a153.81,153.81,0,0,1,20.28-21.57,103.5,103.5,0,0,1,8.3-6.47,74.13,74.13,0,0,1,20.3-10.28,103.59,103.59,0,0,0,11.05-4.09c33.74-14.92,18.24-35.26,18.24-35.26s13.88-.63,13.13,28.37C1043.23,242.93,1038.62,251.12,1031.58,258.77Z"/><path class="cls-25" d="M1031.58,258.77c-4.15,4.5-9.14,8.82-14.6,13.85a93,93,0,0,0-12.27-9.07,148.5,148.5,0,0,0-23.87-12.5,74.13,74.13,0,0,1,20.3-10.28,103.59,103.59,0,0,0,11.05-4.09C1019.36,246.68,1025.8,253.87,1031.58,258.77Z"/><path class="cls-25" d="M985.1,313.09A204.8,204.8,0,0,0,975.77,334c-4.3-5.38-12-11.81-25.38-19.1-6.06-3.31-11.61-6-16.65-8.27a246.19,246.19,0,0,1,16.64-25.06C964.31,297.57,975.75,307.57,985.1,313.09Z"/><g class="cls-26"><path class="cls-16" d="M1004,285.65c-1.75,1.94-3.5,4-5.27,6.2a112.87,112.87,0,0,0-7.52,10.64c-4.61-4.38-11.41-9.32-21.33-14.72-6.43-3.51-12.28-6.36-17.57-8.68a153.81,153.81,0,0,1,20.28-21.57C985,271.47,995.33,280.44,1004,285.65Z"/></g><path class="cls-25" d="M1026.58,246.9c-7.9,10.34-15.95,14.48-27.07,22.36-8.27,5.85-21.48,15.2-31.86,27.5-14.45,17.12-22,38.22-25.54,50.09l-7-5.07c7.12-15.38,18.3-35.83,34.4-54.27,12.06-13.8,19.37-22.17,32.71-30.19,5.14-3.09,10.52-5.73,17.28-11.37a80.92,80.92,0,0,0,18.69-22.48A71,71,0,0,1,1026.58,246.9Z"/><path class="cls-24" d="M854.81,243.21c3.44,5.51,7.73,11,12.38,17.41,3.51,4.82,7.24,10.1,10.95,16.19,1.44,2.36,2.87,4.84,4.3,7.46a133,133,0,0,1,5.88,12.41c1.64,3.95,3.12,8,4.45,12A228.08,228.08,0,0,1,899,331.57a254.89,254.89,0,0,1,5,32.35c9.76,6.21,24.51,5.36,35.39-1.45,11.38-7.13,13.54-17.67,13.79-19a303.33,303.33,0,0,0-21.9-56.71c-.49-1-1-1.91-1.5-2.87a182.4,182.4,0,0,0-16.86-26.46c-2.3-3-4.71-5.83-7.23-8.52a87.38,87.38,0,0,0-18.48-15.39A118.85,118.85,0,0,1,877,226.6C846,203.15,864,187.23,864,187.23s-13.54-4.24-16.89,24.42C845.62,224.63,849,233.87,854.81,243.21Z"/><path class="cls-25" d="M854.81,243.21c3.44,5.51,7.73,11,12.38,17.41a78.94,78.94,0,0,1,13.33-5.7,132.19,132.19,0,0,1,25.18-6,87.38,87.38,0,0,0-18.48-15.39A118.85,118.85,0,0,1,877,226.6C868.51,234.55,861.18,239.91,854.81,243.21Z"/><path class="cls-25" d="M892.77,308.66A228.08,228.08,0,0,1,899,331.57c5-4.16,13.45-8.46,27.61-12.12,6.41-1.66,12.24-2.89,17.51-3.77a286,286,0,0,0-12.81-28.94C915.36,298.86,902.72,305.68,892.77,308.66Z"/><g class="cls-26"><path class="cls-16" d="M878.14,276.81c1.44,2.36,2.87,4.84,4.3,7.46a133,133,0,0,1,5.88,12.41c5.14-3.1,12.51-6.17,23-8.88,6.8-1.76,12.94-3,18.46-3.93a182.4,182.4,0,0,0-16.86-26.46C898.78,267.85,887.33,274,878.14,276.81Z"/></g><path class="cls-25" d="M861.4,232.88c6.29,12.2,13.6,18.37,23.41,29,7.29,7.91,18.93,20.53,27.38,35.31,11.77,20.57,16.17,43.25,18,55.83l7.57-3.15c-4.81-17-12.91-39.94-26.11-62.24-9.88-16.7-15.87-26.82-27.84-38.17-4.61-4.38-9.52-8.37-15.35-15.67a95.42,95.42,0,0,1-15.17-26.94A80,80,0,0,0,861.4,232.88Z"/><path class="cls-2" d="M434.31,782.23v68.95c0,1.93-3.89,3.61-9.71,4.53a66.2,66.2,0,0,1-10.16.73c-11,0-19.86-2.35-19.86-5.26V782.23q.39-2.91.87-5.85c.06-.42.13-.84.2-1.26a310.22,310.22,0,0,1,11.78-47.82h12.86A250.94,250.94,0,0,1,433.21,775c.08.47.16.93.23,1.4C433.76,778.35,434.05,780.29,434.31,782.23Z"/><path class="cls-27" d="M434.31,782.23V809.9a54.94,54.94,0,0,1-39.59.38q-.08-14-.14-28,.39-2.91.87-5.85c.06-.42.13-.84.2-1.26a216.76,216.76,0,0,0,37.56-.14c.08.47.16.93.23,1.4C433.76,778.35,434.05,780.29,434.31,782.23Z"/><g class="cls-28"><path class="cls-29" d="M426.28,848.78c-11,0-19.87-2.35-19.87-5.26h0V774.57q.4-2.91.87-5.85c.07-.42.13-.84.2-1.26a307.3,307.3,0,0,1,9.35-40.16h-9.4a310.22,310.22,0,0,0-11.78,47.82c-.07.42-.14.84-.2,1.26q-.48,2.94-.87,5.85v68.94h0c0,2.91,8.89,5.26,19.86,5.26s19.87-2.35,19.87-5.26h0v-2.85A69,69,0,0,1,426.28,848.78Z"/></g><g class="cls-30"><path class="cls-31" d="M434.31,782.23v68.95c0,1.93-3.89,3.61-9.71,4.53.49-8.93.94-19,1.1-28.53.13-7.92-.19-14-.59-25.08-.26-7.17-.65-18-1.17-25.72a312,312,0,0,0-7.47-49.08h3.82A250.94,250.94,0,0,1,433.21,775c.08.47.16.93.23,1.4C433.76,778.35,434.05,780.29,434.31,782.23Z"/></g><rect class="cls-27" x="405.68" y="721.45" width="17.09" height="10.52"/><g class="cls-32"><circle class="cls-16" cx="413.92" cy="765.93" r="5.19"/></g><g class="cls-32"><path class="cls-16" d="M409.37,755.24a3.8,3.8,0,1,1,0-5.37A3.8,3.8,0,0,1,409.37,755.24Z"/></g><g class="cls-32"><path class="cls-16" d="M422.62,750.18a3.8,3.8,0,1,1,0-5.38A3.8,3.8,0,0,1,422.62,750.18Z"/></g><g class="cls-32"><circle class="cls-16" cx="415.12" cy="765.53" r="2.4"/></g><g class="cls-32"><path class="cls-16" d="M407.22,754.54a2.65,2.65,0,1,1,2.65-2.65A2.65,2.65,0,0,1,407.22,754.54Z"/></g><g class="cls-32"><path class="cls-16" d="M419.26,749.86a2.35,2.35,0,1,1,2.34-2.34A2.35,2.35,0,0,1,419.26,749.86Z"/></g></g><g id="women_5" data-name="women 5"><path class="cls-33" d="M768.72,562.63a29.71,29.71,0,0,1,11.84,10c6.08,9.17,6.64,22.73,1.82,31-9.6,16.41-41.41,12.67-63.75,10.92A192.65,192.65,0,0,1,644,592.69l-69.22-52.83L579.28,518l10-2.73L684,544.42C692.85,545.24,744.28,550.23,768.72,562.63Z"/><path class="cls-33" d="M594.65,516,569,493q-17.57-8.5-20-5.38c-.87,1.14-.22,3.46,2,7l8.93,5,3.3,7.08L538,502c-14.58-4.19-19-3.55-19.93-1.81-.65,1.21.25,3.26,1.26,4.45,2.13,2.51,5.86,2.48,7.94,2.56a46.9,46.9,0,0,1,17.17,4.26c-6.69-.94-12.6-1.61-17.52-2.09-12.59-1.25-16.17-1-16.77.51s2.05,3.86,2.17,3.95c2.65,2.25,5.43,1.56,10.16,1.93,0,0,1.23.1,17,4.63h0c-3.61-.11-8.19-.33-13.47-.8-9.75-.87-16-2.06-16.84,0-.29.69.19,1.48.63,2.22,2.1,3.51,6.64,4.39,8.57,4.79,5.46,1.12,12.13,2.85,20.59,5.26a46.33,46.33,0,0,1-9.17,1.12c-6.23.12-10.58-1.09-11.76.92a3,3,0,0,0,0,2.47c1.41,3.25,8.15,2.35,13.66,3.29,10.87,1.85,21.66,3.16,21.66,3.16l50.18,4.6Z"/><path class="cls-34" d="M797.54,596.35a41,41,0,0,1-12.72,15.72c-30.77,23-88.27.47-92.27-1.14q1.73-15.75,3-32.41,1.54-20.84,2.11-40.67a250.23,250.23,0,0,1,41.12,5.2c25.88,5.45,45.92,9.68,55.64,23C796.57,569,803.27,579.38,797.54,596.35Z"/><g class="cls-35"><path class="cls-36" d="M738.12,554.62c25.88,5.45,45.92,9.68,55.64,23A28.34,28.34,0,0,1,799,591.2c2.95-13.92-2.62-22.47-4.57-25.14-9.72-13.33-29.76-17.56-55.64-23a250.23,250.23,0,0,0-41.12-5.2c-.11,3.83-.26,7.69-.42,11.58A248.57,248.57,0,0,1,738.12,554.62Z"/><path class="cls-36" d="M694.89,590.09q.89-12.06,1.45-23.78-.37,6.06-.82,12.21-1.23,16.65-3,32.41l.54.21Q694.1,600.81,694.89,590.09Z"/></g><path class="cls-37" d="M122.07,343s-28.52,16.22-36.43,5.62-9.09-32.57-2.16-40.29,4.77-48,4.77-48c2.21-4.93,5.67-11.51,8.79-11.09,4.29.59,4.44,13.84,8.9,28.91a109.15,109.15,0,0,0,18.22,35.35Q123.11,328.28,122.07,343Z"/><path class="cls-38" d="M117,352.13l249,34.35Q401.8,503.84,437.58,621.2l80.14-74.42C512.43,522,504.26,487.35,492,446.59c-19.74-65.43-30-98.53-51.52-117.35-20.71-18.16-44.93-23.6-131.67-25.77-48.83-1.22-113-1.29-188.92,2.87Q118.41,329.23,117,352.13Z"/><path class="cls-33" d="M845,586.71l-11.16.38-3.24.11-5.13.18-5,.17c-2.81-.69-5.63-1.4-8.48-2.16-13-3.44-25.46-7.3-37.21-11.44a144.48,144.48,0,0,0,28.86,59L846,626l-.33-13.2-.09-4-.05-1.72-.09-3.82Z"/><path class="cls-39" d="M835.46,589l-5.27-1.06-5.13-1c0,.16,0,.32,0,.48a24.71,24.71,0,0,0,.57,5.78c1.95,9.32,8.84,17.09,11.79,20.16,1,0,2,0,3,0,1.84.06,3.69.17,5.56.34l1,.09.28,0c-.11-.2-.23-.41-.33-.62-.22-.39-.43-.79-.64-1.19q-2.09-4-4-8Q838.6,596.59,835.46,589Z"/><path class="cls-33" d="M892.64,568.48c-11.1-3.19-19-5.46-29-4.83-3.34.21-27.79,1.77-33.33,16-2.52,6.49.24,12.65,4.5,23.5C839.46,615,845,629,857.6,636.79c17.77,10.94,49.75,9.74,62.31-11.18,9.61-16,5.17-39.13-6.88-49.09C909,573.17,903.52,571.6,892.64,568.48Z"/><path class="cls-40" d="M969.48,740c-12.4-1-17.45-19.13-28.63-17.18-9.59,1.68-8.51,15.49-22.9,25.76-9.88,7.06-27.1,12.47-37.21,5.73-10.31-6.88-5.86-21.48-20-31.49-4.75-3.35-5.29-1.74-11.24-5.59l-.21-.13c-3.09-2-15.38-10.31-20-25.77-2.93-9.71-1.47-17.72,0-25.76.19-1,.4-2.09.63-3.1a81.09,81.09,0,0,1,10.32-25.1l-3.8-4.56a14.21,14.21,0,0,1-3.42-8.73c0-.39-.11-6.28,3.76-9.42,4.21-3.4,12-2.67,17.87,3,3.43,8.73,16,9.86,20.51,6.06a3.59,3.59,0,0,0,1.35-2.08c.65-3.28-4.48-6.48-4.77-6.65-.11-2,0-4.69,1.68-5.79,3.37-2.24,9,4.88,16.65,4.56,6.62-.28,11.37-6,13.47-8.48,10.67-12.77,3.89-26.89,9.91-30.05,5-2.62,14.62,10.58,26.78,25,2.51,3,5.12,6,7.83,9a163.59,163.59,0,0,0,33.19,28.35c16.25,10.48,26.78,13.64,31.23,28C1022.24,697.26,989.69,741.64,969.48,740Z"/><path class="cls-33" d="M892.53,570.43a33.14,33.14,0,0,1-7.45-5.91c-4.09-4.34-5-7.67-8.12-7.75-2.21-.06-4.24,1.55-6,3s-4,3.14-4,4.89c0,2.32,4,4.26,9.89,4.79Z"/><path class="cls-40" d="M887.94,591.46a12.45,12.45,0,0,0,5.11-2.56,16.84,16.84,0,0,0,3.6-4,16.22,16.22,0,0,0,2.19-4.91,12.27,12.27,0,0,0,.21-5.68,3.86,3.86,0,0,0-3-.49c-2,.64-1.6,3.34-4,8.14-1,2.07-1.43,2.18-2.4,4.34A23.39,23.39,0,0,0,887.94,591.46Z"/><path class="cls-37" d="M75.17,451.1s-25.45,20.5-34.93,11.34-14.13-30.58-8.54-39.27-3-48-3-48c1.39-5.2,3.74-12.22,6.88-12.3,4.31-.11,6.57,12.89,13.36,27a108.62,108.62,0,0,0,23.55,31.86Q73.85,436.43,75.17,451.1Z"/><path class="cls-41" d="M864.75,614.16s4.47,5.65,1.17,7-5.48-3.23-5.48-3.23l.74-.49c.94,2.11,2.53,3.29,3.77,3a2,2,0,0,0,1.46-1.21c.18-.56,0-1.08-.48-2.1a12.81,12.81,0,0,0-1.17-2.09C864.76,614.76,864.75,614.46,864.75,614.16Z"/><path class="cls-39" d="M854,564.73a17.59,17.59,0,0,0,1.71,11.68,1.21,1.21,0,1,1-2.12,1.15,19.55,19.55,0,0,1-2.26-11.2c0-.42.08-.81.13-1.19Z"/><path d="M886.1,575.5a3.71,3.71,0,1,0,0,5.25A3.71,3.71,0,0,0,886.1,575.5Z"/><path class="cls-40" d="M74.2,462c47.28,2.77,85.14,7,111.48,10.4,25.5,3.31,49.52,7.1,83,5.72a355.11,355.11,0,0,0,57.91-7.19c13.44,44.85,26.45,83,37.71,113.11,13.72,36.7,21.93,54.64,40.62,65.49,21,12.2,44.47,9.13,58,6L492,584a745.55,745.55,0,0,0-52.22-125c-20.67-39.1-31.37-58.9-49.32-71.44-35.14-24.54-72.94-15.18-162.46-3-37.56,5.12-94.26,12.11-165.36,17.86Q68.41,432.19,74.2,462Z"/><g class="cls-42"><path class="cls-43" d="M439.74,459c-20.67-39.1-31.37-58.9-49.32-71.44-35.14-24.54-72.94-15.18-162.46-3-37.56,5.12-94.26,12.11-165.36,17.86q1.44,7.36,2.87,14.72c57.77-5.19,104.36-11,136.73-15.41,89.52-12.2,127.32-21.57,162.46,3,17.95,12.53,28.65,32.34,49.32,71.44a745.55,745.55,0,0,1,52.22,125l-23.16,57A104.68,104.68,0,0,0,463,655.44L492,584A745.55,745.55,0,0,0,439.74,459Z"/></g><path class="cls-34" d="M818.28,632.65a81.1,81.1,0,0,1-20,31.49c-10.54,10.12-25.55,18.65-52.62,22.78-17,2.6-25,.6-96.67-8.47-59.68-7.55-92.23-7.52-111.19-5.72l-2.22.2c-19.71,1.65-34.34-1.5-55-5.93l-40.07-8.59c4.11-8.34,10.32-21.58,16.71-38.39,8.75-23,12.62-39.29,16.75-50.34,15.71-42,18-48.63,25.75-57.25A77.83,77.83,0,0,1,516,498.68a94.6,94.6,0,0,1,35.06-13.12c23.34-3.89,48.14.26,67,12.56,0,0,18.48,12,37.11,38.25,2.29,3.24,4.6,6.7,6.87,10.38,7.1,11.51,11.52,20.7,12.47,22.59a2.65,2.65,0,0,0,.19.34l.92-.83a79.55,79.55,0,0,1,10.06-7.7,77.16,77.16,0,0,1,19.91-8.65c5.55-1.38,15.49-2.57,48.56,10.13,9.27,3.56,21.48,8.64,35.5,15.64q5.18,11.18,11.18,22.9C806.59,612.34,812.44,622.83,818.28,632.65Z"/><path class="cls-44" d="M691.74,613.41c.37.94.59,1.43.59,1.43S691.94,614.84,691.74,613.41Z"/><path class="cls-44" d="M677.27,606.89v-20a112.28,112.28,0,0,0-1.65-18,79.55,79.55,0,0,1,10.06-7.7C688.78,578.74,677.27,606.89,677.27,606.89Z"/><g class="cls-45"><path class="cls-38" d="M932.27,645.51c-20,14.31-14.32,42.93-45.8,34.34s-22.9-17.17-42.94-17.17c-5.14,0-9.72,0-13.68-.24a81.09,81.09,0,0,1,10.32-25.1l-3.8-4.56a14.21,14.21,0,0,1-3.42-8.73c0-.39-.11-6.28,3.76-9.42,4.21-3.4,12-2.67,17.87,3,3.43,8.73,16,9.86,20.51,6.06a3.59,3.59,0,0,0,1.35-2.08c.65-3.28-4.48-6.48-4.77-6.65-.11-2,0-4.69,1.68-5.79,3.37-2.24,9,4.88,16.65,4.56,6.62-.28,11.37-6,13.47-8.48,10.67-12.77,3.89-26.89,9.91-30.05,5-2.62,14.62,10.58,26.78,25C943,616.23,943.93,637.17,932.27,645.51Z"/></g><path class="cls-46" d="M852.27,608.85a6.8,6.8,0,1,0,6,7.52A6.81,6.81,0,0,0,852.27,608.85Z"/><g class="cls-45"><path class="cls-38" d="M969.48,740c-12.4-1-17.45-19.13-28.63-17.18-9.59,1.68-8.51,15.49-22.9,25.76-9.88,7.06-27.1,12.47-37.21,5.73-10.31-6.88-5.86-21.48-20-31.49-4.75-3.35-5.29-1.74-11.24-5.59,9.29-6.92,17.81-9.83,45.58-5.86,22.75,3.25,33.5-.88,39.08-6.62,3.72-3.83,1.85-7.88,6.72-13.42,4.31-4.89,7.83-4.91,14.32-8.58,1.27-.72,16-11.13,22.33-25,2.18-4.74,3.43-10.43,3.43-18a9.42,9.42,0,0,1,.25-2.28c16.25,10.48,26.78,13.64,31.23,28C1022.24,697.26,989.69,741.64,969.48,740Z"/></g><path class="cls-44" d="M755.31,681.31l-9.69,5.61c-25-3-57.91-6.25-96.67-8.47-44.61-2.55-79.39-3.51-79.39-3.51-40.83-1.13-64.41-.72-98.36-8.2-13.1-2.88-23.71-6-30.76-8.33,4.11-8.34,10.32-21.58,16.71-38.39,8.75-23,12.62-39.29,16.75-50.34,15.71-42,18-48.63,25.75-57.25A77.83,77.83,0,0,1,516,498.68c-7,49.64-7.42,160.05,130.51,151.15,70.43-4.55,118.18.22,121.7,13.49C769.05,666.41,767.74,671.81,755.31,681.31Z"/><path class="cls-33" d="M778.2,667c-4,5-58.74,70.83-123.08,60.11-17.76-3-31.84-11-37.21-14.31-36.22-22.29-48.64-59.88-54.39-77.29a176,176,0,0,1-8.58-45.79l31.48,11.45,61.14,69.47,1.84,2.09c2.58-1.37,5.18-2.73,7.77-4.09l46.61-24.54c3.1-3.34,13.44-13.6,28.63-14.31C751.71,628.89,771.07,643.79,778.2,667Z"/><path class="cls-33" d="M586.46,597.79q5.56-16.34,11.15-32.66.95-19.5-2.86-20.47-2.1-.54-5.63,4.54L588,559.37l-5.22,5.81-5.58-25c-1.85-15.06-4.17-18.88-6.13-19.05-1.37-.12-2.9,1.51-3.6,2.9-1.48,3,0,6.36.75,8.31a47.08,47.08,0,0,1,2.8,17.46c-1.76-6.52-3.45-12.22-4.93-16.93-3.79-12.07-5.38-15.29-7-15.23s-2.75,3.39-2.79,3.54c-1,3.32.69,5.6,2.2,10.11,0,0,.39,1.16,2.39,17.42h0c-1.32-3.38-2.9-7.67-4.54-12.72-3-9.31-4.38-15.53-6.55-15.51-.76,0-1.3.75-1.81,1.45-2.4,3.3-1.44,7.83-1.05,9.76,1.11,5.47,2.12,12.28,3.23,21a46.21,46.21,0,0,1-4.63-8c-2.55-5.69-3.13-10.16-5.45-10.46a3,3,0,0,0-2.27,1c-2.44,2.56,1,8.41,2.32,13.85,2.55,10.73,5.57,21.18,5.57,21.18l15.41,48Z"/><path class="cls-34" d="M801.1,649.83a62.7,62.7,0,0,1-4,24.33c-16.26,42.34-74.87,49.64-79,50.09Q712.76,706,706.64,687q-7.67-23.71-15.74-45.8a206,206,0,0,1,37.21-17.18c24.36-8.42,43.23-14.93,57.25-5.72C788.5,620.4,798.66,628,801.1,649.83Z"/><g class="cls-35"><path class="cls-36" d="M732.57,637.1c24.36-8.42,43.22-14.93,57.24-5.72,1.93,1.26,6.48,4.61,10.28,12-3.5-16.91-11.92-23.2-14.73-25-14-9.21-32.89-2.7-57.25,5.72a206,206,0,0,0-37.21,17.18c1.55,4.26,3.1,8.58,4.63,12.93A206.59,206.59,0,0,1,732.57,637.1Z"/><path class="cls-36" d="M711.1,700.08q-4.44-13.73-9-26.9,2.31,6.87,4.57,13.86,6.15,19,11.45,37.21l.56-.07Q715,712.29,711.1,700.08Z"/></g><g class="cls-47"><path class="cls-36" d="M655.17,536.37c-14.09,4.78-30.09,5.6-45.85-1-25.71-10.83-45-31.25-58.24-49.77,23.34-3.89,48.14.26,67,12.56C618.06,498.12,636.54,510.11,655.17,536.37Z"/></g><path class="cls-39" d="M646.53,689.9l.55-1.1A2.55,2.55,0,0,1,646.53,689.9Z"/><path class="cls-39" d="M657.17,668.64,647.08,688.8c.92-3,.82-10.86.48-18.16l1.84,2.09C652,671.36,654.58,670,657.17,668.64Z"/></g></g></g></svg>