<svg xmlns="http://www.w3.org/2000/svg" viewBox="0 0 1047.72 1047.72"><defs><style>.cls-1{fill:#fff;stroke:#ed2024;stroke-width:8px;}.cls-2{fill:#43717f;}.cls-3{fill:#f7a42f;}.cls-4{fill:#d31a36;}.cls-5{fill:#d21733;}.cls-6{fill:#c8383f;}.cls-7{fill:#ab2537;}.cls-8{fill:#6b2842;}.cls-9{fill:#67243f;}.cls-10{fill:#672740;}.cls-11{fill:#632540;}.cls-12{fill:#62283d;}.cls-13{fill:#6a2641;}.cls-14{fill:#4c263d;}.cls-15{fill:#54a6b8;}.cls-16{fill:#4e9fb6;}.cls-17{fill:#4a9ab2;}.cls-18{fill:#3d89a6;}.cls-19{fill:#4b9db3;}.cls-20{fill:#377f9f;}.cls-21{fill:#408da9;}.cls-22{fill:#4696af;}.cls-23{fill:#3984a2;}.cls-24{fill:#317797;}.cls-25{fill:#51a1b6;}.cls-26{fill:#4391ac;}.cls-27{fill:#4996ae;}.cls-28{fill:#2e7393;}.cls-29{fill:#3c7189;}.cls-30{fill:#478da5;}.cls-31{fill:#2c6d8b;}.cls-32{fill:#43839b;}.cls-33{fill:#3f7992;}.cls-34{fill:#2d677f;}.cls-35{fill:#486570;}.cls-36{fill:#4d7a8c;}.cls-37{fill:#376b8b;}.cls-38{fill:#426573;}.cls-39{fill:#477386;}.cls-40{fill:#406c7c;}.cls-41{fill:#547e8d;}.cls-42{fill:#d91a36;}.cls-43{fill:#d91839;}.cls-44{fill:#5a3140;}.cls-45{fill:#ad213b;}.cls-46{fill:#a9263b;}.cls-47{fill:#4f6f7d;}.cls-48{fill:#5b6e74;}.cls-49{fill:#447a91;}.cls-50{fill:#3b697e;}.cls-51{fill:#fda524;}.cls-52{fill:#feac25;}.cls-53{fill:#fda025;}.cls-54{fill:#fb9823;}.cls-55{fill:#fdb32c;}.cls-56{fill:#fc9c25;}.cls-57{fill:#e8ba72;}.cls-58{fill:#df1f33;}.cls-59{fill:#d71d33;}.cls-60{fill:#dd2535;}.cls-61{fill:#d82632;}.cls-62{fill:#dc3130;}.cls-63{fill:#dd412a;}.cls-64{fill:#d92236;}.cls-65{fill:#b62137;}.cls-66{fill:#fcb547;}.cls-67{fill:#faab41;}.cls-68{fill:#fcc764;}.cls-69{fill:#fdc358;}.cls-70{fill:#fdbd51;}.cls-71{fill:#feba3b;}.cls-72{fill:#fdb733;}.cls-73{fill:#f2bb47;}.cls-74{fill:#dbbc84;}.cls-75{fill:#56a8bc;}.cls-76{fill:#52a4ba;}.cls-77{fill:#427289;}.cls-78{fill:#da2236;}.cls-79{fill:#da1c36;}.cls-80{fill:#cb1636;}.cls-81{fill:#ca2b3c;}.cls-82{fill:#bf1f41;}.cls-83{fill:#9f1126;}.cls-84{fill:#b02131;}.cls-85{fill:#b1214b;}.cls-86{fill:#aa2c58;}.cls-87{fill:#9a294e;}.cls-88{fill:#74575c;}.cls-89{fill:#7f2740;}.cls-90{fill:#e43431;}.cls-91{fill:#e12c32;}.cls-92{fill:#e63d31;}.cls-93{fill:#e9462d;}.cls-94{fill:#dd2034;}.cls-95{fill:#e94430;}.cls-96{fill:#ea4a2f;}.cls-97{fill:#e12e33;}.cls-98{fill:#ec522e;}.cls-99{fill:#e43830;}.cls-100{fill:#e02831;}.cls-101{fill:#ed4f32;}.cls-102{fill:#d94a39;}.cls-103{fill:#e66544;}.cls-104{fill:#b72b33;}.cls-105{fill:#dc2735;}.cls-106{fill:#e63930;}.cls-107{fill:#702641;}.cls-108{fill:#cf193a;}.cls-109{fill:#c53331;}.cls-110{fill:#b2371c;}.cls-111{fill:#347c9b;}.cls-112{fill:#e02434;}.cls-113{fill:#f3a435;}.cls-114{fill:#feb128;}.cls-115{fill:#faaf31;}.cls-116{fill:#feb530;}.cls-117{fill:#f58430;}.cls-118{fill:#f47f30;}.cls-119{fill:#f26a2d;}.cls-120{fill:#f9a03a;}.cls-121{fill:#f79a38;}.cls-122{fill:#f89535;}.cls-123{fill:#f1652c;}.cls-124{fill:#f78d33;}.cls-125{fill:#e67f41;}.cls-126{fill:#e12732;}.cls-127{fill:#a73030;}.cls-128{fill:#fbb737;}.cls-129{fill:#fbb044;}.cls-130{fill:#f8ba54;}.cls-131{fill:#faa73e;}.cls-132{fill:#fdbe43;}.cls-133{fill:#fdc556;}.cls-134{fill:#fed37c;}.cls-135{fill:#fdd381;}.cls-136{fill:#f9a03f;}.cls-137{fill:#f59c3e;}.cls-138{fill:#f7ae4b;}.cls-139{fill:#eb4d2a;}.cls-140{fill:#e53f2e;}.cls-141{fill:#bc2833;}.cls-142{fill:#ef5f2d;}.cls-143{fill:#ee572e;}.cls-144{fill:#e32e2f;}.cls-145{fill:#f38030;}.cls-146{fill:#f1762f;}.cls-147{fill:#f06d2e;}.cls-148{fill:#f58c34;}.cls-149{fill:#f58932;}.cls-150{fill:#f3772f;}.cls-151{fill:#f47b2e;}.cls-152{fill:#f2702e;}.cls-153{fill:#f2642c;}.cls-154{fill:#f69538;}.cls-155{fill:#f69035;}.cls-156{fill:#e9542e;}.cls-157{fill:#d3572d;}.cls-158{fill:#f25f2c;}.cls-159{fill:#f9a53f;}.cls-160{fill:#f69636;}.cls-161{fill:#f48f34;}.cls-162{fill:#faac40;}.cls-163{fill:#f38832;}.cls-164{fill:#fdb540;}.cls-165{fill:#fcb948;}.cls-166{fill:#fdc24c;}.cls-167{fill:#f6c977;}.cls-168{fill:#fed785;}.cls-169{fill:#fedd94;}.cls-170{fill:#fed071;}.cls-171{fill:#fdc85b;}.cls-172{fill:#fed489;}.cls-173{fill:#f5983e;}.cls-174{fill:#df914f;}.cls-175{fill:#ee913e;}.cls-176{fill:#d9ac78;}.cls-177{fill:#e9c7a1;}.cls-178{fill:#faa945;}.cls-179{fill:#f89b3c;}.cls-180{fill:#faa53f;}.cls-181{fill:#f8a443;}.cls-182{fill:#f69138;}.cls-183{fill:#f6963a;}.cls-184{fill:#fddb98;}.cls-185{fill:#fbb244;}.cls-186{fill:#fdc255;}.cls-187{fill:#fdebbc;}.cls-188{fill:#f3b16f;}.cls-189{fill:#fee4a9;}.cls-190{fill:#faecc9;}.cls-191{fill:#fde8b4;}.cls-192{fill:#ec983b;}.cls-193{fill:#eea85e;}.cls-194{fill:#f8a054;}.cls-195{fill:#ef662d;}.cls-196{fill:#fee6ad;}.cls-197{fill:#f27330;}.cls-198{fill:#f2592a;}.cls-199{fill:#f79d39;}.cls-200{fill:#fdbd4e;}.cls-201{fill:#fed98f;}.cls-202{fill:#feda8b;}.cls-203{fill:#fedf9c;}.cls-204{fill:#fde2a1;}.cls-205{fill:#fedfa1;}.cls-206{fill:#fee3a7;}</style></defs><g id="Layer_2" data-name="Layer 2"><g id="Layer_1-2" data-name="Layer 1"><circle class="cls-1" cx="523.86" cy="523.86" r="519.86"/><path class="cls-2" d="M313.84,452c-2.08,5.64-.61,11.58-1.43,17.33-5.22-3-1.7-7.8-2.39-11.74.17-1.39-.73-2.77-.08-4.17-1.33-3.27.06-6.19,1.18-9.14,1.63-.87,2.08.43,2.69,1.45l.47-.09Z"/><path class="cls-3" d="M648,898.65,644.58,900c-2.13,1.81-5,2.51-6.84,4.75A131.37,131.37,0,0,1,605,921.15a3.27,3.27,0,0,1-3.11-2c-.27-2.38,1.53-3.48,3-4.66,11.05-8.75,22.12-17.46,31.18-28.41,1.43-1.74,3.06-3.83,5.95-3.21,1.61,2.84-.5,4.55-2.08,6.26-4.16,4.5-7.69,9.54-11.82,14.34A99.26,99.26,0,0,0,648,892.31a215.77,215.77,0,0,0,66.71-74.95c3.27-6.05,4.83-12.67,8.14-18.6,4.39-11,7.88-22.24,9.46-34,2.67-11.54,2.78-23.26,2.61-35-.1-6.31.09-12.62-1.51-18.78-1.19-2.83-1.18-5.83-1.22-8.82-.46-2.12-1.88-3.9-2.23-6.07-5-19.44-11.48-38.29-22.9-55.07-4.32-9.83-11.06-18-17.65-26.34-2-2.52-4.71-4.59-4.66-8.25a2,2,0,0,1,2.06-1.68c3,1.14,4.92,3.58,6.79,6,11.7,15,22.19,30.73,30.24,48,11,28.11,18.6,56.81,16.28,87.41a180.12,180.12,0,0,1-18.24,67.22c-10.71,23.07-25.93,42.92-43.71,60.94-6.8,3.63-10.82,10.58-17.36,14.52C657.07,892.82,651.66,894.6,648,898.65Z"/><path class="cls-4" d="M370.38,512c-8.45-27.94-7.47-55.88.05-83.8a20.09,20.09,0,0,1,1.67-3.47,1.13,1.13,0,0,1,1.48-.1c3.71,1.65,3.39,5.35,4.33,8.43.89,5.33,1.38,10.71,1.87,16.07.36,3.93.35,7.91,2.32,11.45,2.95,5.28-.22,11.42,2.69,17,.93,1.79.73,2.48,3,2.89,1.84.33,2.21,3,2.75,4.91.66,5.26.27,10.54.33,15.8-.22,3-.57,5.95-.8,8.93-.52,1.62-.82,3.94-2.75,3.93-2.41,0-2.34-2.65-2.92-4.39s-.39-3.43-1.28-5.75c-1.23,5.21-3.31,8.76-9.2,6.62C372.91,510.14,371.67,511.7,370.38,512Z"/><path class="cls-5" d="M370.38,512c.27-2.92,3.09-4.19,4.6-3.28,6.38,3.82,4.64-2.39,6.08-4.55.7-1-1-3.57,1.75-3.27a3.14,3.14,0,0,1,2.78,3.81,8.68,8.68,0,0,0,.69,5.67c.38.83-.66,2.51,1,2.39.64,0,1.18-1.6,1.76-2.47,2.12,6.59,5.11,13.14,3.22,20.25-.93,3.5,2.54,5.05,2.61,7.73.12,4.45,2.44,8.44,2.36,12.89,0,1.3,0,3.58.88,3.63,6.91.41,4.83,7.14,7.5,10.06,7.12,7.79,11.21,18,20,24.36,3.8,1.65,5.76,4.83,7.08,8.54.48,1,1.05,1.86,1.6,2.78,1.12,1.88,4.08,3.94,1.65,6-2.23,1.86-4-1.3-5.88-2.52a22,22,0,0,1-3.33-3c-4.31-4.25-8.13-9-13.29-12.37a134.26,134.26,0,0,1-23.12-30.15c-.57-2.68-1.64-5-4.1-6.54a91,91,0,0,1-12.79-27.67Q371.9,518.11,370.38,512Z"/><path class="cls-6" d="M386.64,386.91c3.66-3.66,4.09-9.64,8.94-12.44,2.25,4.36-1.64,7.12-2.75,10.6-3.06,4.1-5.08,8.79-7.38,13.31a28.75,28.75,0,0,0-1.92,4.83,12.45,12.45,0,0,1-.68,1.65c-2.41,3.41-2.27,8.25-6.06,10.9-1.2.16-1.61-.6-1.85-1.57C377.72,404.62,382.68,396,386.64,386.91Z"/><path class="cls-7" d="M374.94,414.19l1,1.27c1.63,3.82.07,6.7-2.71,9.24H372.1C371.51,420.79,373.83,417.65,374.94,414.19Z"/><path class="cls-8" d="M582.1,234.83c-11.85,12.82-40.86,12.33-52.2-.88-1.24-1.28-.26-4.1-3-4.34a4.86,4.86,0,0,1-.74-1.66c-.73-9.31-.85-18.46,1.86-27.66,1.89-6.41-1.46-12.91-2.12-19.41-.22-2.18-2.07-3.24-4-4-2.23-.89-4.58-1.53-6.73-2.59s-6.49.41-6-3.32c.43-3.11,4.31-3,7.16-3.11a10.79,10.79,0,0,1,3.71.38c.81.32,1,1.19,1.63,1.73.3.27,1,.54,1.06.41.48-.9-.76-.4-.86-.93-2.29-3-5.47-1.1-8.22-1.56-7.65,1.12-15.32.54-23,.41a7.88,7.88,0,0,1-6.81-3.34c-1.52-4.74,1.44-7.27,5.12-8.34,5.43-1.59,11.05-2.33,16.78-.66,8.58,2.49,17.2,4.8,25.93,6.79,8.1,1.84,15.28,7,17.48,15.9,2.38,9.59,8.13,15.54,17,19.26,4.64,1.93,9.15,2.82,14,1.86a40.85,40.85,0,0,1,13.05-.49c7.6,3.77,9.5,7.6,6.83,13.78l-.34-.18.31.23c-4.78,1.15-8.44,3.7-10.39,8.36-4,3.15-4.47,8.25-7,12.22Z"/><path class="cls-9" d="M461.7,157.26c-5.52-10.22-3.14-19.53,3.34-28.32,1.4-1.9,3-3.65,4.51-5.47,14.61-11.92,31.56-15.38,49.91-13.78l9.21,2.81c.43,2.11-1,1.93-2.29,1.9,3,.16,6.07.25,9.09.65l3.81,2.49c1.34,1.81,3.47,2.6,5.29,3.59,9,4.9,9.63,12.81,8.31,21.57-1.43,1.3-3.45,1.11-4-.27-1.39-3.67-4.56-6.36-5.51-10.11-1.4-5.55-7.31-9.31-11.56-5.8-7.89,6.52-17.44,4.9-26.12,7.26-12.24,3.33-24.78,5.81-34.53,15-1.18,1.1-2.49,1.49-1.77,3.48,1.37,3.78.95,6-4,4.48C464.35,156.35,463.1,157.84,461.7,157.26Z"/><path class="cls-10" d="M600.15,213.06c1.31-5.55-1.68-9.14-5.63-12.3-5-2.17-6.9-7.2-9.8-11.18-1.61-2.22-2.2-5.12-4.76-6.84-3.14-2.1-.12-4.64.15-7.42-3.75,2.5-7.59,5.05-11,1.58-2.31-2.36-2-6,.42-8.94,1.83-1.54,3.77-1.05,5.72-.3l15.75,5.2c5.57,2.35,7.59,7.81,10.58,12.41-.39-.83.61.33.44.08-1.52-2.37-5.19-4.22-1.38-7.51.44-.38,1.23.06,1.73.53,5,2.39,7.2,6.6,7.75,11.89a9.52,9.52,0,0,0,0,6.53C609.77,204,606.13,209.27,600.15,213.06Z"/><path class="cls-11" d="M575.25,167.66l-5.75,1.49c-2.45-1.29-3.8-3.63-4.88-5.92-3.2-6.79-5.5-14.11-12.2-18.61-.47-.32-.32-1.19,0-1.81-.16-3.59-1.43-7-1-10.74.4-3.54-1.67-6.19-5-8.32-2.55-1.65-5.78-3-7.13-6.21,9.33,3,14.9,10.23,19.32,18.27,2.9,5.28,4.93,11.08,7,16.78S570.36,163.7,575.25,167.66Z"/><path class="cls-12" d="M602.37,178.37c-3.47.93-3.1,2.38-.65,4.27,1.49,1.16,3.36,2.12,3.64,4.23,0,.34-1.35,1.29-2,1.22a5.86,5.86,0,0,1-4.73-4c-1.32-4.83-4.48-7.74-8.34-10.28,0,0,.08-.41.2-.58a2.26,2.26,0,0,1,.51-.4C595.33,173.59,599.61,174.4,602.37,178.37Z"/><path class="cls-10" d="M592.68,219l-3.44,1.54c1.16-5,6.21-8.41,10.88-7.41Z"/><path class="cls-13" d="M535.47,115.05c-3.26,2.23-6.42,1.18-9.63-.34l2.83-2.21A10.32,10.32,0,0,1,535.47,115.05Z"/><path class="cls-14" d="M610.16,196.79a4.85,4.85,0,0,1,0-6.53Z"/><path class="cls-15" d="M437.36,679.12q-9.75-11.83-19.49-23.66c.65-3.65,3.72-5.71,6.05-3.5,3.49,3.33,6.46,2,9.36.57,3.86-1.87,7-2.08,9.67,1.58,1.45,2,2.67,0,4,0,21.21,18.94,40.43,39.6,55.52,63.86.62,1.27.8,2.47-.59,3.4-3.18.6-3.18-2.29-4.35-3.93-6.47-9.11-12.41-18.63-20.67-26.31-6.48-.25-11.62-4.62-17.87-5.76-2.47-.45-4.79-1.91-7.49-2.06-4.66-.25-6.09-3.92-7-7.56-.78-3,2.82-4.91,7.14-3.16,5.32,2.16.76-2.08.58-2.06C446.36,670,442.76,676.16,437.36,679.12Z"/><path class="cls-16" d="M501,721c1.19-.67,1.32-1.85,1.45-3a97,97,0,0,1,13,21.49c-1.38,3.95-5.76,5.94-6.38,10.65-.3,2.29-2.36,2-5.2-1.44.14,5.38-1.22,9.9-5,13.2-4,3.46-9.21,1.92-13.83,2.9q-2.1-5.38-4.21-10.78c.49-.43,1.49-.83,1.42-1.23-1.19-6.18,3.59-9,7.35-11.65,3.41-2.38,3.56-4.87,3.19-8.24C491.68,723.29,491.73,723.29,501,721Z"/><path class="cls-17" d="M485,764.79c1.42-2,3.67-2.35,5.75-2.5,7.76-.56,11.67-4.6,11.67-11.95,0-1.55-2.49-4.37.91-4.7s2.51,3.11,2.76,5.49c.87-.51,1.87-.85,1.85-1.12-.42-5.63,3-8.45,7.51-10.53L520.57,750c-3.27,2-4.22,5.26-4.37,8.77-.22,5.51-2.69,9.52-7.59,12-7,3.51-10.4,11-16.93,15Z"/><path class="cls-18" d="M498.57,854q-.17-17.58-.35-35.15c-.57-2.12-1.45-5,1.87-4.88,9.25.37,12.71-6.84,17.51-12.43,4.37-5.1,8.81-10.12,16.19-10.67.67,2.6,1.68,5.16,1.24,7.93-1.46,3.48.74,6.91.11,10.37-.24,1.26-1.75,3.21-2,2.52-2.23-6-3,.76-4.7.51-2.29-.34-3.12-1.85-3.8-2.67a18.79,18.79,0,0,1-9,15.62c-3,1.8-4.09,8.64-9.86,5.12.2,2.6-1.24,4.8-1.86,7.19-.72,2.75-.9,2.7-3.57,2.36,0-2.39,0-4.79,0-7.18a75.86,75.86,0,0,0,.83,11.75C501.58,847.6,503.22,851.88,498.57,854Z"/><path class="cls-19" d="M406.1,642.17A196.18,196.18,0,0,1,384.92,620c-.77-6.26,1-8.94,8-11.95l27.78,23.3c1.69,2.76.46,4.62-2.07,5.69C414.49,638.81,410.62,641.3,406.1,642.17Z"/><path class="cls-20" d="M498.57,854c2.33-6.12.67-12.49,1.12-18.74.17-2.37,0-4.76,1.33-7.2v12.81c1.43,2,.22,4.22.62,6,0,1.23,1.26.15.42.42-.2.06-.25-.13-.29-.58-.23-2.47-.43-4.14,3.2-4.88,3.92-.8,7.16-3.68,9.79-7.17,3.33-4.42,6.4-9.54,12.84-10.17a1.49,1.49,0,0,0,1.38-1.09c.5-1.41-.32-4.17,2.58-3.32,2,.6,1.65,2.81,1.7,4.53a18.64,18.64,0,0,0,.25,4.42c-.55-3.15-.12-6.38-.5-9.55-.15-1.27.61-2.67,2.37-2.22.48.12.54,1.11.53,1.79-.29,4.87.55,9.77-.52,14.6.09,3.44.29,6.9-1.36,10.1-.83-.44-.48-1.4-.89-2a13.61,13.61,0,0,1,.11,1.7,3.46,3.46,0,0,1-.62,1.75,1.72,1.72,0,0,1-1.67-.19c-1.59-2-1.2-4.55-2.54-8.32-2.68,9-10.31,11.85-15.63,17.08a4.28,4.28,0,0,0-1.49,2.12c-.9,5.5-4.39,5.61-8.06,4.15-2.52,2.77,2,8.74-5,8.81-1.1-2.15-.13-4.5-.67-6.7Z"/><path class="cls-21" d="M533.79,790.87c-2.67,4-8,3.61-11.22,7.5-2.89,3.49-5.86,7.22-9,10.59-3.94,4.2-7.22,7-13.08,6.24-2.89-.39-1.72,2.28-2.25,3.65a5.47,5.47,0,0,0-.93-.56q-.17-4.41-.31-8.84c-2.25-6.34,2.72-8.32,6.77-9.78,5.6-2,8.82-6.18,11.8-10.7,2-3,2.69-6.88,7.47-7.24,2.32-.18,1.39-2.74,1.64-4.36.42-2.87-.21-6.29,3.66-7.49C529.76,777,533.52,783.47,533.79,790.87Z"/><path class="cls-22" d="M491.68,785.77a49.51,49.51,0,0,1,17-17c4.17-2.55,6.27-5.64,5.79-10.5-.45-4.55,2-7,6.11-8.24q2.65,6.59,5.32,13.16c-.54,9.13-9.18,12.42-13.66,18.7-1.6,2.25-3.7,4.09-4.93,6.76-3.7,8-7.88,8.6-14.25,2.29C491.74,789.45,491.71,787.61,491.68,785.77Z"/><path class="cls-23" d="M535.23,817.17c-2.24,2.18-1.06,5-1.26,7.49-.17,2.29,0,4.61,0,8-1.9-2.87-1.11-4.89-1.31-6.78-.17-1.71.35-3.55-1.74-5.48.05,3.59.69,7-4.92,5.68-2.87-.67-5.24,3.67-7.26,6-3.65,4.22-6.49,9-12.08,11.25-2.14.86-4.36,5-5.61,6.84v-9.31c1.49-4.27,4.14-8.26,2.87-14.3,2.93,3.08,5.88,6.19,6.75-.29.06-.49.81-1.07,1.37-1.29,8.59-3.25,10.45-10.82,12.09-18.92,1.93,1.36,1,5.44,4,4.93,2.6-.44,2.31-3.84,4.18-6.19.22,2.22.4,3.93.68,6.78,2.08-4.87-.49-9.21,2.06-12.79l.36,4.8C536.11,808.13,536.4,812.66,535.23,817.17Z"/><path class="cls-24" d="M531.3,844.84h1.29a.87.87,0,0,1,.42.95c-.11.34-.22.51-.34.51A63.33,63.33,0,0,1,523.49,874c-6,1.32-12.21,2.36-16.39,7.38-3,3.54-6.27,2.87-9.8,1.86-3.72-1.06-1.49-4.5-2.51-6.65l1.17-6.68a1.45,1.45,0,0,1,1.59-.18,2.45,2.45,0,0,0,2.5,0c6.76-5.49,15-9.16,20.62-16,2.53-3.1,3.79-7.47,9.11-6.83C530.2,846.86,530.6,845.39,531.3,844.84Z"/><path class="cls-25" d="M406.1,642.17c2.84-3.64,7.26-4.53,11.16-6.2,2.29-1,3.74-2,3.46-4.6,9,7.27,18.13,14.42,26.22,22.76-1.06,1.12-2.49,4-3.64,2.2-4.67-7.12-9.5-2.52-14-.45-1.8.83-2.75,1.06-3.65-.38-2.67-4.27-5.2-2.65-7.81,0A92.28,92.28,0,0,1,406.1,642.17Z"/><path class="cls-26" d="M493.05,791c.31-.81.16-3,1.66-1.39,5.63,5.93,9.14,5.58,11.32-1.95a10.24,10.24,0,0,1,4.93-6.46c4.6-2.79,5-9.93,11.67-11.07,1.27-.22-1.44-6.09,3.26-6.88l2.43,6.68c-1.34,2.27-2.57,4.76-2.17,7.35.66,4.27,1.8,8.23-5.14,6.31-1.6-.44-1.44,1.83-2.09,2.85-2,3.16-3,6.79-6.36,9.23-3,2.2-4.58,5.56-9.45,5.74-2.94.11-6.71,3.38-6.13,8.09C495.34,803.35,493.46,797.31,493.05,791Z"/><path class="cls-27" d="M392.94,608.07c-3.08,3.71-7.6,6.46-8,11.95-7.12-6.57-14.21-13.15-19.67-21.26-.47-1.63-1.26-3.15-1.74-4.78-2-6.93-1.42-7.71,5.81-7.31Z"/><path class="cls-28" d="M494.79,876.54c2.12,6.66,5.9,7.31,11.56,3.48,3.39-2.3,5.41-8.77,11.65-5.44.25.14,1.4-.89,1.76-1.57,2.58-4.82,2.66,0,3.73.94a60.16,60.16,0,0,1-12,18.14c-6,5.26-11.91,5.77-18,.09-.69-.64-2.13-.34-2.9-1.26Q492.7,883.74,494.79,876.54Z"/><path class="cls-29" d="M309.94,453.46c.45,1,.91,1.93,1.36,2.9-1.78,9,.64,18,.21,27a6,6,0,0,0,.95,1.91,6.73,6.73,0,0,1,.35,1.24c-.67.58.29-.1-.44.38-.18.12-.06,0,.38-.43,2.68,3.21,1.48,7.71,3.67,11.09,1.54,11.47,6.74,21.72,10.85,32.33.15,3.45-2.21,4.57-4.95,5.34-2.27-4.92-5.05-9.65-5.86-15.13-.92-4.22-1.13-8.67-3.84-12.33a70.37,70.37,0,0,1-4.05-23.22,125.74,125.74,0,0,1,0-24.69C308.78,457.64,307.7,455.2,309.94,453.46Z"/><path class="cls-30" d="M369.32,586.67c-1.21,3.36-3.35,1.3-5.64,0-.11,4.76,3.28,8.19,1.57,12.13q-5.1-5.62-10.21-11.26l-5.62-8.4c-.49-1.55-1.71-2.72-2.2-4.27a6.12,6.12,0,0,1,.4-3.17l1.44-3.44c.1-1.33.69-1.93,2.06-1.41Z"/><path class="cls-31" d="M490.63,890.92c3.79-2.11,8.68,1,9.2,2.21,2.76,6.34,4.3,1.22,6.34-.08,1.61-1,2.77-5.09,5.34-1a59.68,59.68,0,0,1-15.36,14.79q-2.43.92-4.78,2.06c-1.82.87-3.51,3.74-5.62,1.79-1.85-1.71-.15-4.48,0-6.74s3.13-3.71,2.17-6.47C488.45,895.17,489,892.84,490.63,890.92Z"/><path class="cls-32" d="M351.12,566.81c-1.32,1.85-3.24,1.66-5.77.87,1.57,2.74,4.61,4.13,2.87,7.16-1.52.85-2-.89-3.08-1.2A106.69,106.69,0,0,1,332.74,555c-.18-2.42-.16-2.12,2.74-2.33,1-.07,1.66-2.38,3.52-1.53C343.72,555.82,347.33,561.38,351.12,566.81Z"/><path class="cls-33" d="M339,551.12c-1.09.59-2.84,1.94-3.18,1.65-4.44-3.82-1.16,2.83-3.08,2.21a100.26,100.26,0,0,1-10.42-19.79l4.95-5.34Z"/><path class="cls-34" d="M487.92,897.52c2.21,4.51-2.71,8.16-.76,12.6,2.33-1.64,5-4.4,9-3.24a53.35,53.35,0,0,1-14.77,10.44c-2.75,1-4.25.2-4.17-2.89Z"/><path class="cls-35" d="M477.21,914.43a4.24,4.24,0,0,0,4.17,2.89l-2.76,2.58-6.77,3.45c-.23,1.29-1.19,1.38-2.22,1.35-1-.32-1.81-.79-1.47-2.07Z"/><path class="cls-36" d="M535.23,817.17q.07-6.79.16-13.57a80.28,80.28,0,0,1,0,30Q535.32,825.4,535.23,817.17Z"/><path class="cls-37" d="M532.67,846.29c0-.49,0-1-.08-1.46.25-1.34-.48-2.83,1.06-4.48.16,1.39.27,2.37.38,3.35C534.17,844.87,534,845.86,532.67,846.29Z"/><path class="cls-38" d="M313.81,445.77l-2.69-1.45c-.43-4.2,2.11-7.75,2.59-11.75l.27-1.31,2.69-.05C317,436.31,313.39,440.65,313.81,445.77Z"/><path class="cls-39" d="M308.58,459.82q0,12.35,0,24.69A57.59,57.59,0,0,1,308.58,459.82Z"/><path class="cls-40" d="M312.62,507.73c3.15,1.84,4.05,4.72,3.84,12.33A35.73,35.73,0,0,1,312.62,507.73Z"/><path class="cls-41" d="M345.14,573.64l3.08,1.2,1.2,4.26A12.75,12.75,0,0,1,345.14,573.64Z"/><path class="cls-42" d="M528.23,241.58l1.89,6c.46,1.26.5,2.62.94,3.89,0,2.26,1.93,4.24,1,6.64-2.64,1.07-4.66-.53-6.8-1.61-6.26-7.86-9.05-17-10.57-26.82-.87-5.61-2.43-11-6.14-15.67-2.95-3.73-6-7.46-8.07-11.87-2.5-5.21-7.87-7.38-12.36-10.44-9.14-6.22-17-14.08-25.87-20.61.47-6.18,1.19-6.4,6.37-4,10.6,4.87,21,10.28,33.38,9.45,8.17-.55,14.26,4.69,20.37,9.22a6.61,6.61,0,0,1,2.59,6.44c-.93,5.64.43,11.42-.34,16.8-1.4,9.8.91,19.1,1.54,28.61C526.48,239.08,526.88,240.58,528.23,241.58Z"/><path class="cls-43" d="M531.3,258.71c-.43-2.21-.85-4.43-1.28-6.65,1.49-.72,1.88.7,2.64,1.38,9.23,14.43,20.14,27.55,31.58,40.25,7.14,10.08,9.94,22.06,14.56,33.25a1.25,1.25,0,0,1,.37,1.1c-.08.39-.16.58-.26.58-5.5-1.2-4.87-7.53-8.58-10.23a8.71,8.71,0,0,1-.82-1.68c-4.08-15.14-14.72-25.79-24.73-37C539.31,273.5,534.35,266.61,531.3,258.71Z"/><path class="cls-44" d="M527.12,230.07c5.38-1.91,1.92,2.54,2.78,3.88l-2.4-2.12A1.17,1.17,0,0,1,527.12,230.07Z"/><path class="cls-45" d="M532.66,253.44,530,252.07c0-1.5.06-3,.1-4.51C531.51,249.29,532.7,251.1,532.66,253.44Z"/><path class="cls-46" d="M528.23,241.58c-1.61-.15-2.15-1.21-2.25-2.64a2.41,2.41,0,0,1-.27-2.6,1.08,1.08,0,0,1,1.57.06C527.6,238.13,527.91,239.85,528.23,241.58Z"/><path class="cls-47" d="M316.6,431.34c-2.74-3.63.59-6.26,1.53-9.28,1.25-.08,1.93.29,1.3,1.67C318.85,426.4,318.45,429.14,316.6,431.34Z"/><path class="cls-48" d="M319.43,423.73l-1.3-1.67c.37-1.33.74-2.66,1.12-4,.55-1.91.31-4.21,2.58-5.28l0,0C324.53,417.18,320.23,420.07,319.43,423.73Z"/><path class="cls-49" d="M311.34,485.25a66,66,0,0,1,0-28.9c.54,4.33-1,8.84,1.11,13,0,.94,0,1.87,0,2.8C311.14,476.46,313,481,311.34,485.25Z"/><path class="cls-50" d="M311.34,485.25c.47-4.35-1.1-8.87,1.08-13.08.12,4.36,1.25,8.71,0,13.07Z"/><path class="cls-51" d="M707.79,640.68c6,5.63,8.55,13.16,11.94,20.34,5.31,11.24,8.78,23,11.76,35-1.83,3.1,1,3.86,2.62,5.27.1,2.63-1.06,5.27,0,7.9,1.76,9.48-.06,18.63-2.55,27.72-.43,1.54-1,3.18-2.77,3.27-7.54.36-10.47,6.21-12.37,11.75-3.72,10.85-12.07,19.38-14.63,30.72-.44,2-2.58,2.85-4.19,4-5,3.62-11.22,4.94-16.48,8.08-4.09,2.45-6.52,1.39-7.57-3.19-1.83-10.19-1.62-20.63-4-30.76a5.43,5.43,0,0,1,.58-3.77c7.78.16,12.81-4.66,16.29-10.51,3.33-5.61,7.68-11,7-18.53-.42-4.94,2.38-9.68,3.68-14.48,1.65-6.1.69-12.58,3.59-18.45,2-3.95,4-7.31,7.51-10.33,4.66-4,5.63-10.73,4.15-16.13-2.3-8.42-1.72-17.4-5.36-25.48A2.36,2.36,0,0,1,707.79,640.68Z"/><path class="cls-52" d="M707.79,640.68c5.44,8.88,2.69,19.87,7.53,29,1.84,3.48-3.16,6.38-2.39,10.48s-2,5.54-5.6,7.35c-4.83,2.43-7,9.41-6.59,13.26.69,6.13-2.56,10.86-2.66,16.48-.1,5.33-2.42,10.45-3,16-.53,5.22-4,11.76-8.63,16.28-1.72,1.69-3.76,3.18-5,5.16-2.95,4.61-6.29,5.3-10.51,1.84a3,3,0,0,1-2.31-2.08c-1.21-8.36-5.45-15.8-7.12-24a11.76,11.76,0,0,1,2.08-5.89c1.21-1.54,2.33-3.17,3.64-4.63s2.92-3.15,5-1.43c1.61,1.36,1,3.19-.14,4.72-.64.86-1.43,1.61-1.81,2.29,2.87-2.33,3.12-5.61,3.18-9.45.07-5.7,3.33-10.74,5.08-16.08,3.6-11,4.18-22.22,5.24-33.49.67-7.17-.06-14.4,1.12-21.54.15-.86-.23.14.11-.63,3.2-7.25,1.89-14,.15-21.62-1.45-6.46-1.87-12.34-7.18-16.93a3.08,3.08,0,0,1,.18-5.11c4.11-.23,6,2.33,7.27,5.74,5.63,7.6,11.35,15.15,16.85,22.85C704.7,632.74,708,635.87,707.79,640.68Z"/><path class="cls-53" d="M674.88,792.15c1.43.14.45,4,3.91,1.79,5.82-3.64,12.77-5.24,18.61-9.07,1.66-1.09,3.76-1.79,3.7-4.14-.11-4.19,1.9-7.6,4.09-10.75,4.89-7,7.16-15.38,11.56-22.45,2.18-3.5,3.47-11.28,11.44-8.44,1.52.54,1.69-1.4,2-2.7a181.3,181.3,0,0,0,3.95-27.22,30.49,30.49,0,0,1,2.63,13.15c-.12,14.54.94,29.16-2.65,43.49-4.4,11.06-8.11,22.41-13.93,32.87a4.38,4.38,0,0,1-1.63.94c-7.19,2.78-13.85,5.71-17.14,13.89-1.69,4.21-6.76,6.7-9.28,10.87a2.87,2.87,0,0,1-1,.82c-1.22.74-3.06,1.12-3.7.21-4.17-5.95-13.48,3.35-16.45-5.68C672.06,810.5,671.12,801,674.88,792.15Z"/><path class="cls-54" d="M718.33,798.73h1.32c1.68-.2,1.7-3.39,3.72-2.42,1.53.74,1.06,2.42.24,3.75-11.87,33.45-33.9,59.69-60,82.68-9.77,8.6-21,15.62-32.47,22-.94.53-2.08.66-3.07,1.1-1.28.57-2.65,1-3.49-.39s.67-2.31,1.48-3.22q6.57-7.31,13.22-14.54c1.34-1.46,2.9-2.76,2.46-5.06-1.1-3.27,2.14-4,3.44-5.79,3.45-2.46,4.22-7.48,8.62-9,2.94.13,5.59.19,6.49-3.73.54-2.37,2.51-4.16,4.61-1.27,1.84,2.51,1.72-.35,2.37-.65,4.49-2,8.16-5.92,13.52-6.08.72,0,1.34.24,1.89-1,4.26-9.34,12.75-15.27,19.07-23,1.38-1.69.89-3,1.27-4.51a13.38,13.38,0,0,1,5.11-8.05c.44-.48.75,1.05,1.28.12a.84.84,0,0,1-1-.66c-.41-1.36-.42-3,.77-3.55,2.58-1.28,5-2.17,1.87-5.43-.65-.68-.07-2.4.79-2.9C715.14,805.17,715.91,801.32,718.33,798.73Z"/><path class="cls-55" d="M685.38,606.44l-6.56-5.27a7.41,7.41,0,0,1-3.78-3.06c3.23,4.25,3,10.18.58,15.1-4.92,10.2-3.08,20.68-2.31,31,.75,10.1.5,20.16.59,30.23a8.57,8.57,0,0,1-1.54,5.64c-5.55,6.6-6.5,14.69-7.69,22.72a56.64,56.64,0,0,1-2.19,7.58c-.58,2-2.07,2-3.7,1.27a3.72,3.72,0,0,1-1.81-2.38c-1.27-11.38,3.9-21.25,7.17-31.63,2.92-9.28,4.15-18.84-.18-28.27a19.21,19.21,0,0,1-1.17-11c1-6.58-.46-12.71-3.25-18.49-1.86-3.84-1.88-7.29-.8-11.37,1.15-4.31,4.27-8.89.38-13.44a11.67,11.67,0,0,1-4.35-3.74c-1.45-2.31-3.92-4.91-1.93-7.53s4.56-6,9-3.77c8.69,6.66,15.33,15.45,23.51,22.63l1,2.57Z"/><path class="cls-56" d="M723.61,800.06c-.08-.82.16-2.07-.28-2.39-1.51-1.08-1.43.79-1.82,1.39-1,1.58-1.61,1.9-1.86-.33a103.52,103.52,0,0,1,7.76-18.46c2.48-4.5,3.39-10.09,6.71-14.46C731.42,777.47,729.54,789.39,723.61,800.06Z"/><path class="cls-57" d="M598.3,921a5.7,5.7,0,0,1,3.94-2.56c.64,1.24,1.88,1.45,3.07,1.76a12.13,12.13,0,0,1-6.76,2.8A1.39,1.39,0,0,1,598.3,921Z"/><path class="cls-53" d="M734.11,701.27c-3-.7-5.38-1.71-2.62-5.27C731.31,698.28,733.4,699.43,734.11,701.27Z"/><path class="cls-58" d="M570.82,318c5.16,1.63,4.22,7.79,7.85,10.55,1.92.66,2,3,3.63,3.94q15.65,21.27,31.27,42.53c5.83,8,10.08,16.84,14,25.85,2.14,4.86,1.75,9.62-1.19,13.71s-5,8.53-9.11,11.59c-1.59.43-3.29,1.58-4.44-.78-.12-.25.08-1.39-.29-.73-1.35,2.46-2.87,2.38-4.66.81-1.44-1.27-2.08-3.43-1.06-4.73,3.55-4.53,1-8.51-.58-12.64a11.5,11.5,0,0,1-.2-1.85c2.36-6.44.4-12.41-2.05-18.32-.55-4.33-.82-8.68-4.11-12.17a8.21,8.21,0,0,1-1.78-6.2c.57-5.4-2.07-9.46-5.26-12.89-7.38-7.94-12.4-17.48-18.79-26.07C572.65,326.48,568.71,323,570.82,318Z"/><path class="cls-59" d="M591.81,450.64a236.8,236.8,0,0,1-23.71,18.5c-2.84.18-5.65-2-8.61.23-1.39,1.05-2.86-.3-3.86-1.51-1.58-1.91-1.49-3.93-.3-6,2.12-3.77,4.71-7.29,6.08-11.46,3.79-6.23,7.84-12.22,14.38-16a4.45,4.45,0,0,1,4,1.7c4.37,6.37,11,4.71,17.1,5,2.16.44,2.54,1.74,1.75,3.61l.05-.07c-2.28.73-3.78,3.23-6.15,3.32C588.63,448.07,593.4,450.15,591.81,450.64Z"/><path class="cls-60" d="M598.66,444.67c-.21-1.67-.95-2.83-2.82-2.88-.21-2.79.06-5.84-4.38-5.33-1.81.21-4.5.5-4.72-2-.23-2.7,2.67-2.79,4.62-3.54-1.32-.55-2.64,0-3.91-.32a2.16,2.16,0,0,1-1.39-1.06c-1.16-5.89,4.08-9.45,5.25-14.5a6.6,6.6,0,0,1,2.41-3.69c2.93-2.36.91-6.36,3-9,1.21-.94,3.11-1,3.31.25.78,4.74,4.68,4.08,7.7,5-.07,1.92,1.35,3.1,2.23,4.56,1.52,2.55,2.73,5.09-.64,7.26-1.78,1.14-1.86,2.86-1,4.55.32.64,1.34,1.46,1.9,1.36,2.17-.37,1.23-2.37,1.58-3.69.31-1.15.82-2.11,2.15-1.86a1.77,1.77,0,0,1,1.2,2.95c-2.52,3.42-.06,3.33,2.24,3.47a45.35,45.35,0,0,1-11,11.57c-2.75,1.34-4.39,3.86-6.4,6Z"/><path class="cls-61" d="M562.7,450.61c-.54,4.68-4.1,7.75-6.26,11.56-1,1.74-1.08,3.2,0,4.7s2.41,2,4.27.52c3-2.38,5,.94,7.38,1.75l-9.85,8.44c-5-.91-9.63-2.56-11.89-7.76C550.35,462.18,554.76,454.89,562.7,450.61Z"/><path class="cls-62" d="M547.13,469.81c3,3.63,7.27,5.39,11.12,7.77l-7.48,8.9c-8.83-2.51-10.54-4.89-8.83-12.28C543.35,472.36,543.55,469.07,547.13,469.81Z"/><path class="cls-63" d="M543.08,474.64c-3.31,7.76,4.48,8.31,7.68,11.84q-1.15,2-2.33,4.08l-1.44,1c-1.22,1-2.3.28-3.41-.25-2.72-3.19-6.75-5.43-7.48-10.11C537.78,478.36,538.62,474.59,543.08,474.64Z"/><path class="cls-64" d="M591.81,450.64c-.2-1.3-4-2.87.35-3.85,2.24-.51,4-2.48,6.55-2.19A23.34,23.34,0,0,1,591.81,450.64Z"/><path class="cls-64" d="M600,443.71c1.6-2.56,1.8-6.62,6.4-6A22.15,22.15,0,0,1,600,443.71Z"/><path class="cls-65" d="M582.3,332.47c-2.39-.22-2.63-2.43-3.63-3.94,0-.53.08-1.06.13-1.59C580.87,328.21,581.43,330.44,582.3,332.47Z"/><path class="cls-66" d="M573.46,925.18a16.73,16.73,0,0,1-9.14,2.86c-3.37-.64-6.27,1.18-9.41,1.79a6.4,6.4,0,0,1-2.62.57c-3.4.29-6.9-.38-6.14-4.51,1.9-10.43-5.06-15.81-11.32-21.75,1.38-11.55,9.4-19.31,15.92-27.92a3.79,3.79,0,0,1,4-1.74c4.51,3.5,3.32,7.16-.1,10.41-2.13,2-2.94,3.65-.77,6,4.28,4.58,6.55,10.23,8.35,16.08.73,2.38,1.22,3.78,4.42,2.62,6-2.17,6.1-1.9,5.56,4.28,0,.44-.26,1,.07,1.19,4.66,2.77,2.71,5.26-.19,7.83-.17.16.73,1,1.1,1.49C573.28,924.64,573.37,924.91,573.46,925.18Z"/><path class="cls-67" d="M604.07,908.24c-2.82,4-7.93,5-11,8.72l-7.72,3c-1.57.36-3.18.5-4.77.76-1.81-1.1-7.9-.31-2.15-4.8.17-.13,1-.12.49-.38-6.1-2.85-5-9.7-7.87-14.34s-6.3-9.08-8.4-14.56a172.22,172.22,0,0,0-7.24-16.08,141.23,141.23,0,0,1,10.71-23.44,7.69,7.69,0,0,1,3.91,8,45.81,45.81,0,0,0,3.63,22.57c.42,1,.72,2.44,1.56,2.82,7.49,3.37,7.28,10.64,9.17,17,1.49,5,5.59,8.64,8.93,12.56,1.45,1.7,2.21-.82,3.38-1.14C599.08,907.85,601.36,906,604.07,908.24Z"/><path class="cls-68" d="M542.07,933.21c-8.94,3.39-18.48,2.74-27.72,3.58-23.09,2.09-46.29,1.65-69.46,1.37-1.16,0-5.22,1.26-1.63-2.35,4.62-3.87,10.67-3.64,16-4.84A176.33,176.33,0,0,0,522.8,902.3a5.39,5.39,0,0,1,4.28-1.17c2.35,3.56-1.25,4.5-2.78,6.36a97.74,97.74,0,0,1-8.88,5.77c-6.17,4.55-13.19,7.63-19.83,11.38-2.26,1.28-4.34,2.47-.3,4.83s1.55,3.32-1.18,3.79c11.3-1.6,22.95.6,34.48-1.34a28.83,28.83,0,0,1,6.86-1C537.73,931.47,540.35,931,542.07,933.21Z"/><path class="cls-69" d="M542.07,933.21c-2.26-.57-4.92.78-6.83-1.43,3.49-2.73,7.64-2,11.59-2.14,1.87-.08,3.79.7,5.55-.51H555a5.22,5.22,0,0,1,5.38.07A48.17,48.17,0,0,1,542.07,933.21Z"/><path class="cls-66" d="M581.35,919.92a3.49,3.49,0,0,1,4,.07c-3.5,2.8-7.63,4.19-11.93,5.19l-.14-.2C572.94,918.43,578.2,920.84,581.35,919.92Z"/><path class="cls-70" d="M560.39,929.19l-5.38-.07c3-1.18,5.85-3.8,9.31-1.08C563.27,929.29,561.82,929.2,560.39,929.19Z"/><path class="cls-71" d="M614.67,544.35c8.48,2.39,14.63,8.54,21.36,13.61,8.53,6.43,17.09,12.91,24.43,20.77-2.34,1.58-4.39.11-5.92-1.15-9.42-7.77-19.58-14.65-27.89-22.58,1.11,1.7,3.55,3.21,5.35,5.32,1.14,1.33,3,2.78,2.93,4.25-.53,8.57,6.63,12.6,10.54,18.51,1.24,1.88,1.91,3.7.31,5.33-3.67,3.73-2.3,7.34.26,10.59,2.84,3.6,3.38,7.89,4.89,12,5.93,15.94,5.42,32.7,5.89,49.12.26,9.23.73,20.24-9.9,26.42,6.92,3.13,1.77,9,3.59,13.29a3.21,3.21,0,0,1-2.17,3c-6.18-3.77-9.1-9.83-11.47-16.28,1.21-14.66,3.22-29.2,2.94-44.07A145.06,145.06,0,0,0,632,597.06a14.63,14.63,0,0,0-2.12-4.75,35.62,35.62,0,0,1-8-20.41c-.33-4.24-1.46-8-5.79-10.87-6.62-4.37-6.79-7.67-3.28-17.13A2.87,2.87,0,0,1,614.67,544.35Z"/><path class="cls-72" d="M649.84,700c-2.18-1.94-.91-4.52-1.32-6.79-.26-1.48,3.9-6.18-2.59-3.65-1.54.6-2.13-3.27.34-4.87,10.38-6.72,9-17.4,8.58-27.1-.29-6.79-.7-13.69-.46-20.4.4-11-5.58-20.43-6.1-31.12-.2-4.08-5.07-6.29-6.24-10.45-.41-1.46-1.69-3-.46-4.16,4.3-4.17,2.49-6.89-.7-11.12-2.92-3.88-5-7.93-11.65-9.09,8-3.48,4.14-7.24,1.43-10-2.88-2.93-4.57-7.11-8.69-9,6.62,1.8,11,6.94,16.47,10.51,7.58,5,13.28,12.58,22,16l1.37,1.26c-3.81-.38-7.81,3.11-8.09,4.52-.68,3.39,1.8,6.84,5.32,8.76,1.32,5.52,1.22,5.64-4.6,4.28,3.24,5.11,3.1,10.18,2.57,15.34-1.18,11.48,3.15,22.5,3,33.93-.16,10.35,3.75,20.63-.08,31.11-1.19,3.26-1.54,6.74-4.06,9.46a12.9,12.9,0,0,0-2.94,7.19C652.6,696.74,652.33,699,649.84,700Z"/><path class="cls-73" d="M614.67,544.35l-1.71.18c-11.79-5.44-21.71-13.83-32.59-20.71-2.56-1.61-4.93-3.61-7.46-5.4-.37-.74-1.36.45-.62,0,.21-.14.31,0,.51.2,1.58,1.52,1.92,2.91-.31,4.12-2.76.23-4.52-1.59-5.86-3.46-5.22-7.31-12.78-12.13-19-18.31a4.05,4.05,0,0,1-1-1.44,4.84,4.84,0,0,1,.84-3.26,1.84,1.84,0,0,1,1.38-.8c13.61,10.17,26.44,21.43,41,30.32,7.24,4.43,13.58,10.28,21.48,13.66C612.33,541.13,614.6,542,614.67,544.35Z"/><path class="cls-73" d="M544.46,490.49l2.53,1.12,1.83,3.85-.48.4C544.83,495.67,543,494.27,544.46,490.49Z"/><path class="cls-74" d="M598.3,921c.09.66.17,1.33.25,2l-8.41,4.57-2.07.09c-.78-1.57.54-1.83,1.45-2.33Z"/><path class="cls-75" d="M437.36,679.12c1.77-2.31,4.93-3.7,4.59-7.39-.09-1,.73-1.36,1.8-1.1,3.39.81,6.41.66,8.63-2.69.74-1.11,2.36-1.12,3.56-.18,1.38,1.08.22,1.86-.45,2.63-2.26,2.56,3.76,4.93.62,6.67s-3.31-3.63-5.86-3.92c-1.6-.18-3.31.6-4.93.94,1.36,5.22,3.85,7.1,9.59,8.3,5,1,11.61,1.18,15.68,6.07,1.87,2.24,4.61-.35,6.72,1,1.4,1.45,0,2.84-.06,4.27,0,1.09-.82,2.68,1.55,2.55,5.42-.28,5.4,2.54,3,6-1.18,1.74-.84,3.05-.3,4.81,2.71,8.81,1.76,11.81-5.52,17-2,1.44-2.31,2.93-1.52,5,.7,1.83,1.89,3.5,2.25,5.41.41,2.13,1.46,4.84-2.39,5.08-6.57-11.49-12.19-23.53-19.85-34.4l-14.22-22c-.67-1.53-1-3.27-2.73-4.11Z"/><path class="cls-76" d="M474.35,739.63c4.46-4.55-1.28-7.42-2.11-11-.75-3.27-.46-4.88,2.53-6.13,6.84-2.85,9-9.4,4.75-15.53-1.9-2.73-2.89-4.51,1.1-5.71,1.81-.55,1.71-1.66,1-3-.38-.76-.46-1.3-1.81-.87-8,2.55-2.83-3.43-3.42-5.61-.18-.65.56-1.56.87-2.35,9.66,9.22,17.26,20,23.71,31.61-.12.42-.19,1.18-.36,1.2-10,1.16-6.53,8.43-6,14,.28,3,1.81,5.31-3.28,5.18-2.77-.07-3.29,2.87-1.74,5.3-2.26,2-3.09-2.27-5.1-1-1.73,2.59,3.58,8.29-3.74,8.33Q477.57,746.81,474.35,739.63Z"/><path class="cls-15" d="M437.55,679.08c3.19-.15,2.83,2.06,2.73,4.11A6,6,0,0,1,437.55,679.08Z"/><path class="cls-77" d="M497.06,869.88l-1.1,0,1.62-7.78c1.41,2,.58,4.3.81,6.46C498.79,869.82,498.27,870.19,497.06,869.88Z"/><path class="cls-78" d="M373.24,424.7q1.35-4.62,2.71-9.24c3.37-3.3,2.8-8.76,6.51-11.87,3.32.53,4.8,2.75,5.16,5.84A56.94,56.94,0,0,0,395.33,432c2.11,3.6,1.5,8.77,1.89,13.26-1.23,4.74-1,10-4.52,14-4.07-.4-5.08-3.85-6.07-6.77-1.83-5.35-5.53-9.88-6.45-15.62-.26-1.61-1.78-2.93-3-4.2Z"/><path class="cls-79" d="M377.2,432.57c3.09-.62,4.48,1.92,4.86,3.8,1.66,8.23,6.36,15.07,9.63,22.55,3.11,3.39.65,7.08.51,10.62-.19,5-.48,10-3.18,14.39-2-4.89-3.5-1.15-4.64,1-.83-.92-1.4-1.28-1.36-1.56.66-5.2-2.44-9.86-1.11-15.52s-4.28-10.66-3.64-16.86S374.53,438.9,377.2,432.57Z"/><path class="cls-80" d="M425.13,590.45c-6.7-5.27-12.28-11.43-15.71-19.39-.55-1.3-.53-4.69-3.74-2.49-.56-2.67-4.59-4-2.76-7.64,1.11-2.22-.15-4.83-2.31-3.75-6.13,3.07-4.62-2-4.85-4.33-.64-6.31-1.77-12.39-4.94-18-.32-.57-.92-1.4-.73-1.78,3.92-7.82-2.15-15.16-1-22.83-1.06-2.63.07-5.26,0-7.9a1.33,1.33,0,0,1,1.85.19c2.56,4.33,1.88,9.31,2.86,13.95,4.71,22.27,11.35,43.72,25.59,62.19C421.88,582,426,585.18,425.13,590.45Z"/><path class="cls-81" d="M390.31,502.39h-1.26l0-18.45,2.67-25c2.29-4.56,3.13-9.52,4-14.48.63-7.31,3.77-13.79,6.72-20.33,1.73-2.68,2.84-5.71,4.63-8.33,1.12-1.64,2.08-4.54,5.09-2.2-.06,6.19-3.73,11.13-6.11,16.41-9,19.88-13,40.76-13.86,62.38C392,495.77,393.15,499.46,390.31,502.39Z"/><path class="cls-82" d="M431.34,598.16a1.75,1.75,0,0,0,1.19-.1L443,610.48c1.33,2,.45,3.24-1.43,4.14-5.66-4.47-11.27-9-15.74-14.72.43-.61.9-.64,1.4-.09l8.22,6.46C435.29,602.43,431.38,601.22,431.34,598.16Z"/><path class="cls-83" d="M427.27,599.81l-1.4.09c-4.11-3.65-8.25-7.27-11.41-11.84C420.05,590.54,423.35,595.52,427.27,599.81Z"/><path class="cls-84" d="M391.51,558.22a18.55,18.55,0,0,1-4.42-7C390.7,552.22,391.37,555.05,391.51,558.22Z"/><path class="cls-85" d="M441.61,614.62l1.43-4.14c3.87,2.19,6.4,5.78,9.3,9,.59,1.55-.14,2.48-1.48,3.11A38.06,38.06,0,0,1,441.61,614.62Z"/><path class="cls-86" d="M450.86,622.57c.49-1,1-2.07,1.48-3.11l7.94,7.84c.05,1.47-.22,2.57-2.09,1.74A21.7,21.7,0,0,1,450.86,622.57Z"/><path class="cls-87" d="M458.19,629l2.09-1.74,6.92,6.62c-.23.86-1,1-1.67,1.21Z"/><path class="cls-88" d="M472.73,640.67c3.95-.59,5.42,1.53,5.57,5.1Z"/><path class="cls-89" d="M465.53,635.13l1.67-1.21c2.1.62,2.33,2.52,2.88,4.21Z"/><path class="cls-90" d="M500.91,270.44l3.87-6.76c10.81,5.27,18.54,13.53,23.94,24.19,2.58,5.09,7.23,8.6,10.36,13.43,7.48,11.54,17.19,21.3,27.17,30.74,5.82,5.5,6.81,13.56,10.62,20.17,5.22,9.07,10.18,18.34,13.78,28.25,1.58,4.35,4.51,8,7.33,11.63,2.93,3.19,2.72,6.23-.47,9.1a4.14,4.14,0,0,1-1.79.5c-4.29-2.61-6-7.58-9.73-10.7a56.75,56.75,0,0,0-13-13.17,5.48,5.48,0,0,1-1.5-2.29c.7-7.42-3.42-13.21-6.79-19.12-1.39-2.42-3.72-4.55-4.53-7.17-3-9.84-10.66-16.45-16.62-24.18-4.13-5.37-8.49-10.61-12.16-16.25-5.72-8.82-13.57-16-18.71-25.22-1.08-1.94-3.14-3-4.85-4.33C504.84,276.91,501.09,275,500.91,270.44Z"/><path class="cls-91" d="M597.16,393.06c-7.18-6-8.77-15.23-13-22.93-3.65-6.63-6.46-13.72-10.2-20.29-1.65-2.9-2.45-6-3.79-8.9-3.38-7.33-9.16-12.86-15.41-17.68-4.11-3.17-6.79-7.4-9.82-11.3-8.56-11-16.68-22.39-24.81-33.74-3-4.13-6-7.86-11-9.82-1.79-.7-2.92-3.09-4.36-4.72l2.63-7.86A5.06,5.06,0,0,1,510,256.9c5.43,1.87,8.57,6.3,12.1,10.43,8.71,10.18,18.3,19.72,24.83,31.51,2.75,5,7.9,7.48,10.53,12.3,4.59,9.5,10.93,17.89,17.73,25.78s10.92,16.79,15.15,25.87c2.59,5.54,5.56,10.87,8.29,16.32C601.53,385,601,389.53,597.16,393.06Z"/><path class="cls-92" d="M500.91,270.44c4,6.23,11.62,8.81,15.52,15.2,6.54,10.72,15.54,19.69,22.28,30.18,7.55,11.75,18.61,20.86,24.13,34.24,2.29,5.56,6.06,10.85,9.1,16.3,1.78,3.19,2.38,6.05.18,9.15l-.63.67a4.1,4.1,0,0,1-3-1.83,37.09,37.09,0,0,0-9.25-9,13.51,13.51,0,0,1-1.44-1c-1.71-1.68-3.92-2.79-5.44-4.69a2.57,2.57,0,0,1-.29-1.76c5.48-6.3-.87-10.7-3.56-14.18-10-13-19.49-26.4-30.3-38.8-6.57-7.54-10.67-17-17.58-24.44-1.5-1.61-3.07-4.36-2.31-7.25C498.67,271.77,499.8,271.11,500.91,270.44Z"/><path class="cls-93" d="M445.5,297.61a29.33,29.33,0,0,1,12-7.51c4,2.6,1.25,5.79.66,8.7-.51,2.59-2.23,4.66-3.62,6.85-4,6.72-7.91,14.21-13.44,19.07-6.45,5.68-9.09,12.68-12.43,19.63-5.08,10.59-4.77,21.3,1.25,31.73,1.34-1,2.72-3.68,5.44-1.64-.16,5.88-2.81,10.41-7.45,13.88-.86.14-2.1.42-2.52-.17-4.49-6.35-12-10.95-11.6-20.15.26-6.06-1.15-12.16.31-18.21a5.26,5.26,0,0,1,.83-1.57,4.83,4.83,0,0,0,2.24-3.39c.46-1.65,1.64-3,1.9-4.74l0,.06c5.41-5.28,8.39-12.15,11.8-18.67C435.14,313.16,439.68,305,445.5,297.61Z"/><path class="cls-94" d="M462.86,171.78c5.33-3.1,6.88,2.93,9.12,4.81,6.76,5.67,13.37,11.47,20.89,16.13,4.92,3.05,8.78,6.72,11,12.34,1.22,3.12,4.4,5.21,6.3,8.19,3.64,5.72,5.36,11.72,6.31,18.49s3,13.76,7.39,19.62a24.78,24.78,0,0,1,2.18,4.72,6.87,6.87,0,0,1-.87,6.5c-6.77.05-7.11-5.4-8.88-10.2-1.95-.83-2.41,4-4.86,2-1.76-1.38-1.18-3.56-1.19-5.48a11.19,11.19,0,0,0-.37-3.21,3.12,3.12,0,0,1,0-1.79,29.42,29.42,0,0,0,0-10c-.36-1.06-.05-2.49-1.63-2.86q-1.22-1.89-2.44-3.77c2.44-4.07-1-6.3-3.23-8.09A17.85,17.85,0,0,1,497.3,212c-3.54-7.88-10.47-12.79-16.71-18.27-4.72-4.14-10.53-7-14.24-12.33a12.93,12.93,0,0,1-2.06-1.7l-1.37-2.7C464,175.26,461.7,173.54,462.86,171.78Z"/><path class="cls-95" d="M498.31,273.16c9.9,14.08,18.49,29.17,30.31,41.79,8.11,8.66,13,19.75,21.85,27.85,2.18,2,3.1,5.83,5.1,8.65,2.5,3.5-.06,5.57-3.17,7-1.26,1.9-2.76,1.4-4.31.43a5.9,5.9,0,0,1-1.55-2.49,6,6,0,0,1-.08-1.89,5.36,5.36,0,0,0-1.25-4.92c-10.79-10.61-17.83-24.1-26.91-36-8-10.45-17.71-19.93-23.09-32.33a10.77,10.77,0,0,1-1.25-4.37Z"/><path class="cls-96" d="M494,276.87c4.71,5.11,6.17,12.37,11.73,17.05,7.85,6.6,10.65,17.09,18.67,24.11,4.16,3.64,7.2,10,10.59,15.13,3.86,5.92,7.3,12.06,12.59,16.85,2.22,2,2.31,3.52-.44,4.93-5.24,2.93-8.77-.17-10.68-4.18-8.35-17.59-21.78-31.63-32.66-47.44-3.89-5.65-9.59-10-13.08-16.19-1.69-3-2.2-5.61-.17-8.48Z"/><path class="cls-97" d="M413.61,411.32,412,412.93c-5.41,2.05-4.58,8.61-8.48,11.75-4-1.16-6.17-4.37-7.07-7.89-1.71-6.68-3.5-13.2-6.79-19.34-2.32-4.35.42-8.33,2-12.29q1.95-5.36,3.89-10.69a3.88,3.88,0,0,1,1.59-3.76,2.1,2.1,0,0,1,2.75,2c-.34,6.68,4,11.84,5.61,17.91,1.31,5,1.87,10.86,7.59,13.81,1.43.73,1.94,2.85,2,4.7C415,410.15,414.74,411,413.61,411.32Z"/><path class="cls-98" d="M490.51,278.65c.1,9.13,6.6,14.41,11.9,20.64,6.59,7.75,12.6,16,18.47,24.35,6.18,8.76,13.1,17.05,17.24,27.19,1.42,3.47,5.23,4.37,9,4.11,0,.35,0,.7,0,1.05-2.23,2.57-5.18,1.84-8,1.74a8.49,8.49,0,0,1-6-3.71c-4-6.25-9.74-11.3-13.07-17.93-6-11.82-15.38-21-23-31.63-2.9-4.06-6.72-7.45-8.42-12.34a5.67,5.67,0,0,0-3.77-3.35c-1.47-.17-1.26-2.55-3.69-2.14-2.2.38-1.46-1.83-.8-3.2,1.68-2.73,5.16-2,7.32-3.82Z"/><path class="cls-99" d="M414.14,408.88c-1.64-2.3-1.84-6.11-6-5.79-1.46.12-1.7-.92-1.9-2.06-1.39-7.77-2.74-15.51-7.93-22-1.83-2.28,3.26-6-1.12-8.33,1.35-3.67,4-6.4,6.54-9.25a1.17,1.17,0,0,1,1.62.11c1.93,3.12,1.24,6.83,1.79,10.17,1.76,10.62,10.39,16.32,15.79,24.29C421.56,401.39,419.35,406.16,414.14,408.88Z"/><path class="cls-100" d="M466.73,179.7c7.61,8.62,18,14,25.72,22.6,1.46,1.62,3.27,3,4,5,2.21,6,7,10,10.5,15,1.69,2.47,1.79,2.4-1.18,5-1.26.1-2.67-.53-3.68.75l-4.65.56c-1.16.54-1.73,0-2-1.08,5.87-4.29,5.75-4.17-.14-9.6a79.58,79.58,0,0,1-9-10.35,57.91,57.91,0,0,0-13.62-13.12c-2.34-1.57-6-2.63-4.4-6.88-1,.14-2.09.43-2.19-1.16C466.57,184.23,465.07,181.82,466.73,179.7Z"/><path class="cls-101" d="M453.6,304.82c2.1-4.7,5.7-9,3.86-14.72.45-1,1.38-1.18,2.34-1.27,2.69-.32,5.08-2,7.91-1.75,2.66,1.85,3.12,4.23,1.69,7.06-1,1.54-2.21,3-3.38,4.41a86.23,86.23,0,0,1-6.6,5.77,6.67,6.67,0,0,1-3.31,1.49A3,3,0,0,1,453.6,304.82Z"/><path class="cls-102" d="M445.5,297.61c.48,4.69-4,6.46-5.91,9.8-5.33,9.48-9.55,19.6-16,28.48-1.28,1.78-2.17,3.83-4.64,4.26,6.33-11.47,12.57-23,19.07-34.39C439.88,302.58,442.09,299.47,445.5,297.61Z"/><path class="cls-103" d="M468.09,287.7c-2.76.45-5.37,1.9-8.29,1.13,8.76-4.78,17.72-8.95,28-9.22-1.52,2.4-4.36,2.74-6.51,4.16C477.57,287.43,473.37,289.37,468.09,287.7Z"/><path class="cls-102" d="M404.87,361.47h-1.16c4.23-7.75,9.67-14.64,15.32-21.37.69,2-.07,3.81-1,5.55a4.62,4.62,0,0,1-2.63,2.64h0c-1.52,3.4-2.42,7.15-5.46,9.69-1.16,1.3-1.92,2.95-3.5,3.87A1.45,1.45,0,0,1,404.87,361.47Z"/><path class="cls-104" d="M508.23,231.12c1.46.21,1.95,1.21,2,2.52a19.83,19.83,0,0,1,0,10.59l.05,1.36a15.57,15.57,0,0,1-1.41,11.8l-1.5-1.57C508.5,247.61,510.37,239.43,508.23,231.12Z"/><path class="cls-105" d="M391.69,385.16c-.13,2.52,1.49,5.25-1.28,7.46-2.06,1.64.27,3.59.81,4.5,3.54,5.95,5.19,12.33,6.5,19.06.6,3.1,3.8,5.69,5.82,8.5l-7.89,19.76c-1.09-5.75-.78-11.89-4.51-16.92-3.32-4.46-4-9.74-4.55-15-.37-3.5-1.12-6.71-4.13-8.93h0c1.62-1.45,2.47-3.1,1.35-5.26C386.52,394,387.39,388.55,391.69,385.16Z"/><path class="cls-78" d="M383.81,398.33c4.12,2.93,2.49,4.38-1.35,5.26A8.71,8.71,0,0,1,383.81,398.33Z"/><path class="cls-13" d="M552.38,142.81c10.14,5.89,11.64,17.41,17.12,26.34.27,9.44.29,9.47,8.65,4.72,2.05-1.16,3.06,1.36,5.46.71-5.76,4.66-1.11,6.33.71,10,2.89,5.86,7,10.67,10.2,16.17a105.87,105.87,0,0,0-15.65,1.1c-11.73,2-27-7.13-29.65-18.63-1.94-8.25-7.64-12.53-13.12-17.47a6,6,0,0,0-3.55-1.61c-10.42-.1-19.74-4.62-29.55-7.17-8.05-2.1-15.72.83-19.11,6.9-8.51,6.45-14.49-.6-21.15-4l-1-2.66c2.26-1.11,4-5.68,7.5-1.12a25.9,25.9,0,0,0-1-2.92c-1.44-2.9-4.55-5.12,2.44-6,3.72-.48,7.2-6,12.06-7.93,10.37-4.22,21-7.63,32-8.76,6.37-.66,11.66-1.4,16.19-6.1,1.73-1.79,6.71-.34,9.45,1.81.6.46,2-.23,3-.11,1.31.15,3.35,1.54,3,1.92-5.37,5.78,5.6,7.91,2.9,13.15C548.84,141.82,551,142.72,552.38,142.81Z"/><path class="cls-106" d="M495.76,227.11l1.7,1.55a47.43,47.43,0,0,1-18.72,5c-3.57.28-6.86-.64-7.38-4.71-.63-4.92-3.6-9-4.36-13.79-.67-1.28-1.62-2.45-1.69-4-.24-1.79-.85-3.68-2.46-4.37-7.22-3.08-4.81-7.7-2.23-12.44a2.76,2.76,0,0,0,.86-.08c1.37-.53,2.74-1,4.09.08,8.88,6.1,16.44,13.42,21.74,22.92,1.08,1.94,3.06,3,4.81,4.34S496.52,224,495.76,227.11Z"/><path class="cls-107" d="M462.74,159.92a11,11,0,0,1,6.67,1.78c2.69,1.79,5.41,6.69,9.57,1.41.51-.63,3.22.47,4.91.77,2.6,2.2,5.58,2.79,9,2.7,7.54-.2,15.09-.06,22.64-.06.71.74,2.15,1.12,1.32,2.63a12.65,12.65,0,0,0-7.36,2.27c2.42,1.69,4.94-.21,7,1.46,3.31,2.62,10,1.18,10.79,6.05,1.22,8.14,4.49,16.27,1.93,24.8-1.76,5.89-3.61,11.7-1,18.1.9,2.23-.65,5.45-1.08,8.22h-.49l-.49.05c-4-6.1-2.93-12.82-2.08-19.39.67-5.2,1.59-10.35,1.47-15.63-.29-12.06-7.31-19.64-19.34-18.63-15.55,1.3-28.51-4.55-41.18-12.13-1.24-.74-2.94-1.25-2.47-3.31A.86.86,0,0,1,462.74,159.92Z"/><path class="cls-108" d="M462.54,161c6.79,3.73,13.2,8.09,20.56,10.86,7.77,2.92,15.59,3.11,23.71,2.67,11-.6,18.9,6,20.36,16.82a35.78,35.78,0,0,1-1.09,15.55,39.67,39.67,0,0,0,.06,23.19c0,1.91.05,3.81.08,5.72l-.24,3.13c-4.31-5.93-3.45-13.27-3.41-19.58,0-8.11-1.79-16.4.63-24.56,1.22-4.1-.21-7.63-4.34-9.86-7.21-3.89-14-8.59-23-6.69-4.63,1-9-1.63-13.16-3.37-2.28-.94-4-3.77-6.88-1.17-1.69-3-5.64-2.22-7.65-4.51C467,167.84,466.09,166,464,167s-1,3.1-1.18,4.76c.58,1.74,2.32,3.47.06,5.24C460.55,171.73,461.23,166.37,462.54,161Z"/><path class="cls-109" d="M464.13,194.16c-.88.11-1.69,1.48-2.65.15,1.93-4.67,5.41-9.05,2.81-14.59l2.44,0c0,2.63,0,5.25.08,7.88C467.46,190.41,466.33,192.5,464.13,194.16Z"/><path class="cls-110" d="M465.31,211.2c1.32,1,2.51,2.07,1.69,4C464.92,214.5,463.78,213.42,465.31,211.2Z"/><path class="cls-10" d="M595.92,211c-2.88-1.84-5.18-2.82-4.72-5.69a1.82,1.82,0,0,1,2.47-1.38C596.59,205.15,595.63,207.71,595.92,211Z"/><path class="cls-107" d="M522.08,169.15c1.43.21,3-.53,4.67,1.18-2.52,1.09-4.78,3.69-6-1.18A.85.85,0,0,1,522.08,169.15Z"/><path class="cls-13" d="M522.08,169.15h-5.26l-1.32-2.63C517.55,167.75,521.69,163.78,522.08,169.15Z"/><path class="cls-111" d="M497.06,869.88l1.33-1.34c3.81-.34,1.84-3,2.08-4.92.72-5.71,1.9-6.32,7.71-3.93,1.29-7.12,6-11.22,12.44-13.54,1.32-.48,2.84-.82,2.61-2.32-.72-4.66,2.74-7.27,5.72-6.86,3.48.48,2.06,5,2.35,7.87-.47,1.79,1.52,5.76-3.3,3.67-2.26-1-3.11.65-4,2.24-2.68,5-5.19,9.4-11.57,11.46-2.74.88-6.29,4.69-9,7.78C502,871.65,499.06,875.21,497.06,869.88Z"/><path class="cls-19" d="M411.18,642.72c1.05-1.33,2.22-2.16,3.86-1.32.32.17.48,1.42.39,1.46A4.21,4.21,0,0,1,411.18,642.72Z"/><path class="cls-49" d="M312.75,486.43c-.42,1,.68,2.65-1.2,3-.24.05-.76-.43-.87-.75-.62-2,1-1.91,2.13-2.23Z"/><path class="cls-58" d="M524.72,262.67a10.88,10.88,0,0,1,1.31-6.59c1.8.8,4.05.68,5.27,2.63,10,15.08,22.89,27.93,33.39,42.62,3.26,4.57,4.91,9.89,6.13,15.34-2.9,4.55-5.5,4.76-7.74.26-1.75-3.51-3.33-7.1-5.24-10.56a22.38,22.38,0,0,0-7-7.46c-5.9-4.26-8.9-11.17-13.53-16.65-2.81-3.32-4.87-7.14-8.59-9.78C525.53,270.25,524.37,266.62,524.72,262.67Z"/><path class="cls-112" d="M524.72,262.67c6.43,12.43,18.26,20.94,24.42,33.58,9.54,3.47,12,12.2,15.32,20.38,1.82,4.47,4.21,2.23,6.36,0V318q2,5.94,3.95,11.86c-7.11,2.42-8.65-4.31-11.36-7.79-2.54-3.28-4.75-7.07-7.08-10.65-7.58-5.95-12.93-13.64-17.28-22.12a12.13,12.13,0,0,0-2.41-2.95,204.07,204.07,0,0,1-20.3-23.86c-2.08-2.78-6.85-.75-7.43-5.08l1.41-11.8c2.47,2.27.35,5.49,1.65,8,2.91-2.07,6-6.11,6.7,1.77C519,258.58,521.75,261,524.72,262.67Z"/><path class="cls-113" d="M645.85,877.77l.12-2.47c4.71-7.78,9-15.77,13.3-23.8l-.06.07a179.76,179.76,0,0,0,6.5-18.61c2.53-8.63,5.8-17.11,5.31-26.35-1.4-2.46-.74-5.13-.65-7.69a163.91,163.91,0,0,0-10.8-64.64,38.69,38.69,0,0,1-1.63-6.9,5.25,5.25,0,0,1,.38-1.87,2,2,0,0,1,1.47-1,2.65,2.65,0,0,1,1.49.93c1.34,1.31.54,3.41,1.73,4.78q4,13.18,7.91,26.35c1.7,11.81,3.58,23.6,4,35.56,0,9.74-1.76,19.32-2.65,29-1.86,17.47-7.74,33.38-18.45,47.41C650.65,871.19,649.87,875.87,645.85,877.77Z"/><path class="cls-114" d="M660.39,726.28c0-.44,0-.87,0-1.3-1.22-4.76-3-9.48-1.32-14.49,4.73-.17,3.28-4.71,3.62-6.65,1.53-8.78,1.78-17.79,8.51-24.79,1.66-1.73,1-4.18,1-6.33.65-17.53-1.61-35-1.72-52.45,0-.83-.44-2,0-2.42,8-8.07,5.65-16-.05-24-.16-.22.13-.76.28-1.48,4.21,1.67,6.34,5.08,8.12,8.83-2.12,2.56-.27,4.14,1.66,5.08,3.78,1.84,3.84,6.93,7.8,8.53a1.88,1.88,0,0,1,0,1.61c-6,4.63-1.44,8.75.77,12.74,1.87,3.39,2.72,6.24-.42,9.37-3.61,3.6-3.1,9-2.8,12.94.92,12.27-.84,24.39-2.36,36.25a70.66,70.66,0,0,1-7.56,24.41c-2.49,4.62-1.33,10.9-4.91,15.73-1.23,1.67-1.95,2.65-4.62,1.92,1.73-2.56,3.35-4.94,4.94-7.34.75-1.15,1.32-2.55-.2-3.36-1.14-.6-1.95.54-2.57,1.46-1.16,1.73-1.41,4.33-4.25,4.47C663,725.25,662.13,727.12,660.39,726.28Z"/><path class="cls-115" d="M660.39,726.28c1.42-.13,1.6-4,3.94-1.3L663,730.24Z"/><path class="cls-56" d="M653.78,868.53c2.88-8.86,8.69-16.31,11.68-25.26,2.45-7.34,3.24-15.17,6.77-22.15,1.66.53,2.64,2.77,5.16,1.08,2.91-2,6.08-1.8,8.86,1,1.12,1.14,3.77,2.67,4.46.66,2.2-6.47,9.9-8.38,11.62-15.31,1.27-5.09,10.07-9.91,16-9.86-.93,3.3.43,7.86-5.1,8.6a2.14,2.14,0,0,0-1,3.24c1.3,1.5,2.33-1.94,4.31-.11-1.26,2.16-1.35,5.2-5.64,5.11-2.19,0-1.6,2.61-1.76,4.24-1.08,3.6-7.51,5.34-3.27,11.06,1.15,1.56-3.29,1.82-4.94,3.76-3.47,4.11-5.29,10-11.08,12.08-3.74,1.37-2.3,6.88-6.14,8.39,2.79,4.86-1,2.16-2.7,2.59-6.1,1.55-12.16,3.4-15.46,10-2.13-1.12-.33-3.83-2.54-5.24C659.91,864.05,661.43,874,653.78,868.53Z"/><path class="cls-56" d="M712.15,820a8.75,8.75,0,0,1-1.79,1.51c-.78.38-1.1-.35-1.19-1-.18-1.34,1.14-1,1.74-1.45S712.11,818.77,712.15,820Z"/><path class="cls-116" d="M649.84,700c.69-10.64,9.14-18.68,9.72-29.48.23-4.31,1.86-8.32-1.22-12.4-2.3-3.06.22-6.7.15-10.11-.21-10.73-3.81-21-3.43-31.77.22-6.4,1.75-13-2.31-19-.6-.89,0-2.12,1.12-2.94,2.32,0,1.7,3.38,4,3.59,1.92-1.06.85-3,1.16-4.6,4.05.38,4.65,3.36,3.67,6.18-1.34,3.88-.33,8.26-3.15,11.87-1.29,1.65-.56,4.07.64,6.17,3.73,6.53,5.6,13.42,4.23,21.1a17.47,17.47,0,0,0,1.09,10.3c5.24,11.58,3.1,22.79-1.64,33.94-2.45,5.76-3.34,12-5.78,17.9-.5,1.2,1,5.52-.38,8.44-3,2.05-3.64-1.75-5.62-2.25-1.61-.73-3.11-1.58-3.6-3.48,0-.29,0-.58,0-.87Z"/><path class="cls-115" d="M652.47,705.22c3-.39,2.24,4.33,5.27,3.95l1.32,1.32c1.06,4.77,2.73,9.49,1.32,14.49l-1.23,0c-3.27-4.1-4.85-9.1-7.26-13.65A5.07,5.07,0,0,1,652.47,705.22Z"/><path class="cls-72" d="M663.05,589.9c-3,.41-4-.85-4.47-2.65-.07-.27.93-1.19,1.25-1.1C661.43,586.58,662.19,587.86,663.05,589.9Z"/><path class="cls-117" d="M648.38,856.72a46,46,0,0,1-9.27,15.7c-2.24.36-2.87-1-3-2.85,3.35-7.52,2.14-13.84-3.23-20.45-4.48-5.51-7.15-12.52-10.22-19-1.68-3.58-3.14-7.27-5.62-10.35-7.46-9.25-10.25-20.67-14.93-31.23-3.68-8.29-8.14-16.29-12.53-24.18-3.73-6.69-7.24-13.46-10.6-20.32-.76-1.57-1.06-3.49-2.3-4.7-4.82-4.73-6.26-11-7.3-17.15a25.87,25.87,0,0,0-5.54-12.29,26.71,26.71,0,0,1-4.11-8.21c-7.54-22.39-18.26-43.63-24.35-66.56-.85-3.19-2.08-6.35-1.65-9.65,1.25-9.65-4.59-16.26-9.62-23.25-5.9-4.21-6.06-4.8-2.16-8.33,6.37,2.62,11.86,6.37,15.68,12.27,5.38,5.91,4.55,14.62,9.41,20.77a5,5,0,0,1,1,4.35c-2,8.8,2.07,16.23,5.22,23.88,5.33,12.94,11.67,25.48,16.74,38.47,8.87,22.72,18.17,45.18,29.78,66.64a37.86,37.86,0,0,1,3,8c1.56,5.54,3.5,10.86,8.3,14.57a6.83,6.83,0,0,1,2.46,3c5.27,16.13,15.18,29.94,22.41,45.08,3.71,7.78,9.12,15,9.9,24.06C646,856.26,647.49,856.18,648.38,856.72Z"/><path class="cls-118" d="M648.38,856.72c-1.31.71-2.85,2.24-3.88,1.95-2-.56-.59-2.71-.49-4,.3-4.08-1.54-7.85-3.1-10.93-7.76-15.34-17.17-29.87-24.44-45.42-7.42-15.89-16.17-31.08-23.23-47.19-5.28-12.06-11.1-24-16.45-36.07s-9.59-24.92-15.38-36.93c-5.34-11.1-9.5-22.67-14.32-34-1.11-2.61-2-5.33-1.15-7.56,2.88-7.71-4.38-12.34-5.2-18.86-.15-1.21-.24-2.08,1.27-2.7-1.62-3.11-7.5-3.74-5.27-9.11,4.91-.28,7.48,2.89,9.71,6.57,1.24,7,8.08,10.92,9.75,17.69-.39,16.1,5.83,30.24,13.12,44.06a9.94,9.94,0,0,1,1.12,2.38c3.13,14.44,10.41,27.3,17.08,40.1s12.3,26.21,18.62,39.16c8.5,17.42,16.48,35.31,25.45,52.41,5.69,10.86,9.95,22.22,15.49,33,2,3.83,2.36,7.84,2.6,12,.12.28.23.56.34.84Z"/><path class="cls-119" d="M662.68,814.41c.48,1.6-.73,2.7-1.17,4a2,2,0,0,1-1.81.37c-5.58-1-7.41-4.76-9.1-9.91-4.51-13.76-11.37-26.48-18.63-39-6.22-10.77-12.54-21.64-16.73-33.45-3.77-10.63-10-20-14.5-30.27A125.92,125.92,0,0,1,594,688.39c-.17-.64-.13-1.52-.56-1.87-7.86-6.43-6.51-16.62-10.19-24.75a57.05,57.05,0,0,0-4.84-8.57c-3.07-4.49-2.35-11.15,1.21-14.55,5.21,1.45,8.44,5.31,11.44,9.45-.11,2.68-2.85,6.15,2.35,7.21A2,2,0,0,1,594.7,658c-1.66,4.11.6,7.46,2.5,10.44,3.47,5.48,3.5,12.13,6.37,17.55,4.65,8.76,7,18.53,13.51,26.56,4.47,5.56,4.37,13.62,7.29,20.24,6.58,7.78,8,18.36,14.39,26.29,2,2.54,1.56,6.29,3.58,9.09,3.28,4.57,4.84,10.19,9.24,14.18,3.16,2.86,3.85,7.26,4.52,11.53,2.48.34,1.81-4.09,4-2.83,2.54,1.45,2.75,4.52,2.39,7.07C661.74,803.61,661.18,809,662.68,814.41Z"/><path class="cls-120" d="M604.07,908.24a10.81,10.81,0,0,0-6.92,2.44c-3.86-1.61-2.35-4.11-.31-5.5,2.83-1.92,2-3.8.34-5.21-8.62-7.06-7.61-18.2-11.57-27.21-1.4-3.18-2.08-6.46-4.88-8.91a14.73,14.73,0,0,1-4.64-7.78c-.25-1.06-.22-2.78-1-3-8.68-2.57-3.79-9.5-4.59-14.48-.3-1.86-.12-3.87-.72-5.76a10.76,10.76,0,0,1,0-3.92c1.7-2.85.27-6.81,3.27-9.2a2.76,2.76,0,0,1,3.78,1.64c1.94,7.32,9.24,12,10.41,19.16,1.52,9.26,8.3,15.18,12.1,22.91,4.56,9.28,6.67,19.72,13.66,27.93,2.18,2.57-2.12,4.68-3.06,7.23,2.88-.9,4.87-4.8,8.56-2.26C614.36,901.09,609.77,905.34,604.07,908.24Z"/><path class="cls-121" d="M618.51,896.31c-4.8-.13-6.92,5-11.27,5.77a2.43,2.43,0,0,1,.62-3.92c6.14-3.78,2.91-9,.23-11.51-5.25-4.89-4.17-12-8-17.33-3.39-4.76-4.46-11-8.9-15.41a13.79,13.79,0,0,1-4.52-9.91c.08-5-6.84-7.2-3.93-12.54-3.08-1-2.35,2.25-4.71,2-1.79-4.28,1.16-10.64-4.6-13.7a55.06,55.06,0,0,1-2.21-22c2.84-3.57,5.06-3.07,6.25,1.2,2,7.17,7.11,12.78,9.67,19.64,3.89,5.5,7.64,10.94,9.56,17.67,1.56,5.5,6.5,9.41,8.47,15.12,2.23,6.45,7,11.82,8.45,18.82.75,3.72,4.71,5.89,5.37,10.17.45,3,1.46,5.79.49,9,3.69-.57,4.93-6,9.3-3.66A52.31,52.31,0,0,1,618.51,896.31Z"/><path class="cls-122" d="M628.8,885.69c-3.55.13-4.86,3.39-7.23,5.16-.92.69-1.56,2.59-3.08,1.4a3.29,3.29,0,0,1-1.08-3.53c1.62-5.82.6-10.84-4.5-14.63-.48-.36-1.11-1.18-1-1.61,2-7.09-3.88-12-6.48-16.88C603,850.91,602,845,597.2,840.8c-4.33-3.83-3.62-11.69-7.93-16.55a26.58,26.58,0,0,1-2.65-4.44c.64-3.48.56-7.12,2.19-10.39,2.92-1.28,3.84,1.17,5,2.85a45.4,45.4,0,0,1,5.06,9.12c4.89,12.64,11.88,24.23,18.69,35.84,2.76,4.7,2.77,10.64,7.11,14.42,3.25,1,9.88-1.12,4.8,6.68,3.9-1,4.13-6.64,8.65-4.46A43.17,43.17,0,0,1,628.8,885.69Z"/><path class="cls-123" d="M663.91,806.56l.33,2.53-1.56,5.33c-3.24-4.17-3.24-9-2.11-13.69.77-3.19.32-5.87-1-9.12-.23,1.07-.36,1.68-.5,2.3-.35,1.52.86,4.1-1.78,4.13-1.9,0-2.84-2.33-3-3.93-.34-4.24-1.07-8.54-4.42-11.13-4.86-3.76-6.17-9.49-9-14.31a195.23,195.23,0,0,1-10.69-21.9c-1.56-3.65-2.7-7.37-6-9.88-1.49-1.13-1.59-2.47-.72-4,3.18-1.82,4.75.75,6.43,2.53s3,4.19,5.34,5.53c4.33,3,6.17,7.43,8.35,12.11,4.44,9.58,7.54,19.87,14,28.46.11.15-.27.61.52.52,4.58-.5,4.63-.43,4.83,3.88.11,2.4-.05,4.81.67,7.16C663.82,797.57,663.33,802.07,663.91,806.56Z"/><path class="cls-124" d="M638.1,873.87c-3.22.12-3.64,3.45-5.65,5-1.26.95-1.75,3.8-3.84,2.26-.92-.68-1-3.22-.61-4.7.27-1,3.22-1.35,1.34-3.15-1.55-1.5-2.21.61-3.37,1.27-2,1.13-.6-1.36-1.15-2-2.21-2.63-2.91-6-3.43-9.12-1.3-7.83-5.75-14.08-9.27-20.83a82.62,82.62,0,0,1-8.76-25.46,4.47,4.47,0,0,1,3.91-1.06c3.29,1,4.67,3.68,5.63,6.67.41,3.15,0,6.55,2.78,9a10,10,0,0,1,1,1.44,29.68,29.68,0,0,0,5.8,8.57c3.47,5,8.23,9.25,8.71,15.87a2.2,2.2,0,0,0,1.36,2.11c6.12,1.52,5.05,5.87,4.13,10.2l2.44,2.56Z"/><path class="cls-125" d="M660.35,818.47c.39,0,.78,0,1.16,0-1.31,12.71-5.51,24.5-11.49,35.72l-.4-.21c-1.92-3.06.08-5.9.94-8.52,1.4-4.27,2.52-8.58,3.49-12.94,2-3.91,1.87-8.53,4.16-12.36C658.75,819.23,658.78,817.93,660.35,818.47Z"/><path class="cls-126" d="M556.33,311.4c3.72,1.5,5.25,4.73,6.88,8.11,2.38,4.95,5.17,9.74,11.56,10.33,8.27,11.11,16.32,22.41,25,33.22,2.2,2.74-.21,4.59.08,6.89.82,6.36,7.9,10.74,5.24,17.84-.6,1.85-1.48,3.92-.53,5.63,2.24,4,1.89,8.6,3.16,12.81v1.32l-7.19,1.7c-1.81-2.2,1.1-6.27-3.29-7-.35-.27-.47-.54-.37-.83s.2-.44.31-.44c.39-2.65,3.25-5.29,0-7.95,3.53-3.92,2.5-8.81.53-12.22-6.46-11.14-10.83-23.3-17.31-34.38-4.38-7.5-11.5-12.92-15.73-20.64C562,321,557.3,317.27,556.33,311.4Z"/><path class="cls-60" d="M607.69,406.23c-1.75-4.73-3.67-9.41-5.17-14.22-.55-1.8-.2-4,2.54-4.22C609,393.51,610.2,399.6,607.69,406.23Z"/><path class="cls-64" d="M575.82,435.06a144.09,144.09,0,0,1,16.34-19.56c.85.58,2.27,1.71,1.13,2.29-5.09,2.61-5,7.84-6.67,12.15l-.45,0,.19.39.26-.37c2.56-1.12,7-2.22,7.47-.29,1.25,4.74-5.07,1.37-6.44,4.66,2.67,3,8.28-3,10.1,3.18.74,2.51-1.19,2.93-1.91,4.3-.68,1.87-1.53,1.82-3.38,1-2.37-1-6-3.89-6.66,2.07-.09.74-1.92.08-2.37-1.09A17.54,17.54,0,0,0,575.82,435.06Z"/><path class="cls-127" d="M594.17,412.75a17.13,17.13,0,0,0,1.2-11.74h1.78a7.67,7.67,0,0,0,.05,1.27C596.31,405.81,599.34,410.46,594.17,412.75Z"/><path class="cls-128" d="M529.16,474.59l7.58,7q3.85,4.47,7.72,8.95c.07,2.66,1.88,4.08,3.88,5.36a2.51,2.51,0,0,1-1.33,2.62,3.21,3.21,0,0,1-3.1-.47C533.65,491,522.57,485.25,512,478.64a9.38,9.38,0,0,1-2.76-3.77c-.78-2.95,0-6.1-3.21-8.65-2.12-1.67-1.29-5.15,2.48-5.43,2-.15,3.87-.1,5.67-1,3.26-.13,4.34,2.66,5.82,4.65A76,76,0,0,0,529.16,474.59Z"/><path class="cls-70" d="M552.38,929.13c-5.43,2.76-11.29,2.68-17.14,2.65a11,11,0,0,1-6.57,1.3c-1.58.65-2.34-.61-3.35-1.38-1.62-1.25-4.47-1.61-3.72-4.61.64-2.53,2.76-3.18,5.1-3.28-7.53.28-11-3.42-11.21-11.81a27.71,27.71,0,0,1,7.92-5.26,37.14,37.14,0,0,1,11.85-2.64,18.14,18.14,0,0,1,12.12,18.81C547.08,926,546.8,930.23,552.38,929.13Z"/><path class="cls-129" d="M581.35,919.92c-2.2,2.43-7.11.59-8,5.06l-5.61-1.78c1.17-3,5.15-1.47,6.32-4.63-.61-2.44-4.75-.51-5.3-3.35-.61-3.17,2.94-2.6,4.34-4.62-2-1.83-3.7-1.19-5.62.12-3.75,2.58-5.75,3.61-6.67-3a26.94,26.94,0,0,0-8.21-15.9c-3.2-3-3-5.35.68-7.7s3.54-5.53,1.76-9c-.87-1.75-1.78-3.52,1.31-4,2.81,1.16,2.24,4.09,3.34,6.06,5.69,10.27,10.3,21.12,16.86,30.93,2.63,3.93,4.06,6.17,6.65,6.84-1.19,2.52-4.08,1.65-6.07,3Z"/><path class="cls-130" d="M556.32,871.17c-1.55,1-1.26,2.51-1.31,4-7.37,4.52-9.68,13.5-16.38,18.62-.29.23-.59,1-.46,1.14,4.35,4.77-1,6.44-2.91,9.21-1.59,1.71-8.5,3.25-11.85,2.64.55-2.34,4.21-2.45,3.87-5.43,12.22-10.71,22.86-22.74,30.28-37.31,4.75-9.34,9-18.92,9.57-29.62l1.13-1.38c3.49.49,1.48,3.18,2,4.88-1,3.23-.34,7.07-3.37,9.59Z"/><path class="cls-131" d="M566.85,847.47a37.58,37.58,0,0,1,2.64-10.54c.69-1.23.32-2.83,1.34-3.95,2.67,5.65.76,11.47.73,17.37,4-2.15,6-.9,5.84,3.67-.06,1.81,0,3.75,1.54,4.83,7.83,5.5,7.22,15.24,11.58,22.41,1.64,2.71.62,5.4,1.26,8.06,1.2,5,5.79,7.07,7.85,11.23,1.37,2.77,1.78,3.77-1.29,5.06-2.22.93-3.61,2.73-1.19,5.07-3.53,2.3-2.81,1.53-5.43-.9a32.91,32.91,0,0,1-6.91-8.19c-2.45-4.34-5.46-8-3.13-13.32.59-1.33-.47-2.08-1.55-2.35-9.47-2.39-8.84-11.39-11.2-18.06-.76-2.14.82-5.35-1.69-7.58a2.55,2.55,0,0,1-.65-1.6C571.74,855,566.88,851.19,566.85,847.47Z"/><path class="cls-69" d="M515.49,912c.39,3.69,3.62,5.89,4.91,9.33,1.24,3.29,6.14.25,9.55.09.42,2.75-1.55,3.24-3.29,3.64s-3.68.31-4.1,2.44c-.53,2.69,2.32,1.86,3.39,2.92l2.72,2.66c-7.81,2.92-15.89.79-23.84,1.23-4.81.27-9.83.89-14.52-1.66,1.79-2.14,3.92.73,5.62-.86-.35-3.51-5.66,1.14-5.45-3.32.14-3.18,1.85-4.68,4.77-5.54,1.59-.47,2.88-2.14,4.47-2.45C505.89,919.26,509.33,913.11,515.49,912Z"/><path class="cls-132" d="M572.11,522.14c2.24-3.91-4.62-3.43-2.85-7.87,14.39,10.53,29.82,19.22,43.7,30.26,0,2.85,2.1,5.11-.49,8.71-3.11,4.32,4.66,7.24,5.58,7.4,7.88,1.34,5,8.23,5.56,11.75,1,6.92,3.56,12.57,7.06,18.41a56.42,56.42,0,0,1,7.94,23.78c.46,4.75,2.22,9.43,2.28,14.15.15,10.88,1.9,21.66-.14,32.71-1.11,6-1.19,12.59-1.35,18.85-.07,2.53-2,4.18-1.41,6.48-4.07-.58-5.29-3.81-6.53-7,0-2.19-.64-3.94-3-4.67a3.59,3.59,0,0,1-.54-1.74c1.67-11.32,3.27-22.23.62-34.06s-6.23-23.54-8.45-35.3c-2.09-11.07-9.07-19.1-12.55-29.08-1.66-4.75-2.14-9.63-3.77-14.28-1.27-3.62-2.08-7.27-7-7.24a3,3,0,0,1-3.23-2.69c-.53-9-9.17-11.11-14-16.46C576,530.87,572.33,527.57,572.11,522.14Z"/><path class="cls-133" d="M632.72,678.88c.42,3.52,3.46,5.29,5.27,7.89a102.35,102.35,0,0,0,10.52,15.8l0,0a2.31,2.31,0,0,1,.27,2.67c-3.77.58-4.64-2.7-6.15-4.85-4.66-6.62-8.82-13.61-14.77-19.23-1.43-2.42-3.29-4.61-4-7.42a3.42,3.42,0,0,1,.81-2.65c3.62-1.17,2.85,2.39,4.1,3.79h0A5.52,5.52,0,0,1,632.72,678.88Z"/><path class="cls-134" d="M572.11,522.14c2.73,3.45,4.25,7.79,7.9,10.55,1,2,3.6,3,3.81,5.65,0,2.41,0,4.82,1.12,7,3.32,6.49,5.08,13.49,6.64,20.57.6,2.76,1,5.63,3.46,7.61.85.69,1.84,1.88,1.34,2.8-3.42,6.32,1.34,13-1,19.35a5,5,0,0,0,.6,4.45c6.76,10.25,4.37,21.73,3.67,32.66-.46,7,.7,12.47,5.78,17.13a6.71,6.71,0,0,1,1.7,3.55,3,3,0,0,1-.63,1.82c-6.5-1.73-10.33-6.84-14.5-11.51-1.16-4.46-6.67-5.51-7.87-10-.71-3.9-2.45-7.44.42-11.72,1.91-2.84.37-7.24-.14-10.92a87.39,87.39,0,0,1-1.06-17c.41-7-2.83-13.17-6.21-19-1.71-3-2.93-5.82-2.44-9.27.22-1.51.68-3.27-.4-4.45-4.53-5-4.95-10.8-4.65-17.13.08-1.87-3.07-2.8-4.27-5.22-2.75-5.52-3.48-12.31-9-16.29a4.53,4.53,0,0,1-.7-5.36c1.74-3.38-1.23-2-2.38-2.52a2.31,2.31,0,0,1-1.33-1.16c.07-3,1.34-6.05-3.39-7.38-2.74-.77-1.69-4.29-1.43-6.75,7,4,12.77,9.63,18.13,15.56C567.45,517.67,569.3,520.36,572.11,522.14Z"/><path class="cls-135" d="M547.13,499.69c1.31,3.06,2,6.07,5.87,7.8,2.77,1.26.15,4.47-.62,6.75-7.11-2.88-13.76-6.49-19.21-12-6.43-4.86-14.65-7.84-17.2-16.8-.53-1.83-2.77-1.91-4.53-2-1.94-.12-3.91.39-5.84-.4-7.09-2.94-8-3.27-2.64-9,4.2-1.44,6.49,2.58,9.88,3.45,11.49,6.86,23.42,13,34.17,21.06A7,7,0,0,1,547.13,499.69Z"/><path class="cls-136" d="M482.59,623.44l-1.31-1.36c-1.29-5.31-7.64-7.21-8.59-12.76,2-7.14-1.08-14.17-.38-21.39.46-4.77-5.23-7.29-6.72-11.68-2.32-8.9-2.72-18.29-7-26.72a20.49,20.49,0,0,0-2.93-5,45.16,45.16,0,0,1-8-12.62c-2-4.43-3.49-9.41-8.54-11.84a4.66,4.66,0,0,1-2.4-4.45c.59-6.27-3.36-10.06-7.15-14-3-1.36-5.51-3.48-9.22-3.32-2.64.11-2.66-2.72-2.13-4.46.77-2.5.78-4.57-1.07-6.51a34.24,34.24,0,0,1,2.22-11.15c1.24-1.84.61-6,3.67-5.27,4.05,1,8.61,2.45,10.27,7.21,1.58,4.52,2.74,9.18,4.17,13.75a23.29,23.29,0,0,0,3.08,6.51,9.46,9.46,0,0,1,.86,1.6c1.37,3.19,1.75,7,5.47,8.72,4.39,4.66,6.19,10.86,9.64,16.1s6.72,10.62,11,15.31c2.59,5.57,9,8.67,10,15.24,1.39,1.62-5.69-.17-1.1,2.78,1.35.87,2.45,2.39,2.28,3.83-1.23,10.51,5.83,19,6.76,29.08.29,3.19,1.44,6.37,1.36,9.69.53,5.41-.31,10.76-.81,16.11C485.81,619.38,485.07,621.93,482.59,623.44Z"/><path class="cls-137" d="M482.59,623.44c3.06-7.17,2.73-14.73,2.61-22.27,5.1,2.19,7.2,5.48,4.66,11.06-1.16,2.54-3.28,6,2.5,6.42,1.74.13,2,2.63,2,4.41.08,3.62,2,6.07,5,7.83,2.93,2,2.95,2,.59,5.11-.18.25-.53.28-.13.33,2.81.32,1.8,3,2.79,4.46,6,8.75,11.73,17.72,17.66,26.54,1,1.45,1.92,2.89,2.91,4.31a13.82,13.82,0,0,1,.94,1.45,26.07,26.07,0,0,0,2.21,3.5,14.48,14.48,0,0,1,.93,1.38c1,1.72,2.19,3.3,3.31,4.94q7.65,13.83,15.23,27.71c7.52,15.86,15,31.73,19.67,48.75.63,5.65,3.51,10.69,4.45,16.25.07.65.09,1.31.12,2,1.4,6.54,5.13,12.83,2.13,19.84-1,7.55,3.33,14.78,1.31,22.39-1.4,2.93-.5,6.51-2.62,9.24-2.55.13-2-1.36-1.47-2.82,3-57.5-20.27-106.47-49.9-153.39C508.46,655.4,495.12,639.73,482.59,623.44Z"/><path class="cls-138" d="M473.35,609.07c1.66,4.94,8,7,7.93,13l-37.86-42.14c-8-11.43-17.1-22.16-22.79-35.13-10.2-23.24-9.79-46.63-1.41-70.21.82.15.95,1,1.45,1.45A30.85,30.85,0,0,0,418,487.9c.62,8.09-1.15,16-2,24-.27.84.92.31.06.13-.21,0,0-.25,0-.66.13-2.55,1.19-3.3,3.2-1.53a5.89,5.89,0,0,1,1.61,5.48c-.8,5.12,2.89,8.84,4.65,12.84,1.22,2.77,2,4.39,1.05,7.3-2.05,6,4.65,8.57,5.92,13.39.29,1.11,2.3,1.75,2.46,3,1,7.46,4.44,13.62,10.9,18.92.84-.07,1.81-4.27,4.64-1.93,2.36,2,.58,4.14.23,6.46-.63,4.18,2.09,7.77,4.39,11,2.12,3,5.09,5.4,7.21,8.47C465.32,600,471,603.29,473.35,609.07Z"/><path class="cls-67" d="M569.36,826.23c.18,1.1.32,2.22,1.47,2.82V833c-.06,1.45.22,3-1.34,3.95-1.59-.94.92-3.16-1.23-3.93C568.27,830.69,567.91,828.31,569.36,826.23Z"/><path class="cls-139" d="M439.36,369.54l-3.74,5.24c-1.31.21-3.17-1.1-3.68,1.35-.36,1.72-.69,3.89-3,3.47-1.78-.32-1-2.56-1.54-3.88-1.11-2.78-1.66-5.77-2.78-8.53-4.6-11.32,1.85-20.58,5.61-30.29.58-1.51,1.8-2.85,2.55-4.45,1.46-3.13.81-7.47,6.9-8,2.13-.16,4.63-7.13,7.41-10.71,2.27-2.91,4.34-6,6.5-9l2.7,0a2.5,2.5,0,0,1,.61,2.51c-1.59,3.21-4.85,5.13-6.47,8.32a70.83,70.83,0,0,0-4.73,7.2c-1.2,2.34-1.81,4.92-3,7.25a18,18,0,0,0-2.12,5.88,25.16,25.16,0,0,0-1,5.77c-1.78,7.62-1.17,15.19.42,22.73A6.39,6.39,0,0,1,439.36,369.54Z"/><path class="cls-140" d="M427.29,387.83l-5.2,8c-10.7-9-18.81-19.25-17.22-34.38l1.3,0c1.75-.74,2.25-2.31,2.64-3.95l6.59-9.22c0,7.49.14,15-.07,22.47-.07,2.54,1.41,4.14,2.69,5.64C421.2,380.13,423.08,385,427.29,387.83Z"/><path class="cls-140" d="M415.4,348.28a4.56,4.56,0,0,1,2.63-2.64C419.38,348.74,418.52,349.64,415.4,348.28Z"/><path class="cls-42" d="M514.57,246.15v-9.74C515.26,239,517.85,241.36,514.57,246.15Z"/><path class="cls-141" d="M510.27,244.23V233.64A10.18,10.18,0,0,1,510.27,244.23Z"/><path class="cls-142" d="M535.2,357.5a3,3,0,0,0-.17,1h.06a7.73,7.73,0,0,1-4.67,2.58c-4.16,1.48-6.78,0-9.16-3.71C514.42,346.76,506.41,337,498.64,327S482.22,307.73,477,296c-.82-1.83-1.52-4.65-4.52-2.07-1.42.82-2.83,1.58-4.38.3,1.86-2.19.23-4.38,0-6.57,4.24-1.82,9.19-1.26,13.17-3.93-1.5,4.13,3.92,1.32,3.94,3.92,1.22.76,2,1.77,1.51,3.26-1.07,3.4.85,5.76,2.62,8.32,8.05,11.64,17.29,22.31,26.62,32.91,3.49,4,5.38,8.95,8.19,13.35A41.07,41.07,0,0,0,535.2,357.5Z"/><path class="cls-143" d="M535.2,357.5c-9.72-2.35-12.14-11.49-16.77-18.41s-9-13.76-15.58-18.87c-3.78-2.94-4.93-7.64-8.06-11.07-2.61-2.86-4.22-6.65-7.22-9.28-4-3.48-2.83-7.88-2.37-12.18,1.87.17,4-.39,4.63,2.4,2,8.46,9.61,13.06,13.89,20,5,8.1,12.08,14.61,16.63,23.27a85,85,0,0,0,17.74,23A3.3,3.3,0,0,1,535.2,357.5Z"/><path class="cls-144" d="M464.13,194.16l2.67-6.58c1,0,2.33-1.78,2.18-1.2-1.56,6.13,4.28,7,7,8.52,7.79,4.29,10.86,12.71,17.3,18.13,1.48,1.25,3.08,3.65,4.94,5.22,1.71,1.45,4.36,1.87,3.5,5.36s-3.44,3.29-6,3.5c-8.3-6-13.46-14.62-19.56-22.51C473,200.43,466.67,199.41,464.13,194.16Z"/><path class="cls-145" d="M456.22,307.41c0-.86,0-1.71.08-2.57l2.59-1.33c3.06-1.78,4.07.78,4.69,2.66,5.87,17.9,19.33,30.71,29.92,45.48,6.58,9.17,13.67,17.9,20.38,26.92-.62,3-3.74,4.71-3.87,7.92-2.54,2.25-4.42,2.84-6.68-.82-7.34-11.92-17-22.06-25.69-32.95-7-8.81-15-17.13-17.94-28.6-1.23-4.85-7.2-8.21-4.52-14.33A8.41,8.41,0,0,1,456.22,307.41Z"/><path class="cls-146" d="M513.88,378.57c-5.17-4.5-11-8.65-14.15-14.78-5-9.62-12.33-17.31-19-25.53-7.62-9.36-14.53-19-18.08-30.76-.57-1.87-1.21-3.86-3.73-4a13.92,13.92,0,0,1,6.52-5.31c4.09-1.13,4.32,2.73,5.6,4.71,2.8,4.39,4.5,9.36,7.43,13.78a367.73,367.73,0,0,0,33.84,43.67c2.83,3.11,2.17,8.62,7.06,10.33Z"/><path class="cls-147" d="M519.34,370.69c-2.19-.08-5.09,0-5.57-2.38-1.85-9.14-10.63-13.26-14.49-20.69-5.59-10.76-15.7-17.81-21.55-28.6-3.77-6.95-5.46-15.58-12.32-20.82a4.11,4.11,0,0,1,2.66-3.93l4-1.31a2,2,0,0,1,2.68,2c.36,6.09,4.1,10.34,7.55,14.81s6.28,9.41,9.41,14.09c4.4,6.61,10.18,12.31,15.2,18.55,6,7.46,11.87,15,17.31,22.88-.54,2.26-2.14,3.77-3.77,5.25C520.05,370.56,519.7,370.62,519.34,370.69Z"/><path class="cls-99" d="M408.81,357.5c1.45,2.87-.05,3.77-2.64,3.95Z"/><path class="cls-71" d="M648.29,705.53l.24-2.92c1.37.78,1.9,2.83,3.94,2.61-.43,4.63,2.09,8.12,4.33,11.81a16.24,16.24,0,0,1,2.35,7.92l-.18,1.48c-3.37-.32-2.33-3.79-3.87-5.42l-1.23-2.6C651.8,714.2,648.26,710.64,648.29,705.53Z"/><path class="cls-148" d="M607.69,817.17h-4c-6.3-5.71-8.84-13.82-13.17-20.78-5.1-8.18-8.64-17.1-12.36-26-2.34-5.61-7.75-9.49-10.08-15.22-2.72-6.67-7.36-12.18-9-19.76-1.36-6.33-6.13-12.28-9.57-18.29a16.36,16.36,0,0,1-1.91-3.42c-1.39-4.66-4-8.74-6.23-13-1.4-2.74-2.89-5.42-3-8.62-.11-2.83.78-5.76-3.44-7.18-2.16-.72-1.82-4.21-1.54-6.64.76-6.8-1.24-12.66-4.4-18.78-4.28-8.29-5.92-17.75-8.18-26.78-2-7.84-2.19-16.7-6.16-23.33-3.85-6.42-.18-14.81-6.85-19.78a2,2,0,0,1,0-3c1.88-1.5,3.76.2,5.65.22,3.91,1.39,7.58,3,8.37,7.76-4,4.3,1.5,4.53,2.83,6.55,6.37,8.61,5.72,19,6.81,28.78.59,5.33,1,10.27,4.75,14.63,4.23,4.92,4.48,11.29,4.58,17.44,0,2.26-.31,4.47,1.77,6,4.53,3.24,5.69,7.69,6,13.09.35,6.35,4.26,11.78,6.21,17.75,3.76,11.54,11.86,20.94,16.08,32.17,2.89,7.69,8.49,14.12,9.42,22.8.44,4,4,7.54,6.06,11.34,3.19,6,4.53,12.82,8.59,18.3,6.32,8.54,7.22,19.57,13.14,28.29A4.06,4.06,0,0,1,607.69,817.17Z"/><path class="cls-149" d="M607.69,817.17c.34-2.55-1-4.41-2.18-6.56-5.74-10.15-9.07-21.41-14.68-31.75-2.67-4.92-5.11-11.26-7.68-16.37-2.85-5.66-3.22-12.48-6.68-16.9-5.29-6.74-6-15-10.16-21.93-1.74-2.9-4.58-4.67-5.94-8.11-3.15-7.95-6.56-15.83-9.84-23.72-2.38-5.71-4.31-10.85-3.76-17a2.87,2.87,0,0,0-1.46-2c-7.28-3.86-6.69-10.54-6.48-17.23A14,14,0,0,0,534.61,645a13.12,13.12,0,0,1-4.47-11.64c.79-7.18-3.25-13.75-2-20.94.12-.76,1.58-5.56-3.32-4-1.28.41-1.07-1.56-.29-2.35,1.64-1.65.12-3.32.23-5,1-.32,2.72-1.18,2.88-.07.91,6.33,5.16,10.85,8.17,16a3,3,0,0,1,.29,1.87c-2.57,13.72,3.92,25.49,8.35,37.61,5.93,16.25,12.4,32.29,18.6,48.44a19.29,19.29,0,0,0,3.78,6.07c4.26,4.73,4.73,10.81,5.42,16.72.18,1.55.06,3.06,1.21,4.27,9.12,9.58,12.46,22.57,19,33.68,7.67,13.1,15.3,26.93,19,42.12.62,2.55,2.41,4.12,3.87,6,6,7.6,9.07,16.79,13.82,25.06,2.46,4.27,4.67,8.58,7.72,12.63,4,5.36,5.44,12.24-.15,18.28-1-3.56.63-9-6.07-8.57-.47,0-1.57-1.34-1.46-1.88,1.49-7.82-5-11.73-8.27-17.21-1.22-3.38-3.45-6.19-5.27-9.22-2.09-2.74-2.07-6.39-4-9.22C611.36,821,609.41,819.13,607.69,817.17Z"/><path class="cls-150" d="M545.92,612.93a185.5,185.5,0,0,1,20.78,15.94c1.58,8.1,3.88,15.93,8.53,22.88a3.61,3.61,0,0,1,.56,1.19c5.29,23.4,17.6,44,26.51,65.9,6.48,16,14.24,31.35,22,46.68,4.9,9.71,10.41,19.22,15.92,28.66,1.93,3.31,2.43,7,3.89,10.43a119.55,119.55,0,0,0,5.58,13.58,13.91,13.91,0,0,1,1,1.43,18,18,0,0,0,2.07,2.85c1.45,2.15,4.72,3.79,2,7.1-7.32-1.57-12.87-4.23-15.26-12.79-2.62-9.36-9.1-17.39-11.65-27-.42-1.57-2-2.23-3.38-3a7.28,7.28,0,0,1-3.79-4.36c-4-14.63-13.76-26.3-20.1-39.72-2.89-6.12-6.48-12-6.5-19.11a4.13,4.13,0,0,0-.52-2.55c-5.75-6.79-6.15-16.42-12.17-23-3.08-3.36-4.64-7.58-6-11.61-2.44-7.37-7.84-13.68-7.78-22,0-3.12-2.1-5.82-3.44-8.39-4.28-8.27-4.22-18-9.13-25.92-3.4-4.83-6.86-9.62-10.17-14.52C544.15,614.6,545,613.6,545.92,612.93Z"/><path class="cls-151" d="M555,630.14c3.42,2,5,4.74,5.49,9,1,7.64,4.09,14.73,8.06,21.38a3.72,3.72,0,0,1,.78,1.76c-.63,11.54,5.6,21.43,10.77,30.26,4.74,8.08,7.19,17.52,13.58,24.66a9.07,9.07,0,0,1,2.14,5.41c1,13.2,8.44,23.59,14.82,34.57,4,6.81,8.61,13.44,10.38,21.4.76,3.39,1.5,6.93,6,7.61,1.2.18,2.71,1,2.81,2.44.86,12.06,10.54,20.58,12.72,32.32,1,5.19,8.22,5.51,12.57,8.13a1.88,1.88,0,0,1,0,2.68c1.23,8.17-4.55,14.61-5.51,22.24-1.22-.09-3.72-.1-3-1.24,3.73-6.27-1.53-10.51-3.19-15.39-2.56-7.57-5-15.53-9.3-22.07-6-9-9.3-19.11-14.73-28.2-8.7-14.59-13.3-31.2-23-45.38-2.68-3.91-5.82-9.25-4.69-15.12a3.12,3.12,0,0,0-.41-2.47c-9.82-8.07-10-21.22-16.47-31-3.44-5.19-3.72-11.62-6.38-16.38-4.09-7.32-6.23-15.08-9.39-22.58C555.7,646.38,553.42,638.63,555,630.14Z"/><path class="cls-152" d="M655.13,831.71c0-.9,0-1.79,0-2.68.13-3.07-3-4.16-4-6.59.37-1.28-.32-2-1.32-2.63-.16-5.76-4.78-9.48-6.58-14.49-4.88-10.49-9.48-21.16-15.88-30.82-3.58-5.4-6.28-11.22-9.13-16.94-2.21-4.44-5-8.71-5.91-13.82-.72-4.14-4.37-6.85-6-10.56-4.47-10-8.52-20.28-13.28-30.18a80.35,80.35,0,0,1-6.32-18.43c-1-4.65-5.07-7.27-7-11.51a58.92,58.92,0,0,1-5.34-18.78c-.25-2.48-2.27-7.28-3.44-8-6.34-3.94-1.74-11.42-5.91-15.66,0,0,1.08-1.14,1.65-1.75a76.25,76.25,0,0,1,13.12,10.57c-.57,4.42-3.55,8.88,0,13.25,5.16,6.4,8.21,13.53,8.19,21.87,0,1.28-.11,3.11.64,3.75,10.46,8.94,10.61,22.53,15.61,33.92a7.24,7.24,0,0,0,3.07,3.22c3.34,1.76,4.65,4.32,4.39,8-.35,4.89,3.56,8.14,5.22,12.28,4.34,10.8,8.66,21.92,15.13,31.45,7.17,10.57,11.49,22.35,17.63,33.29.32.57.92,1.06,1,1.65,1.31,6.59,2.65,13.12,9.65,16.33C657.67,822.51,658.33,827.87,655.13,831.71Z"/><path class="cls-153" d="M590.55,648.57l2.57,1.38c2,1.73,4.53,3.07,4.75,6.19,1,4.16,2.07,8.29,6.54,10.27a2.35,2.35,0,0,1,1.06,2.43c-1.16,2.66-.53,5.13.75,7.55,4,7.67,6.49,16.23,12.95,22.5A6.67,6.67,0,0,1,621,703c1.28,11.12,5.93,21,11.23,30.64,1.37,2.51,3.86,5.07,1.79,8.43-4.49-2-4.8-8.69-10.54-9.22-3.08-2.16-2.71-5.86-3.66-8.85-3.61-11.41-11.26-20.76-15.67-31.66-1.76-4.36-5-8.26-4-14.19.54-3.16-3.67-7.45-5.65-11.28-1.84-3.56-3.72-6.67-.69-10-1.81-2.51-4.41,2.4-5-.87C588.41,653.72,586.94,650.29,590.55,648.57Z"/><path class="cls-154" d="M572.14,797.42c0-6.85-2-13.31-3.95-19.76,5.28-2.27,9-.49,10.34,5.34.77,3.41,3.21,6,4.29,8.66,2.31,5.71,7.17,10.77,6.44,17.61-.68,3.56,1.85,7.93-2.64,10.54-3.09-.16-3.12-3-3.48-4.79-.72-3.6-2.15-6.58-5.09-8.72-2.37-1.73-2-4.19-1.94-6.53C576.19,796.46,574.78,796,572.14,797.42Z"/><path class="cls-155" d="M589.26,809.27c-1.36-5.6-7.11-9.56-6-16.08-7.37-1.09-5-7.66-6.78-11.94-1.53-3.72-4.86-3.88-8.26-3.59v-1.32c2.07-3.18,2.67-6.26-.45-9.22-2.24-2.13-1.86-5.47-3.51-7.89-5.58-16.66-13.17-32.5-19.76-48.74,2.44-.82,3,1.13,4,2.63,4.34,4.14,5.15,10.54,8.93,14.78,3.6,4,4.35,8.27,4.3,13.14,0,.63.11,1.53.52,1.84,7.32,5.39,6.7,16.16,14.57,21.35,1.91,1.26,3,4.27,3.75,6.71,3.78,13,11.53,24,17.65,35.89,1.79,3.48,3.72,6.9,5.59,10.34,5,8.26,5.4,18.32,11.07,26.48a55.59,55.59,0,0,1,10,28.84c-2.18.1-3.15-.64-4.11-3-8.23-20.08-20-38.41-29.13-58.06C591.17,810.55,590.05,810,589.26,809.27Z"/><path class="cls-156" d="M626.38,686.22c12.28,14.72,21.32,31.28,28.12,49.14.92,2.42,2,4.78,3,7.17,2,9.9,6.41,19.34,5.52,29.77a4.19,4.19,0,0,1,.18,4.15c-4.34-.86-3.34-4.81-4.39-7.57-1.14-11.23-5.74-21.41-9.54-31.85-5.69-15.63-11.72-31.07-22.06-44.4C625.86,690.87,624.05,688.69,626.38,686.22Z"/><path class="cls-157" d="M663,776.33l.06-4c3,11.35,1.78,22.81.88,34.26-2-4.7-.39-9.63-.91-14.42C662.59,786.87,660.92,781.61,663,776.33Z"/><path class="cls-158" d="M663,776.33l0,15.81c-3-3,.17-7.35-2.39-10.73-2.26-.48-1.92,2.42-3.78,3.06.29-5.26-5.93-6.32-6.61-11.77-1.07-8.47-8.24-14.85-9.75-23.52-.58-3.3-3.69-5.25-6.43-7.08-1.37-6.33-5.34-11.46-8.13-17.1a71,71,0,0,1-6.38-21.12c-.16-1.06-.07-2.59-.71-3.09-8.35-6.49-9.92-17-15.15-25.28-1.82-2.9-1.86-5.32,1.39-7.17,2.49-.58,4,1.27,4.57,2.89,3.83,10.6,13.83,17.46,16.17,29.34,1.79,9.13,7.62,17.23,12.77,25.29,2.88,4.52,3.86,10.2,5.78,15.33,1.84,4.91,3.51,9.94,7.66,13.54.33.3.8.59.84,1a17,17,0,0,0,7.52,12.72C661.28,771.05,661.07,774,663,776.33Z"/><path class="cls-148" d="M611.65,823.76c3.57,2.11,4.05,5.54,4,9.22C611.42,831.13,611.44,827.48,611.65,823.76Z"/><path class="cls-148" d="M615.6,833c2.94,2.39,5.31,5.12,5.27,9.22C618.49,839.48,616.1,836.77,615.6,833Z"/><path class="cls-159" d="M447.27,382.56c-2.47-4.05-5-8.06-5.73-12.89-1.06-2-2.5-4-1.74-6.51,6.36-2.33,7.37,4.1,9.51,6.92,2.41,3.18,4.2,6.31,8.11,7.92a14.06,14.06,0,0,1,5.87,5.18c6,8.8,15.3,14.32,22.36,22.06.73.8,2.09,1.21,2.39,2.2,2.1,6.87,9,9.46,13,14.58.5.63,0,1.43.86,2.06a22.79,22.79,0,0,1-.57-12.49c.84-1.59.79-4,3.47-4a120.58,120.58,0,0,0,3,30.18c-4.18,2.09-9.68.4-14.05-4.37-6.48-7.09-13.21-14-19.73-21-7.5-8.11-15.14-16.08-22-24.73C450,386.35,449.13,384,447.27,382.56Z"/><path class="cls-160" d="M504.79,407.62l-2.46,3.88c-4.18.74-7.38-.1-8.13-5s-5.55-6-8.32-8.72c-6.19-6.16-11.22-13.57-18.18-18.77-8-6-12.22-14.74-18.51-21.94-5.41-6.2-5.85-14.42-6.46-22.32.12-1.93.09-3.93,2-5.16,4,1,6.81,2.76,6.23,7.72-.33,2.76,1.92,4.75,3.51,6.85,12.32,16.22,26.69,30.69,39.79,46.25A32.73,32.73,0,0,0,506,399.74Q505.41,403.69,504.79,407.62Z"/><path class="cls-161" d="M506,399.74c-1.18.46-1.17,3.1-3.81.79-7.52-6.58-12.91-15.07-20.16-21.76-10.86-10-18.81-22.45-28.6-33.34-2.65-2.95-5.45-5.74-4.1-10.88,1.28-4.9-1.16-.17-1.81-.36-2.29-.7-.46-3.21-1.84-4.35-1.41-2.46-1-5.19-1.18-7.84,1.53-2.37,2.54-5.14,5.05-6.79,1.71.37,3.18,1.69,2.81,3.12-2,7.84,2.53,12.73,7.39,17.53a33,33,0,0,1,5.31,5.79c9.53,15.29,22.3,28,33.74,41.73,3,3.58,3.15,9.32,8.49,11Z"/><path class="cls-162" d="M452.28,386.48c1.12.67,2.69,1.06,3.3,2,8.73,14.27,22.08,24.53,32.69,37.2,3.52,4.21,7.89,9.33,13.92,11.74,2.12.84,3.71.41,5.56.34a131.48,131.48,0,0,0,21.41,36.79c-6.9-2.8-9-10.6-15-14.35-1,.57-1.43-.12-1.84-.85-.25-1.8-1.66-2.49-3.11-3.15-4.29-4.44-10.87-6.06-14.27-11.6-5.23-7.49-13-12.17-20-17.57-4.3-3.31-6.79-8.73-12.44-10.45-1.05-.32-1.43-1.62-1.49-2.76-.19-3.72.21-7.85-5.58-7.32-.39,0-1-.45-.95-.81C454.94,399.17,448.09,393.45,452.28,386.48Z"/><path class="cls-163" d="M507.3,394.39c-1.9,0-4.52,2.42-5.41-1.11-2.32-9.15-9.25-15.1-15.23-21.48a218.35,218.35,0,0,1-22.36-28.71c-3.79-5.7-11.42-8.23-12.55-16.15-.34-2.41-1.17-5.06-.45-8.35.21-1-1.12-2.25-1.74-3.38.87-3.76,3.8-5.74,6.66-7.8,1.75,13.11,8,23.88,15.51,34.68,6.71,9.63,15.21,17.64,21.7,27.39,3.79,5.71,9.28,10.26,11.93,16.93.93,2.34,3.07-.28,4.65.08Q508.65,390.45,507.3,394.39Z"/><path class="cls-60" d="M586.13,430.78a7.5,7.5,0,0,1-2.57.87c-.74,0-.58-.93-.22-1.48a1.51,1.51,0,0,1,2.1-.65C585.74,429.69,586.94,429.37,586.13,430.78Z"/><path class="cls-164" d="M495.74,444.43c4.4,4.48,11.48,5.67,14.49,11.85.4,1.35,2,1.5,2.63,2.64l1.31,1.32c-1.13,1.78-1.5,5.13-4.81,1.94-1.08-1.05-2.5-.42-2.88,1.19-.25,1-.44,2.52.81,2.79,5.81,1.29,2.75,5.45,2.94,8.56-4.3.66-7.56-2.19-11.33-3.31-.09-6.26-4-10.22-8.37-13.94-1.52-1.3-2.58-2.9-2.07-5.08C490.2,449.11,492.25,446.11,495.74,444.43Z"/><path class="cls-165" d="M498.38,470.77c4.78-1.16,7.52,3.76,11.85,4l2.61,2.7c-3.84.42-6.65-3.21-10.51-2.69-2.11,1.59-3.68,1.11-4.77-1.23a3.58,3.58,0,0,1,.17-2Z"/><path class="cls-166" d="M582.67,537.94c-.73-1.83-2.82-3-2.66-5.25,2.85,1.24,5.42,2.72,6.92,5.71.67,1.32,1.93,3.25,3,3.3,6.25.3,6.07,3.8,4.75,8.28a2.83,2.83,0,0,0,1.14,2c10.95-2.3,9,7.09,10.47,12.29,2.82,10,6.3,19.51,12.7,27.77,1,1.24,2,2.43,1.83,4.07-1,8.43,4.48,15.11,6.16,22.69,2.79,12.68,5.15,25.73,5.13,38.61,0,5.33.44,12.24-3.34,17.52-1.65-1-1.87-3.4-4-3.93-.11-.29-.22-.58-.34-.87-2.78-5.67-2.46-12.08-4.37-18-1.71-5.32-1.62-11.17-5.65-15.77-1.36-1.55-1.59-4.1-1.61-6.29-.15-16.69-7.5-31.82-10.3-47.94a84.9,84.9,0,0,0-6.82-21.1,17.06,17.06,0,0,0-3.18-4.88A71.68,71.68,0,0,1,582.67,537.94Z"/><path class="cls-166" d="M632.72,678.88l-4-4C632.94,673.39,632.91,676.06,632.72,678.88Z"/><path class="cls-167" d="M623.47,673.85l-17.1-18.71c0-.46,0-.91,0-1.36,3.29-.91,5.11,1.5,7.25,3.2,3.81,4.58,8.08,8.81,11.12,14h0c0,.91,0,1.81,0,2.71A.77.77,0,0,1,623.47,673.85Z"/><path class="cls-168" d="M533.94,501.06c5,6,13.32,7.34,18.44,13.18h0c3.48,1.54,2.22,5.47,4,7.9,2.23-.26,4.25.56,4.66,2.68,1.11,5.58,6.22,9.44,6.29,15.43,0,2.24,1.1,2.62,2.86,1,1.08-1,2.4-.75,3.71-.19-4.37,5.95-3.71,12.87,1.6,18.35.72.74,1.86,2.08,1.63,2.58-3.21,6.77,1.84,11.33,4,16.81,2.48,6.34,4.9,12.54,3.77,20.13-1,6.6,1.71,13.67,1.92,20.65.07,2.53,1.58,4.94-2.38,6-1.78.47-.84,2.26.21,3.07,2.14,1.64.81,3.57.72,5.4-4.95.34-6.88-4.19-10.27-6.36a5.68,5.68,0,0,1-.44-5.07c4.71-9.9.47-19.11-2.07-28.45a26.61,26.61,0,0,1-1.07-7.76c.37-11.9-4.36-21.78-11.53-30.82-2.52-3.18-2.37-7.41-3.41-11.06-2.32-8.12-7.28-13.72-13.69-18.52-1.13-1.09-2.18-2.26-3.2-3.45-2.57-2.52-4.34-5.27-3.26-9.15.62-2.22-.31-4.18-1.58-6S531.85,503.49,533.94,501.06Z"/><path class="cls-169" d="M576.08,627.5c2.91,2.44,5.61,5.16,9.22,6.59,2,3.6,7.54,4.17,7.91,9.17q-20.4-15-39.57-31.49a5,5,0,0,1-.95-1.75,5.18,5.18,0,0,1,.38-2.91c4.11-3.5,4.25-3.48,6.15.59.3-7.15,2.64-14.54-3-21-3.43-3.89-5.63-8.34-5.59-13.59S547,564.37,545.32,560c-2.13-5.46-3.81-11-5.81-16.52-1.53-4.69-2.86-9.24-6.24-13.32s-6.9-6.88-12.31-6.85a3.81,3.81,0,0,1-2.14-1.84,25.48,25.48,0,0,0-2.88-7.83c-1-1.61-2.16-3.43-.08-5.19,2.25-.7,3.85.54,5.19,2,5,5.5,11.77,9,16.75,14.57,1,1.12,2.7,1.83,3.16,3.25,2.65,8.08,8.31,14.42,12.23,21.72a109.48,109.48,0,0,1,12.22,36.81c.43,3.06,3.12,4.66,4.57,7.06.37,8.28,4,16.16,3,24.68C572.62,621.79,574.3,624.76,576.08,627.5Z"/><path class="cls-170" d="M582.67,537.94c4.71,5,6.86,11.52,10.54,17.13,4.26,7.37,6.54,15.4,8.89,23.57,2.23,7.76,3.91,15.58,5.56,23.44a391.28,391.28,0,0,1,.2,43.59c-.09,2.23-.72,4.28-2.81,5.55-6.1-4.39-7.74-9.57-7.17-17.63.76-10.83,4.27-22.74-4-32.83a5.13,5.13,0,0,1-.59-4.38c1.62-3.79-.38-7.78.29-11,1.54-7.41-2.32-13.12-3.77-19.55-1.54-6.82-3.12-13.69-6.56-19.85A9.55,9.55,0,0,1,582.67,537.94Z"/><path class="cls-171" d="M605.05,651.22c2-8.54,1.16-17.22,1.3-25.85.13-8.07,0-16.14,0-24.2,1.51-.32,1.83.67,2,1.81,1.27,8.8,3.93,17.41,3.81,26.41a21.62,21.62,0,0,0,1.58,8.91c2.76,6.56,2.12,13.11-.79,19.5l-6.54-4Z"/><path class="cls-135" d="M556.33,522.14c-2.66-2-2.37-5.4-4-7.9,1-.28,2-.53,3.06-.84,1.45-.45,3.16-1,4,.49s-.66,2.27-1.69,3C555.85,518.25,556.48,520.29,556.33,522.14Z"/><path class="cls-172" d="M533.94,501.06c4.85,6.2,2.34,14.69,6.58,21.08-3.56,1.05-5.19-1.46-6.83-3.81-4-5.77-8-11.57-15.25-13.78a1.32,1.32,0,0,1-.55-.36c-8-8.31-17.89-13.73-27.66-19.56-3.34-2-5.39-5.57-10.06-6.66-4.12-1,.45-3.59.45-5.28-10.28-.95-20.6-3.69-31.25-3.27-1.16.05-2.65-.51-2.48-2.36,7.59-4.18,15.74-2.3,23.56-1.63a141.68,141.68,0,0,1,21.81,3.82c2.15.71,4.38,1.24,6.1,2.87.18,2.62,2.1,2.57,4,2.61-1.06,5,1.55,7.53,7.41,6.89,5.25-.57,7.29,1.63,9.11,6.76C521.17,494.93,529.14,496.46,533.94,501.06Z"/><path class="cls-173" d="M420.67,476.05l-1.45-1.45c.34-4.21,1.92-8,3.67-11.81,2.52-3.08,2.7-7.11,4.26-10.58l-.07-.06c1.23-.54,2.72.26,2.56,1-1.08,5,2.78,7.77,4.85,11.35,1.42,10.67,2.4,21.41,6.26,31.58a3.39,3.39,0,0,1-.33,3.66c-5.45-4.2-6.52-11.07-6.93-16.64-.54-7.46-6.15-8.26-10.17-11C421.53,470.9,421.12,474.34,420.67,476.05Z"/><path class="cls-174" d="M440.42,499.74c-2.72-12.19-6.68-24.16-6.59-36.86-3.12-4.83-1.75-10.16-1.26-15.21.36-3.73-2.33-.87-3-1.95,1.49-6.43,4.45-12.29,7-18.3,2.55-.12,1.66,1.5,1.4,2.79-1.29,13.85-3.65,27.58-1.77,41.67,1.4,10.42,4.67,20.31,6.78,30.5-2.55.79-1.43-2.06-2.6-2.63Z"/><path class="cls-175" d="M429.59,445.72l4.05-4.69,1.65.11c-1.88,7.25-1.38,14.5-1.46,21.74-5.18,1.08-5.16-3.29-5.28-6-.09-1.93,1-3.68-1.47-4.72A10.84,10.84,0,0,1,429.59,445.72Z"/><path class="cls-175" d="M427.15,452.21c-.32,4-.7,7.92-4.26,10.58C423.91,459.11,424.48,455.23,427.15,452.21Z"/><path class="cls-176" d="M438,430.21c-.47-.93-.94-1.86-1.4-2.79.42-1.32.85-2.63,1.28-3.95,1.22-.35,1.82,0,1.38,1.33C439.2,426.68,439.35,428.62,438,430.21Z"/><path class="cls-177" d="M439.28,424.8l-1.38-1.33c.41-1.35.83-2.7,1.24-4.05C441.29,421.16,440.68,423,439.28,424.8Z"/><path class="cls-178" d="M461.5,595.9c-6.14-5.06-9.05-12.82-15.2-19.15-.08-.86,1.95-1,2.88-2.13,1.4-1.62,2.8-3.65.67-5-2.42-1.57-2.42,1.23-3,2.68-.4,1-1,2.4-2.19,1.26-.8-.74-3.08,0-2.44-2.24.05-.21.28-.54.23-.58-6.06-5.48-6.78-13.87-11.14-20.23-1.11-1.61-2.75-2.77-2.74-5A4,4,0,0,0,428,543c-4.95-5.64-5-5.62-1.47-11.68-.38-1.44-1.64-1.1-2.65-1.29-.83-.15-1.65-.34-1.83-.38,1.09-7.25-5.06-12.7-2.57-20.51-3.94,2.06-1.76,5-3.86,6.46A79.14,79.14,0,0,1,418,487.9c1.71.83,5.57.42,2.13,4.11-1.42,1.52-.81,3.57-.61,5.4,2.89,0,.79-3,3.24-3.4.59,2.88.87,6.61,5.8,4.18,1.62-.8,1,1.81,1.3,2.88,3.16,8,5.15,16.49,9.71,23.89,2.45,4,3.91,8.75,8.23,11.43,1.73,1.07,2,2.86,1.67,4.62-1,5.44,2.07,8.62,6.12,11.16a20.63,20.63,0,0,1,5,4.11c1.09,1.29,1.85,3.17.55,4.11-6.75,4.9-.82,9.53.05,14.25,2.43,5.25,5.77,10.3,4.79,16.46C465.67,593.46,466.34,597.49,461.5,595.9Z"/><path class="cls-179" d="M477.06,555.12q11.81,11.21,23.59,22.43c-1.78,1.23-2,3.46-3.29,5-.1,1.68-3.21.4-2.54,3.92,2.67,14,6.21,28.08,4.66,42.61-.14,1.3-.05,2.64-1.1,3.65-3.05-3-5.85-5.49-5.69-11,.18-6.27-3.7.17-5.95-.71-1.37-6.47,6.83-14-1.54-19.91-.55-10.48-3.71-20.36-7.39-30-1-2.52-2.71-4.54-.76-7.17,1.69-2.27-.35-4.05-1.46-4.77C469.52,555.25,476.2,556.29,477.06,555.12Z"/><path class="cls-180" d="M460.18,574.82c-4.47-3.29-1.9-9-4.45-13-.16-.25.72-1.6.85-1.56,1.8.54,4.35,1.71,3.7-1.58-.39-1.94-2.61-3.73-4.82-4.85-5.29-2.69-9.28-6.18-7.22-13,.24-.78.13-2.41-.16-2.49-8.3-2.43-8.86-11.17-12.51-16.84s-6.64-12.83-5.68-20.4c4.53,3.08,9.22,5.77,8.19,12.79-.3,2-.77,7.33,5.21,5.34.48-.16,3.16,5.25,4.29,8.27,2.39,6.36,6.74,11.48,10.05,17.17,2.8,4.81,7.53,9.48,6.3,16.69-.81,4.76,3.72,9.45,2.84,14.81C464.11,578,462.16,576.33,460.18,574.82Z"/><path class="cls-181" d="M460.18,574.82l6.59,1.32c2,2.58,3.89,5.21,6,7.71,1.66,2,2.46,4.08,1.35,6.61-1.24,2.83-.69,5.47.59,8.18,1.72,3.68.86,7.17-1.32,10.43-5.12-3.34-7.68-9-11.85-13.17,5.72-2.83,2.68-7.64,2.2-11.5C463.29,581.11,461.41,578,460.18,574.82Z"/><path class="cls-173" d="M440.43,499.75c.87.88,1.74,1.75,2.6,2.63l2.85,6.33C441.06,507.55,441,503.49,440.43,499.75Z"/><path class="cls-182" d="M497.06,581.41c1.65-2.19-3.1-.68-1.61-2.79s3.71.44,5.2-1.07c4.35,3.07,8.76,6.07,12.4,10-1.6,2.69-2.82-1.51-4.66.06.93,3.65,6.66,4.76,5.75,9.87-.23,1.33,1.74,3-1,3.86-1.06.34-1.28,1.19-.43,1.94,8.09,7.17,6.55,17.74,9,26.78,1.2,4.33,2.39,8.81,4,13,.9,2.4,2.1,4.29,1.76,7.1a11.58,11.58,0,0,0,2.75,8.54c4.94,6.07,5.57,13,4.86,20.43-.18,2-2.48,6.12,3.24,5.06,1.42-.26,2,2.7,1.78,3.58-1.78,8,4.24,13.09,6.64,19.51.7,1.88,3.1,3.34,1.67,5.83l-4-2.63-15.79-27.66c1.32-2.86-1.53-3.63-2.65-5.27h0a6.53,6.53,0,0,0-2.63-3.95h0c-1.47-4.75-3.94-9.09-6.1-13.5-3.29-6.69-5-14-8.59-20.52a1.65,1.65,0,0,1-.23-1.27c4.29-9.23-3.53-17.25-2.61-26.15a6.36,6.36,0,0,0-1.86-4.78c-1.59-1.83-2.12-4-.91-6.08,2.5-4.21,1.08-7.43-1.93-10.56C498.69,588.16,498.45,584.52,497.06,581.41Z"/><path class="cls-183" d="M497.06,581.41c2.72,7,14.13,11.2,6.89,21.43a2,2,0,0,0,0,1.87c6.66,7.1,2.19,17.75,8,25.11.94,1.18.49,2.44-.4,3.58-2.57,3.28-2.27,6.27.78,9.14.75.7,1.59,2.06,1.39,2.87-1.09,4.5.81,6,6,4.27-6,7.78,1,12,2.77,17a13.54,13.54,0,0,1,.9,6.93c-6.15-8.58-12.67-16.94-18.16-25.92-1.23-2-1.44-4.76-4.12-4.85-3.69-.13,3.1-6.86-3.4-5-.47.13.46-2.12,2-2.42,1-.19,2.51-.39,1.62-1.83-.38-.63-1.93-.55-2.95-.79.57-9.61-.85-19.14-1.78-28.64-.71-7.27-3-14.38-4.52-21.51C493.84,584.53,495.26,582.15,497.06,581.41Z"/><path class="cls-154" d="M564.23,759.23a1.64,1.64,0,0,1,.07-.64,8.08,8.08,0,0,1,.72-.94c.68,5.09,4.19,8.57,6.93,12.55,2.95,4.29-2.39,4.14-3.76,6.14C567.86,770.41,563.64,765.37,564.23,759.23Z"/><path class="cls-183" d="M526,677.56c2.74.83,6.44,1.17,2.64,5.27C527.93,681,525.85,679.85,526,677.56Z"/><path class="cls-183" d="M523.4,673.61c4.68-1.21,3.14,1.71,2.63,3.95A4,4,0,0,1,523.4,673.61Z"/><path class="cls-184" d="M515.5,509c.28,4.29,6,6.78,4,11.85a150.69,150.69,0,0,1-18.12-10.74c-2.53-1.72-4.62-3.81-7.89-4a5.85,5.85,0,0,1-4.44-2.49c-5.21-7.56-13.71-10.22-21.16-14.45-6.78-2.87-13.57-5.67-21.2-3.66-2.49-3.15-2-7.28-3.53-10.73.05-3.15-2-6-1.27-9.25,1.51-.39,2.14.78,3,1.64,3.9,4,8.68,1.27,13,1.65,2.85.25,5.89-.47,6.56,3.58.11.64.56,1.67,1,1.56,8.27-1.94,11.35,5.51,16.46,9.14,5.7,4.05,11.69,7.73,16.9,12.48A14.27,14.27,0,0,0,505,499.1C510.46,500.34,513.37,504.21,515.5,509Z"/><path class="cls-185" d="M495.74,444.43a22.16,22.16,0,0,1-6.58,7.9c-3.25.78-4.7-1.79-6.31-3.66-7.09-8.23-15.48-15.17-22.69-23.33-3.38-3.83-8.45-6.57-12.56-10.08-1.17-4,.66-7.83.63-11.77.44-7,3.66-14.16-1-20.94,2.38.41,3.39,2.55,5,3.93.34,3.94-1.39,8.39,3.15,11.28,1.22.78.29,2.36,0,3.63-.64,2.81-1.32,5.86,3.34,3.09,1.68-1,3.5-.52,3.2,1.45-1.67,10.78,8.23,13.39,13.53,19s11.74,9.66,17.68,14.43A7,7,0,0,1,495.74,444.43Z"/><path class="cls-186" d="M448.23,403.49c1.26,4-.44,8,.09,12a14.48,14.48,0,0,1-.2,6.61c-1.48,5.14-.4,10.45-1,15.66-.36,3.15,2.51,4.4,4.44,4.95,6.87,2,11.41,5.16,14.95,12.22s12.18,9.94,20.27,11.56c2.19.6,4.43,1.07,6.25,2.57a1.44,1.44,0,0,1,.05,1.81c-13.28-1.8-26.4-5.16-40-4-2.1.17-4.41-.65-6.14,1.29a2.65,2.65,0,0,1-3.82-.12c-.43-.84-.87-1.67-1.31-2.51C440.85,444.5,442.51,423.78,448.23,403.49Z"/><path class="cls-187" d="M522.08,588c-6.94-5.3-13.84-10.63-19.79-17.08-2.66-1.74-4.15-4.65-6.58-6.62h0c-5-4.7-10.29-9-14.5-14.49-11-10-18.94-22.13-25-35.56a2,2,0,0,1,1.75-.31A5.48,5.48,0,0,1,460,515.8c2.64,3.32,3.94,7.75,8.91,9.06,2.57.68,1,3.95,2.08,5.93,3-.68,5.38-2.14,7.08,3,1,3.06,3.22,8,9.07,8.73,4.9.61,6.62,5.5,7,10.13.75-1.79-.35-4.18.82-6.2a2.09,2.09,0,0,1,1.47-1c5.09,3.43,4.52,10,8,14.45,1.18,1.52,1.43,3.38,3.9,3.45,1.77,0,3,1.28,2.53,3.06-.65,2.25-2.07,4.45,2,4.43.32,6.43,6.5,8.83,9.32,13.54C522.81,585.57,523.14,586.82,522.08,588Z"/><path class="cls-188" d="M440.53,362.76c.34,2.3.68,4.61,1,6.91l-2.18-.13c-2.68-9.58-3.55-19.25-1.43-29.07,2.8.15,2.45,2.48,2.95,4.23C440.48,350.71,442.21,356.77,440.53,362.76Z"/><path class="cls-189" d="M443.11,474.73c2.74,3,2,7.25,3.9,10.52,2.48,2.54,3.19,5.92,4.34,9.08.93,2.48,3.16,4.53,2.55,7.53a2.5,2.5,0,0,1-1.36,1.14,2.11,2.11,0,0,1-1.66-.57C446.18,493.79,444.13,484.41,443.11,474.73Z"/><path class="cls-190" d="M481.22,549.82c5,4.67,11.16,8.16,14.5,14.49A33.33,33.33,0,0,1,481.22,549.82Z"/><path class="cls-191" d="M450.88,502.43l1.39,0c2.75,3.51,6.5,6.57,5.28,11.85l-1.37,0C453.47,510.74,451.32,507,450.88,502.43Z"/><path class="cls-190" d="M495.71,564.31c4.18.24,4.79,4,6.58,6.62-.43,0-.86,0-1.29,0C498.62,569.2,496.07,567.64,495.71,564.31Z"/><path class="cls-192" d="M444.51,322c1.23,2.49,2.68,4.95,1.18,7.84-1.93,1.39-1.13,3.45-1.32,5.27-2.51,1.41.69,6.72-4.37,6.39-1-2-.3-4-.14-6,.82-1.88,1-4,1.82-5.83C442.63,327.09,443.57,324.55,444.51,322Z"/><path class="cls-193" d="M440.46,335.11c0,2.19,0,4.39,0,6.59.88,1.5.78,2.55-1.26,2.69-.16-1.39.2-2.95-1.26-3.92q.61-2.69,1.22-5.37A.81.81,0,0,1,440.46,335.11Z"/><path class="cls-194" d="M440.46,335.11h-1.31a8.55,8.55,0,0,1,2.53-5.46C441.6,331.53,442.35,333.61,440.46,335.11Z"/><path class="cls-195" d="M530.07,360.28l-6.5,5.43c-1.43-2.14-4.41-3.63-5.23-5.12a45.2,45.2,0,0,0-5-7.39c-6.73-8.05-12.37-17-20.19-24.17-4.68-4.3-5.72-11.15-10.16-15.89a67.42,67.42,0,0,1-8.6-12.29c-1.56-2.68,1-6.12-2.32-7.89,2.22-3.32,3.36-4.33,5.46.6,5.39,12.68,14.77,22.92,23.19,33.53,7.43,9.36,14.94,18.62,21.34,28.69C524.13,359.09,526.37,360.59,530.07,360.28Z"/><path class="cls-155" d="M559.89,724c-.26.35-.51,1-1,1.23-.82.45-1.13-.28-1.06-.87a2.06,2.06,0,0,1,.81-1.43C559.35,722.57,559.75,723.12,559.89,724Z"/><path class="cls-191" d="M495.74,545.85c-.24,3-.39,6-.79,9-.11.89-.52,2.39-2.05,1.68a2.3,2.3,0,0,1-1.35-2.59c.83-7.2-1.5-10-7.91-9.56-2.51.19-2.7-.66-2.64-2.91.11-4-2.05-5.22-6-3.17.53-2,.93-3.66,1.42-5.29.35-1.15-.4-1.56-1.18-2a1.61,1.61,0,0,0-2.29.35c-.73,1,.55,3.79-2.09,2.88a4,4,0,0,1-2.26-4.37c.67-2.84,1.25-3.41-2.76-4.2-3.25-.64-6-5.73-6.95-10.17a4.91,4.91,0,0,1,3.12-.74c8.11.07,13.49,8.11,21.84,7.49,3.09,7,10.48,10.34,14.1,16.86.53.94.65,2.16,1.79,2.58,10.29,3.72,14.14,13.18,19.1,21.58,1.23,2.09,2.28,4.31,4.05,5.92,2.8,2.55,3.57,5.47,3.74,9.28.25,5.78,4.22,10.16,7.59,14.61,1.35,1.18,2.9,2.11,4.27,3.28,1.9,1.93,4.09,3.6,5.34,6.09a2.36,2.36,0,0,1-.63,2.52,223.83,223.83,0,0,1-21.09-17c-.49-4.19-4.39-5.76-6.63-8.6-1.53-1.93-6.25-2.38-2.82-6.56.45-.54-.46-1.52-1.53-1.52-1.23,0-2.39,2.72-3.69.16-1-2,1.25-2.52,1.79-3.84,1.25-3,.1-3.78-2.57-2.81-3.72,1.36-2.82-.3-3.54-3.15C501.69,556.15,498.3,551.1,495.74,545.85Z"/><path class="cls-196" d="M543.17,605v-2.55c6-.64,7.94,4,10.54,7.9l-.06,1.39C549.45,610.61,546.82,607,543.17,605Z"/><path class="cls-197" d="M643.26,805.32c2,4.89,10.61,6.83,6.58,14.49C644.76,816.29,645.08,810.32,643.26,805.32Z"/><path class="cls-197" d="M649.84,819.81c1.17-.43,2.54-1.3,3.29.37.82,1.82-.66,2.07-2,2.26A2.73,2.73,0,0,1,649.84,819.81Z"/><path class="cls-198" d="M607,665.53l19,19c.13.58.27,1.16.41,1.74-.23,3.68,2.53,5.84,4.37,8.44a107.72,107.72,0,0,1,13.93,26.21c3.75,10.56,8.83,20.67,12.16,31.35,1.62,5.16,4.68,10.33,3.53,16.21-.62-.6-1.17-1.61-1.87-1.72a8.47,8.47,0,0,1-5.53-4.35c-5.39-11.52-12.44-22.32-15.06-35-.08-.42-.2-1.14-.41-1.18-8.14-1.54-3.72-10.3-8.41-14.46-4.46-4-6.09-10.41-6.42-16.75-.17-3.41-3-6.86-4.76-8.11-6.62-4.84-7-13.52-12.85-18.49L603.74,667c-.53-.74-.81-1.56-.06-2.25C605.09,663.47,605.85,665.4,607,665.53Z"/><path class="cls-158" d="M607,665.53c-1.31,0-3.23-1.35-3.24,1.49-1-.79-3.74,2.51-3.41-1.33.31-3.57-6.34-4.87-2.93-9.34C601.51,658.46,604.43,661.8,607,665.53Z"/><path class="cls-199" d="M439.19,344.39l1.26-2.69c2.21-1.66.5-5.65,3.92-6.59.81,10.31,4.53,18.79,10.88,27.53,7.47,10.27,17.68,17.56,25.32,27.52,3,3.91,6.63,9.43,12.62,11.07.89.24,2.16,1.57,2.11,2.31-.39,5.19,2.86,6.93,7,8,0,4.6,0,9.2,0,13.8,0,1.15-1.63,3-1.59,1.86.11-4.13-5-4.25-5-7.85,0-1.68.77-6.43-2.93-1.36-1,1.42-1.84-.38-2.12-1.23-3.83-11.92-14.62-17.69-23-25.48-3.35-3.14-5-7.3-8.54-10.34-3-2.56-8.66-1.48-9.29-6.24-.66-5-6.4-6.29-7-11.08,0-.36-1.53-.55-2.35-.82C438.33,356.76,439.34,350.53,439.19,344.39Z"/><path class="cls-128" d="M512.86,458.92c-1.35-.4-4.43.9-2.63-2.64C513.16,455.11,513.62,456.41,512.86,458.92Z"/><path class="cls-165" d="M447,422c.32-2.22-.88-4.74,1.31-6.59,5.85,3.07,11.4,6.16,15.6,11.81a86.55,86.55,0,0,0,15.13,15.11c3.75,3,5.56,7.88,10.11,10,.2,4.93,5,6.71,7.75,8.93,4.29,3.49,2.85,6.08,1.47,9.51h0a5.67,5.67,0,0,1-5.28-1.31l-6.58-1.33c-.27-1.61-8.08-12.81-9.83-13.26-7.25-1.87-10.1-7.66-12.81-13.69-.43-1-.77-3-1.17-2.81-5.73,3.17-7.65-3.33-11.5-4.77C446.88,432,445.48,427,447,422Z"/><path class="cls-200" d="M493.1,469.46a8.78,8.78,0,0,1,5.28,1.31c0,.45,0,.9,0,1.35-1.82-.17-3.85.49-5.28-1.29C493.09,470.37,493.1,469.92,493.1,469.46Z"/><path class="cls-133" d="M613,657.8c-2.37-3.23,1.25-6.07.65-9.08-3.07-15.4-4.35-31.05-6.4-46.59-.05-.35-.55-.64-.84-1-2-16.06-7.65-31.06-13.16-46.1,6.27,5.7,8,13.85,9.88,21.32,3.14,12.72,5.69,25.61,9.56,38.13,1.27,4.13,1.35,8.07,1.68,12.17.37,4.54-.18,9,4.84,12.48,2.55,1.74,1.6,7.16,1.94,10.76.45,4.79,5.39,8.93,2.08,14.26-.64,1,.89.79,1.57,1.09,4,1.79,2,3.78,0,5.7C619.65,667.66,616.58,662.49,613,657.8Z"/><path class="cls-201" d="M443.14,468l3.82.12c12.48-1.7,24.47,2.67,37.11,2.92l-4.67,6c4.49.54,8.44-.49,10.75,5.52,1.4,3.66,8.28,5.75,13.09,7.39a15.51,15.51,0,0,1,7.1,5c4,4.52,8.2,8.71,14.6,10.53,5.19,1.47,6.81,7.6,9.93,11.64a16.72,16.72,0,0,0,5.65,5,4.54,4.54,0,0,1,2.64,2.63c3.64,6.43,7,13.05,11.64,18.85a11.69,11.69,0,0,1,2.78,7.78c-.06,5.84,4.13,9.9,6.93,14.44,4.09,6.61,7.08,13.41,6.68,21.36-.13,2.56.45,5.28-1.69,7.38-3.64-2.74-5.42-5.54-6.27-10.85-1.3-8.18-3.24-16.86-7.58-24.35-1.57-2.71-2-5.85-3.62-8.33-1.95-3-2-8-7.31-8.22-1.27-.05-1.52-1.47-1.5-2.58.27-11.88-9.25-17.09-16.91-22.61-3.78-2.73-5.2-8.47-10.81-8.67-9.43-8.65-21.07-14.17-31.21-21.88-3.3-2.52-5.42-8.27-11.42-6.51-.18.05-1.29-1.56-1.11-2.09,2.29-6.45-1.83-3.82-4-2.59-3.17,1.81-5,1.84-4.94-2.33s-2.28-4-5.57-3.85C452.55,470,447.4,472.07,443.14,468Z"/><path class="cls-202" d="M569.5,594.58c1.81-12.58-2.58-23.26-9.84-33.2-2.48-3.4-5.35-6.91-3.59-11.85.67-1.89-1.41-3-2.33-4.38-4.17-6.46-10-12.06-10.58-20.38,10.94,5.84,15.12,15.85,16.69,27.36a5.84,5.84,0,0,0,2.33,3.74c4.44,3.47,4.59,9.29,7.52,13.24,4.9,6.63,1.61,14.16,3.9,20.74s.51,14.4,6.3,19.81c1.34,1.25,1.48,2.69,0,3.94-4.55,3.75-3.12,9.11-3.79,13.9-2.77-1.06-5-5.35-4.82-5.84C574,612.34,567.4,603.71,569.5,594.58Z"/><path class="cls-203" d="M468.08,487.9c7.61,3.78,16.24,5.91,21.24,13.83,1.22,1.93,3,3.88,6,2.93a2.76,2.76,0,0,1,2.37.46c6.27,6.61,16.05,8.34,21.75,15.7l1.32,1.32a6,6,0,0,0,4.27,1.31c3.84-.08,6.11,2.38,5.94,5.57-.25,4.71,1.54,7.26,5.58,9.09,2,.92,2.75,3.3,4,5.1,3.67,4.89,3.12,11.45,6.83,16.45,6.32,8.52,3.74,20.62,11.88,28.83,5.28,5.31,1.75,12.91,2,19.5a2.08,2.08,0,0,1-2.27,2c-1.75-.16-.92-1.48-1.22-2.51-1.31-4.57-2.63,0-4,.32a9.88,9.88,0,0,1-4.6-10.19c1.21-8.39-1.29-15.41-6.05-22.1a25.42,25.42,0,0,1-4.78-10.69,24.44,24.44,0,0,0-11.81-20.61,5.84,5.84,0,0,1-1.6-2.29c-6.76-8.4-10-19.26-20.92-24.82-8.7-4.43-18.19-8.41-25.24-15.21C474.69,498,467.33,495.69,468.08,487.9Z"/><path class="cls-204" d="M539.21,564.29c2.57,5.15,4.89,10.38,8.31,15.15,2.45,3.42,4.47,7.67,3.48,12.22-1.28,5.81,0,11,2.7,16.09v2.63c-3.81-2.24-6.06-6.55-10.54-7.9a13.62,13.62,0,0,1-5.28-5.26c-.37-1.93.92-2.06,2.16-1.74,1.77.46,1.48-.66,1.49-1.65a24.67,24.67,0,0,0-.49-5.3,19,19,0,0,1-2.22-9.38c-1.06-8.41-5.92-15.23-10-22.18-5.13-8.76-13-15.64-18.73-24-1.2-1.74-3.24-3-2.71-5.61,4-1.81,6.81,1.17,9.18,3.21,3.71,3.19,7.39,6.67,9.46,11.35l1.32,1.31A81.24,81.24,0,0,1,539.21,564.29Z"/><path class="cls-184" d="M540.52,543.21c-3.24-2.06-5.58-5.43-9.68-6.29a2.49,2.49,0,0,1-1.76-3.59c2.24-5.92-.2-8.51-6.09-9-.8-.07-1.49-1.42-2.22-2.18C531.25,522.14,538.41,529.78,540.52,543.21Z"/><path class="cls-137" d="M492.48,612.53c.86,1.62.75,2.77-.18,3.77a1.14,1.14,0,0,1-1.06-.17C490.39,614.79,491.41,613.91,492.48,612.53Z"/><path class="cls-205" d="M526,541.9c-5.66-5.44-10.19-12.33-18.43-14.49a2.59,2.59,0,0,1-3.57.49c-4-3.49-9.57-4.91-13.07-8.5-5.45-5.58-12.61-8.62-18.12-13.92-.79-.76-1.68-1.75-2.69-1.78-7.78-.25-13.7-5.22-20.5-7.91.52-3.86-3.18-6.67-2.64-10.54,1.38-3.65,2.82-5.88,6.9-2.14a6.93,6.93,0,0,0,7.76,1.55c3-1.37,4.49,1.68,6.41,3.24,0,2.5,1.73,4,3.43,5.28,8.85,6.7,16.79,14.27,27.59,18.68,8.39,3.43,17,9,20.11,19C520.55,535.15,527.33,536,526,541.9Z"/><path class="cls-200" d="M447,422c-.74,4.27,3.27,6.84,3.41,10.86,2.62-1.34,5.83-6,5.78,1.21,0,3.28,1.42,3.64,4.09,2.58a50.53,50.53,0,0,1,5-1.44c-.76,7.44,3.51,14.79,10.32,17.06,3.7,1.23,6.44,3.65,7.31,6.86,1,3.75,3.06,5.3,6.36,5.79.36,2.59-2.55,1.57-2.8,3.17-8.12-.79-14.22-6-21.06-9.63-2.17-1.14-.7-3.74-1.73-5.31-1.41-2.16-.08-7.71-5.94-4.75-1.93,1-1.25-1.53-1.7-2.48-.69-1.47-1.17-3.38-2.72-.45-1.13,2.12-2.07.63-2.69-.5-1-1.79-1.86-3.46-4.46-2.45a1.19,1.19,0,0,1-1.56-1.45C447.22,435,443.86,428.09,447,422Z"/><path class="cls-196" d="M533.94,594.58c-5.16-5-10.23-10.1-9-18.11.37-2.43-.63-3.25-2.08-4.78-2.75-2.91-6.2-5.59-6.13-10.35,0-2.71-2.24-4.25-4.06-5.7-3.25-2.57-7.15-4.47-6.65-9.64a2.52,2.52,0,0,0-1.4-2c-11.14-1.92-14.26-12.2-20.35-19.35-1.35-1.59-3.32-3.42-5-2.26-5,3.49-6.16-.3-8.63-3.31-2.88-3.51-8.09-1.44-11.79-3.51l-1.31-1.32c-.91-4.33-4.91-7.28-5.28-11.85h1.32l.88.22c3.49,3,7.15,2.12,10.84.45,4,.86,1.46,5.53,4.14,7.16,1.4,1.13,3.06.72,4.64.79a3.5,3.5,0,0,1,1.51.67c1.46,1.59,2.43,3.76,4.93,4.1a7.34,7.34,0,0,1,1.54.82c1.83,1.43,3,3.64,5.38,4.45A10.16,10.16,0,0,1,489,522c7.53,4.26,12.32,11.63,18.09,17.57,7.71,7.94,19.31,13.35,21.62,25.67,1.31,7,2.71,14.07,6,20.36,1.7,3.26,1.68,5.62,0,8.43Z"/><path class="cls-206" d="M487.84,522.14h-1.32c-1.62-1.89-2.92-4.1-5.27-5.27-2.71-1.11-4.25-3.68-6.58-5.27-1.76-1.29-3.51,1.91-5.27,0-2.82-.34-4.38-1.47-3-4.6a2.47,2.47,0,0,0-.92-3.3c-4.17,1.48-8.06.53-11.86-1.32h0c-1.07-2.34-1.69-4.95-3.94-6.59.84-.19,1.84-.8,2.48-.53,6.14,2.59,12.57,4.68,18.56,7.19a55.42,55.42,0,0,1,17.46,12.12c2.68,2.75,5.32,5.58,8.67,6.31,4.59,1,5.82,6.74,10.78,6.53,7.95,9.93,16.76,19.32,23.54,30,4.05,6.38,8.75,13.17,9.38,21.36-4.21,2.61-6.7.6-7.91-3.35-1.85-6.08-4.77-11.7-7.13-17.56a18.36,18.36,0,0,0-3.92-6C512.42,542.49,502.93,533.5,493,525,491.42,523.68,489.4,523.35,487.84,522.14Z"/><path class="cls-196" d="M543.16,594.58c-.23,1.55.71,4.59-2.69,2.08a1.63,1.63,0,0,0-2.59.56l-3.94-2.64h0c1.26-2.58,1.95-5.91,6.12-4.71C542.12,590.76,541.77,593.24,543.16,594.58Z"/><path class="cls-187" d="M495.85,545.89c-1.26-.3-3.19.51-3.31-1.17s1.27-1.09,2.11-.41A8.59,8.59,0,0,1,495.85,545.89Z"/><path class="cls-205" d="M539.21,564.29c-4.88-6.51-9.23-13.31-11.86-21.08C535,547.35,540.3,556.7,539.21,564.29Z"/><path class="cls-189" d="M540.52,590.63c-3.42-.73-4.73,2-6.58,4,1.45-3.85.37-7.47-1.54-10.71-5.29-9-3.7-20.42-10.49-28.83-.54-.66-.78-1.74-1.45-2.11-5.34-3-9.07-8-13.47-11.5-7.32-5.78-11.82-13.88-19.15-19.29,3.9-.68,6,1.66,8.79,4,6.41,5.39,11.94,11.74,18.41,16.89,10.18,8.12,14.89,19.24,18.63,30.83,1.38,4.31,3.27,5.07,6.85,4.88a11,11,0,0,0,2.64,9.22C542,588.57,543.09,591.44,540.52,590.63Z"/><path class="cls-206" d="M540.52,590.63l2.64-2.64v6.59A4,4,0,0,1,540.52,590.63Z"/><path class="cls-189" d="M453.59,502.38c4.21-1.86,7.79,1.95,11.86,1.32C460.26,507.83,457,507.48,453.59,502.38Z"/><path class="cls-189" d="M474.67,511.6c3.34.32,4.94,2.82,6.58,5.27C476.78,518,475.88,514.59,474.67,511.6Z"/><path class="cls-189" d="M481.25,516.87a5.49,5.49,0,0,1,5.27,5.27C483.42,521.73,482.86,518.77,481.25,516.87Z"/><path class="cls-189" d="M469.4,511.6c1.76.48,3.51-2.37,5.27,0C472.91,512.26,471.16,514,469.4,511.6Z"/></g></g></svg>