<svg xmlns="http://www.w3.org/2000/svg" viewBox="0 0 811.73 745"><defs><style>.cls-1{fill:#d0eef2;}.cls-2{fill:#2a3a4e;}.cls-3{fill:#ffa397;}.cls-4{fill:#fac852;}.cls-5{fill:#fff;}.cls-6{fill:#405368;}.cls-7{fill:#e3827a;}.cls-8{fill:#2b3c50;}.cls-9{fill:#ff785f;}</style></defs><g id="Layer_2" data-name="Layer 2"><g id="Layer_1-2" data-name="Layer 1"><path class="cls-1" d="M142.56,383.85c19.26-33.32,35.4-68.09,43.86-102.4,14.5-58.87-.6-128.75,42.87-179.18C254.93,72.53,296.85,63.08,336,60.32c27.75-2,56.42-1.26,82.21,9.15,27.84,11.23,50.2,33,68.64,56.66a340.32,340.32,0,0,1,49.85,89c12.77,33.9,20.13,69.87,35.87,102.5,41,85,155.28,97.27,216.68,165.79,17.36,19.37,31,49,16.09,70.32s-46.59,18.76-72.3,14.76c-73.36-11.42-148.47-15.52-221.77-3.75C460,573,409.63,589.16,364.38,614.84c-47.65,27-86.33,66.68-133.24,94.93-36.74,22.14-79,37.82-121.78,34.87s-85.72-27.51-102-67.22c-13.63-33.32-7-72,8.34-104.58s38.69-60.55,60.05-89.53C97.89,453.36,122,419.43,142.56,383.85Z"/><path class="cls-2" d="M416.46,30.26c8.54,4.27,15,11.72,26,13.69s23.64-.58,32.72,6c14.82,10.81,7.22,30.35,9.74,45.36,1.32,7.9,4.95,15.74,11.4,20.5,6.65,4.9,15.57,6.09,21.93,11.36A21.79,21.79,0,0,1,524.52,151c-3.5,9.29-16.13,14.43-22.8,21.22-3.35,3.4-6.26,7.76-6.1,12.53.21,6.15,5.25,10.87,8.12,16.3,7.8,14.78-3,34.73-18.95,39.59-15.37,4.67-30.7-2.71-42.48-12.29C429.55,218,438,203.2,428.26,191.46c-4.39-5.3-12-7.07-16.41-12.35-13.42-16,14.16-42.33,2.64-59.78-5.91-9-20.26-11.31-22.82-21.72-3.05-12.39,13.33-27.46,3.85-36-4.62-4.18-12-2.31-17.92-4.16-8.09-2.52-12.42-13.15-8.39-20.6,5.38-9.94,26.07-9.9,35.5-9.63A27.5,27.5,0,0,1,416.46,30.26Z"/><path class="cls-3" d="M374.11,76.44c-4.3,24.67,6.31,51.35,26.38,66.34-9.06,2.08-15.23,1.36-24.29,3.44.8,1.09-1.19,2-2.53,1.92a203.15,203.15,0,0,1-38.24-6.65c5.6-5.56,10.4-12.33,11.79-20.1s-1.32-16.62-8-20.85A217.59,217.59,0,0,0,374.11,76.44Z"/><path class="cls-3" d="M323.66,134.29c-6.41-3.06-13-6.17-20.1-6.58s-14.84,2.5-18.06,8.82c-1.86,3.64-2,7.88-2,12q.06,7,.67,13.88c.18,2,1.35,4.62,3.22,4,8.21,5.31,18.91,2.45,26.11-4.17C321.28,155.07,322.4,144.74,323.66,134.29Z"/><path class="cls-3" d="M411.75,144.57c2,34.4-24.77,63.66-31.9,97.36-5.47,25.88-1.09,47.23,9.89,71,5.62,12.18,12.5,24,15.52,37,5.89,25.46-5.13,45.92-10,70-4.29,21.39-4.78,47.49-.93,69,3.26,18.26,10.86,35.46,15.05,53.53,5.3,22.9,2.89,40.57-2.38,63.18-7.17,30.76-15,68.63-10.51,100.29,2.33,16.34-1.1,17.59-18.6,21.9a259.33,259.33,0,0,1-50.49,7.29,11.69,11.69,0,0,1-5.14-.57c-4.91-2.12-4.46-9.81-.65-13.56s9.38-4.88,14.39-6.74a47.18,47.18,0,0,0,28.29-30.15c3.45-11.46,2.35-23.74,1.21-35.65-4.69-49.34-4.23-98-20.81-145.64-3.05-8.78-6.44-17.43-9.82-26.09-10.82-27.64-19.66-61.16-35.33-86.33-13.27-21.3-38.29-35.64-48.48-58.8s3.41-54.93,18.46-73.23c7.27-8.84,14.3-17.67,21.17-26.82,6.28-8.34,5.88-16.38,1.12-26-4-8-9.49-15.81-9.32-24.72a20.52,20.52,0,0,1,5.8-13.81c3.1-3.17,7.13-5.23,10.75-7.8A44.64,44.64,0,0,0,309.46,149c2.46-3.4,3.57-8.74,6.21-11.73,4.92-5.55,14.66-2.67,20.65-.89C361.21,143.82,385.7,147.87,411.75,144.57Z"/><path class="cls-3" d="M341.35,387a135.65,135.65,0,0,1,17.1-.87c6,.07,12.91,1,16.27,6,2.2,3.29,2.27,7.51,2.26,11.47-.05,25.6-.56,40.52-13.22,62.21-14.13,24.2-24.77,47.6-19.95,76.08,3.07,18.87.44,37.32-3.86,55.77-7.18,30.75-15,68.63-10.51,100.29,2.33,16.34-1.1,17.59-18.61,21.9a259.12,259.12,0,0,1-50.48,7.29,11.75,11.75,0,0,1-5.15-.57c-4.9-2.12-4.45-9.82-.64-13.56s9.38-4.89,14.39-6.75a47.14,47.14,0,0,0,28.29-30.14c3.45-11.46,2.34-23.74,1.21-35.65-2.76-29-3.7-58.1-7.53-86.95-5.07-38.17-4.15-73.23-4-111.75.05-12.89.48-26.91,8.65-36.88,6.09-7.44,15.5-11.28,24.76-13.84A136.32,136.32,0,0,1,341.35,387Z"/><path class="cls-4" d="M316.31,501.74a90.16,90.16,0,0,1,32.18,12c18.45,11.68,31.71,31.47,52.2,39,23.29,8.6,50-1.4,68.59-17.88a115.59,115.59,0,0,1-32.91-62.33c-6.4-36.52-10-76-21.81-111.33-5.91-17.73-17.27-33.15-24-50.57-11.24-28.91-8.95-62,2.31-90.89,8.83-22.63,23.12-44,24.14-68.28.09-2.17,0-4.58-1.53-6.13-1.25-1.28-3.14-1.64-4.91-1.93-7.36-1.24-15-3.28-22.47-3.77-6.45-.42-12.84,2.17-19.2,3.94-3.33.93-6.75,1.87-10.21,1.6-8.37-.67-14-7.72-20.54-12.14s-17.48-5.76-24.8-3c-3.68,1.39-6.69,4.08-9.61,6.72-13.87,12.54-29.08,29-24.74,47.22,1.68,7,6.17,13.08,8,20.06,3.33,12.66-2.64,26-10.61,36.39s-18,19.16-25,30.27c-13.13,21.07-13.23,47.6-10.8,72.31,3,30.13,2.69,60.47,7.21,90.52a406.14,406.14,0,0,0,24.71,91c-1.38-3.42,9.79-13.26,12.09-15.06,5.47-4.3,13.14-8.45,20.27-8.62A61.46,61.46,0,0,1,316.31,501.74Z"/><path class="cls-3" d="M389.17,183.66a131.45,131.45,0,0,1,5.75-19.95c4.61-12.25,16.8-27.13,31.5-22.24,15,5,17.54,23.58,17.35,37.12-.38,27.71-7,53-15.74,79-2.31,6.88-4.67,13.85-8.66,19.92-7.89,12-18.17,15.49-30.9,9.39-24.56-11.77-48.47-22.7-74.13-31.76-9.14-3.23-19.22-6.47-28.3-3.08-5.49,2.05-9.84,6.27-14.86,9.3-1.08.65-2.47,1.24-3.53.55a3.26,3.26,0,0,1-1.16-2c-2.39-9.27,3.93-19.07,12.38-23.57s18.47-4.8,28-4.37a214.62,214.62,0,0,1,39.56,5.52c12.9,3,25.05,10.74,38.21,12.14,2.64-11,2.73-20.5,2.05-31.76A131.74,131.74,0,0,1,389.17,183.66Z"/><path class="cls-3" d="M275.17,342.07c-1.18-4.9-6.57-7.22-10.9-9.8a37.18,37.18,0,0,1-15.14-17.45l5.56,1c1.52-2.15-1-4.84-3.34-6.11a60.26,60.26,0,0,0-13.65-5.42,2.56,2.56,0,0,0-1.66,0c-.75.33-1,1.25-1.14,2.05-1.82,10.12-3.49,31.25,6.38,38.22C245.4,347.39,276.78,348.82,275.17,342.07Z"/><path class="cls-5" d="M309.87,376.6A70,70,0,0,1,266,361.31a1.72,1.72,0,1,1,2.16-2.68c17.93,14.51,44.36,18.52,65.78,10a1.72,1.72,0,1,1,1.28,3.2A68.5,68.5,0,0,1,309.87,376.6Z"/><path class="cls-5" d="M419.86,466a1.72,1.72,0,0,1-1.47-.82,87.09,87.09,0,0,1-11.12-61.6,1.72,1.72,0,0,1,3.38.67,83.53,83.53,0,0,0,10.68,59.13,1.72,1.72,0,0,1-.57,2.36A1.65,1.65,0,0,1,419.86,466Z"/><path class="cls-3" d="M320,99.39c4.36,5.2,10,10.25,16.75,10.44,5.24.15,10.06-2.65,14.48-5.46q8.39-5.34,16.42-11.19c5.25-3.83,10.61-8.1,13.08-14.11,2.77-6.74,1.39-14.47-1.05-21.33-4.39-12.36-12.29-23.65-23.16-31S331.7,16.29,319,19.48C284.49,28.12,305.2,81.82,320,99.39Z"/><path class="cls-2" d="M316.79,45.78a1,1,0,0,0,.35-.07,1.88,1.88,0,0,0,.74-.69c5.56-7.53,18.48-10.91,27.3-8.7,9.75,2.45,14.79,11.14,16.6,20.6a2.49,2.49,0,0,0,.73,1.61,1.74,1.74,0,0,0,2.37-.8c.74-1.28.85-2.86,1.3-4.24a7.19,7.19,0,0,1,4.14-4.6c3.69-1.34,6.39,1.38,6.46,5a14.54,14.54,0,0,1-1,4.46c-1.52,5,1.52,9.89,2.16,14.79.7,5.26-2,11.8-4.8,15.62a34.76,34.76,0,0,0,7-5.67,33,33,0,0,0,5.31-8.47,89.57,89.57,0,0,0,6-16.93c3-13.76-4-31.13-12.88-41.33C368.1,4.33,351.34-2.21,335.68.68,328.42,2,321.61,5.22,315.34,9.12c-5.19,3.23-10.17,7.05-13.59,12.13-4.76,7.08-7.46,20.84-1.51,28a8.41,8.41,0,0,1,6.53-5.15c3.12-.42,6.23.6,9.23,1.56A2.64,2.64,0,0,0,316.79,45.78Z"/><path class="cls-2" d="M307.83,83.81h-.12a7.11,7.11,0,0,1-6.23-5.62c-.05-.26-.09-.54-.12-.81a3.85,3.85,0,0,0-.22-1.08c-.26-.52-1-.85-1.89-1.23a11.12,11.12,0,0,1-1.88-1,6.22,6.22,0,0,1-2.53-6.56,10.85,10.85,0,0,1,.9-2.21,5.06,5.06,0,0,0,.72-2.13c0-1-.93-1.85-2-2.86a17.14,17.14,0,0,1-1.6-1.69,8.57,8.57,0,0,1,7.55-13.86,1.5,1.5,0,1,1-.29,3,5.57,5.57,0,0,0-4.91,9,14.39,14.39,0,0,0,1.34,1.4c1.31,1.28,2.81,2.72,2.88,4.92a7.4,7.4,0,0,1-1,3.57,8.06,8.06,0,0,0-.67,1.6A3.22,3.22,0,0,0,299,71.61a8.69,8.69,0,0,0,1.4.7A6.07,6.07,0,0,1,303.83,75a5.93,5.93,0,0,1,.51,2c0,.21.05.42.09.63A4.07,4.07,0,0,0,308,80.81a1.5,1.5,0,0,1-.13,3Z"/><path class="cls-5" d="M391.48,57.64c-.22,1.06-.68,2.24-1,3.35,3.08-5.3,3.12-11.83,2.78-18-.27-4.86-.74-9.93-3.32-14.06a2.49,2.49,0,0,0-1.5-1.3,2.57,2.57,0,0,0-1.28.19c-.36.11-.55.22-.83.33C390.92,37.43,393.48,48.34,391.48,57.64Z"/><path class="cls-6" d="M474.2,232.47a21.73,21.73,0,0,1-18.51-11,1.29,1.29,0,0,1,2.25-1.26c3.66,6.53,11.15,10.47,18.26,9.58,7.3-.92,13.51-7.16,14.15-14.2.61-6.79-3.34-13.12-7.16-19.25l-.81-1.3c-3.71-6-8.27-14.89-5-23,1.76-4.43,5.48-7.81,9.09-11.07,4.54-4.12,8.84-8,8.29-13.36-.59-5.83-6.79-9.44-13.4-12.47-12.31-5.65-27-14-31.21-28.51a54.65,54.65,0,0,1-1.62-9.65,45.44,45.44,0,0,0-2-10.48A22.84,22.84,0,0,0,426.4,71.77a1.29,1.29,0,1,1,.08-2.58A25.15,25.15,0,0,1,449,85.57a47.29,47.29,0,0,1,2.09,11.08,53.29,53.29,0,0,0,1.54,9.19c3.93,13.51,18,21.47,29.81,26.89,7.3,3.36,14.16,7.44,14.89,14.55.68,6.66-4.31,11.17-9.13,15.54-3.38,3.07-6.88,6.24-8.42,10.11-2.8,7.06,1.42,15.21,4.83,20.72l.81,1.3c3.86,6.18,8.23,13.19,7.54,20.84-.74,8.21-7.94,15.47-16.4,16.53A18,18,0,0,1,474.2,232.47Z"/><ellipse class="cls-6" cx="316.2" cy="77.06" rx="1.88" ry="2.5" transform="translate(-7.93 106.37) rotate(-18.86)"/><ellipse class="cls-6" cx="331.22" cy="71.99" rx="1.88" ry="2.5" transform="translate(-5.49 110.95) rotate(-18.86)"/><path class="cls-7" d="M323.8,88.93a2.82,2.82,0,0,1-1.16-.24c-1.53-.66-2-2.38-2.2-3.21l-.92-3.58a1.29,1.29,0,0,1,2.5-.65l.92,3.58c.1.36.35,1.33.72,1.49s1-.29,1.75-1.07a1.28,1.28,0,0,1,1.82-.1,1.31,1.31,0,0,1,.1,1.83A4.86,4.86,0,0,1,323.8,88.93Z"/><path class="cls-7" d="M331.14,92.48a1.29,1.29,0,0,1-.44-2.5,4.64,4.64,0,0,0,2.55-2.3,1.29,1.29,0,1,1,2.33,1.12,7.15,7.15,0,0,1-4,3.61A1.29,1.29,0,0,1,331.14,92.48Z"/><path class="cls-8" d="M333.68,67.86a1.12,1.12,0,0,1-.91-.46,1.92,1.92,0,0,0-2.51-.37,1.15,1.15,0,0,1-1.34-1.86,4.23,4.23,0,0,1,5.67.85,1.15,1.15,0,0,1-.91,1.84Z"/><path class="cls-8" d="M310.78,76.66a1.14,1.14,0,0,1-1.09-.82,4.13,4.13,0,0,1,2.67-5A1.15,1.15,0,0,1,313,73a1.83,1.83,0,0,0-1.15,2.16,1.16,1.16,0,0,1-.76,1.43A1.4,1.4,0,0,1,310.78,76.66Z"/><path class="cls-7" d="M346.34,108.57a1.29,1.29,0,0,1-.46-2.5,32.5,32.5,0,0,0,13.86-10.19,1.3,1.3,0,0,1,2,1.61,35.1,35.1,0,0,1-15,11A1.25,1.25,0,0,1,346.34,108.57Z"/><path class="cls-9" d="M340.45,720.85a55.94,55.94,0,0,0,7.25-1.42l23.2-5.6a58.08,58.08,0,0,0,11.92-3.8c5.7-2.77,12.57-8.87,12.59-15.61,2,4.14,1.53,8.84,2,13.43.65,6.16.85,13.46-4,17.31-2,1.63-4.65,2.31-7.18,2.93a392,392,0,0,1-52.7,9.07c-3.68.37-7.47.69-11-.46-6.93-2.27-8.89-9-3.68-14.28,2.56-2.62,6-4.13,9.4-5.57l7-3a4.65,4.65,0,0,1,3.35-.52C333.47,717.06,333.21,721.61,340.45,720.85Z"/><path class="cls-9" d="M273.86,711.84a56.27,56.27,0,0,0,7.25-1.42l23.19-5.6a58.59,58.59,0,0,0,11.93-3.8c5.69-2.78,12.57-8.87,12.59-15.62,2,4.15,1.53,8.85,2,13.44.65,6.16.86,13.46-4,17.31-2,1.62-4.65,2.31-7.18,2.92A390.54,390.54,0,0,1,267,728.15c-3.67.37-7.47.68-11-.46-6.94-2.27-8.9-9-3.68-14.28,2.56-2.63,6-4.13,9.4-5.57l7-3a4.64,4.64,0,0,1,3.35-.52C266.88,708.05,266.62,712.6,273.86,711.84Z"/></g></g></svg>