<svg xmlns="http://www.w3.org/2000/svg" viewBox="0 0 826.44 500.31"><defs><style>.cls-1{fill:#d0eef2;}.cls-2{fill:#ffa598;}.cls-3{fill:#e78577;}.cls-4{fill:#018fcb;}.cls-5{fill:#fff;}.cls-6{fill:#405368;}.cls-7{fill:#2a3a4e;}.cls-8{fill:#4ec2df;}</style></defs><g id="Layer_2" data-name="Layer 2"><g id="Layer_1-2" data-name="Layer 1"><path class="cls-1" d="M84.41,465.84c-36-7-75.16-22.45-83-52.48C-6.72,382.41,22.24,353.09,49,329.6l283.9-249c18.16-15.94,36.69-32.12,59.51-43.06s51-16,75-8.37c31,9.92,46.92,37.31,63.11,61.33,43.24,64.16,106.86,118.35,182.9,155.8,43.11,21.22,94.32,41.15,109.19,81.17,12.38,33.32-6.54,71.5-38.14,95.7-91.93,70.39-200.93,30.41-307.58,33.77C346.45,461,213.15,490.81,84.41,465.84Z"/><path class="cls-2" d="M300,233.08a349.92,349.92,0,0,0-10.22,58.1,47,47,0,0,1-.6,4.73c-4.1,20.74-21.21,29.71-34.4,42.73-8.4,8.29-13,19.25-19.58,28.95-2.5,3.66-5.6,8.16-10.35,8.88a41.37,41.37,0,0,1-6.68,0,13.88,13.88,0,0,1-7.15-2.23c-.93-.61-1.79-1.34-2.78-1.87a4.48,4.48,0,0,0-3.22-.56,1.52,1.52,0,0,0-.74,2.63,7.36,7.36,0,0,0,1.81,1.4c3.61,2.4,5.3,7.26.43,9.21-3,1.2-7.13.24-8.57-2.87s-.7-6.61.78-9.77a2.18,2.18,0,0,0-2.21-3.09c-5.28.66-9.92,6.61-9.2,12.27.87,6.95,7.34,12.09,14.12,13.86a28,28,0,0,0,12.31.41c5.11-1,9.83-3.38,14.47-5.74,20.57-10.46,40.67-19.68,57.33-35.53,7.13-6.77,14.15-13.8,19.36-22.14,5.39-8.6,8.68-18.33,13.4-27.31,8.75-16.63,21.95-30.51,28.87-48.14,7.57-19.3,10.95-41.1,12.28-61.69,1.09-16.75,2.55-33.39,11.6-48.08,2.34-3.82,5.18-8,4.21-12.37a3.12,3.12,0,0,0-1.11-2,3.72,3.72,0,0,0-2.06-.45c-11.5-.12-22.48,5.55-30.86,13.41-19.08,17.89-27.39,43.07-35.32,67.17Q302.67,223,300,233.08Z"/><path class="cls-2" d="M518,230a349.65,349.65,0,0,1,14,57.31,44.11,44.11,0,0,0,.91,4.69c5.44,20.43,23.09,28.27,37.1,40.41,8.91,7.73,14.18,18.37,21.41,27.61,3.45,4.42,7.34,8.4,13.34,7.55,2.49-.35,5.11-.83,7-2.5.71-.63,1.28-1.4,1.94-2.08a4.46,4.46,0,0,1,2.4-1.43,2.19,2.19,0,0,1,2.37,1.15c.53,1.28-.6,2.57-1.36,3.73-5.69,8.77,9.3,13.89,12.45,5.77,1.4-3.6,0-7.6-2.14-10.94a1.23,1.23,0,0,1,.77-1.86c6-1.19,12.33,5.13,11.94,11.52-.42,7-6.54,12.54-13.19,14.75a28,28,0,0,1-12.26,1.2c-5.16-.65-10-2.73-14.81-4.78-21.21-9.11-41.86-17-59.52-31.74-7.54-6.3-15-12.86-20.75-20.83-5.93-8.24-9.85-17.74-15.15-26.4-9.8-16-23.87-29-31.92-46.16-8.81-18.77-13.6-40.3-16.26-60.76-2.17-16.64-4.71-33.16-14.69-47.23-2.59-3.66-5.69-7.65-5-12.07a3.12,3.12,0,0,1,1-2,3.62,3.62,0,0,1,2-.58c11.46-.87,22.78,4.08,31.66,11.38,20.2,16.61,30.12,41.2,39.59,64.74Q514.72,220.08,518,230Z"/><path class="cls-2" d="M493.47,337.71A54.23,54.23,0,0,0,482.6,315.8c-5.42-6.92-8.27-16.69-11.16-24.93a236.64,236.64,0,0,1-12.26-56.2,234.13,234.13,0,0,1-.05-43.34c.58-6.33,1.76-12.37,1.19-18.58-.81-8.86,1.28-18.91-.85-27.43-1.38-5.51-2.19-8.58-5.88-9.27-1.68-.31-9.23-1.81-10.93-1.64a193.57,193.57,0,0,1-45.07-.3c-10.31-1.35-24.43-6.3-33.51,1.31-8.46,7.09-10.21,17.93-12.17,28.32-2.64,14-3.83,26.08-3,40.43.85,13.8,2.41,27.54,3.14,41.34,1.41,26.46-1.38,51.38-13.64,75.12-5.19,10.07-9.9,20.51-10.46,32a79.66,79.66,0,0,0,4.74,31.12C344,414.42,370.05,424,392.53,444.19c4.47,4,8.74,8.35,13.88,11.46,12,7.22,29.36,5.92,38-5,2.41-3.06,4-6.64,5.95-10,4.17-7.4,10.79-12.71,17.45-17.76,10.6-8,18.15-15.16,22.91-28a98.37,98.37,0,0,0,5.67-35.18A93,93,0,0,0,493.47,337.71Z"/><path class="cls-3" d="M408.82,220.1a.84.84,0,0,1-.78-.54A26.72,26.72,0,0,0,395.89,205a.83.83,0,0,1,.86-1.42A28.39,28.39,0,0,1,409.6,219a.84.84,0,0,1-.5,1.06A.92.92,0,0,1,408.82,220.1Z"/><path class="cls-3" d="M415.05,219.09a.89.89,0,0,1-.49-.16.83.83,0,0,1-.18-1.16,47.83,47.83,0,0,1,13.5-12.52.83.83,0,0,1,.88,1.4,46.2,46.2,0,0,0-13.05,12.1A.82.82,0,0,1,415.05,219.09Z"/><path class="cls-4" d="M248.62,380.9c20.21-10.36,44.35-11,66.47-5.88s42.57,15.74,62.21,27.13c8.34,4.84,17.12,10.48,20.6,19.47.89,2.31,1.34,5.09-.06,7.14s-4.38,2.67-7,3q-40.37,5.07-80.95,7.9c-29.26,2-60.91,2.57-85.1-14C203.73,411.21,234.11,388.34,248.62,380.9Z"/><path class="cls-4" d="M485.74,458c-18.86-5.74-37.77-14-56.29-20.44a663,663,0,0,1-67-27.33c-19.21-9.09-38.12-19.15-58.5-25.18-33.37-9.88-102.4-3.4-85.42,49,7.21,22.24,32.68,34.46,53.42,40.59,49.8,14.73,102.42,16.11,154.34,17.19,45.71.95,93.11,9.28,138.57,3.57,10.79-1.36,21.46-3.46,32.13-5.55,14.49-2.85,8.54-16.76.68-23.85-8.07-7.27-20.27-10.3-30.91-9.36-24.29,2.15-48.88,10-73.08,3.66C491.05,459.59,488.39,458.83,485.74,458Z"/><path class="cls-5" d="M473.39,453.78a1.07,1.07,0,0,1-.39-.07,110.61,110.61,0,0,0-10.92-3.5c-1.43-.4-2.77-.78-4-1.15-36.42-11.11-73.9-26.73-117.94-49.17l-2.25-1.15C330.56,395,323,391.09,315,388.59c-10.81-3.41-23-5.43-37.19-6.17-11.19-.59-25.59-.51-37.72,5.29a1,1,0,0,1-1.38-.49,1,1,0,0,1,.49-1.38c12.54-6,27.28-6.09,38.72-5.48,14.39.75,26.72,2.79,37.7,6.26,8.11,2.55,15.79,6.48,23.21,10.28L341.1,398c44.53,22.7,80.81,37.82,117.61,49,1.19.36,2.52.74,3.93,1.13a113.83,113.83,0,0,1,11.13,3.57,1,1,0,0,1-.38,2Z"/><path class="cls-2" d="M564.88,495.38c10.79-1.36,21.46-3.46,32.13-5.55,14.49-2.85,8.54-16.76.68-23.85-8.07-7.27-20.27-10.3-30.91-9.36-24.29,2.15-48.88,10-73.08,3.66-2.65-.69-5.31-1.45-8-2.26-2.87-.87-5.73-1.82-8.59-2.79-8.31,7-10.15,26.77-10,38.8C499.84,496.46,532.85,499.4,564.88,495.38Z"/><path class="cls-4" d="M581.68,375.4c-20.5-9.76-44.66-9.72-66.61-3.92s-42.09,17-61.38,29c-8.19,5.08-16.81,11-20,20.06-.83,2.34-1.19,5.13.27,7.13s4.46,2.55,7.06,2.8q40.49,3.87,81.15,5.51c29.3,1.17,61,.77,84.64-16.51C627.44,404.38,596.41,382.42,581.68,375.4Z"/><path class="cls-4" d="M347,459.49c18.67-6.3,37.33-15.13,55.65-22.09a664.31,664.31,0,0,0,66.14-29.3c18.94-9.65,37.54-20.27,57.74-26.9,33.06-10.85,102.25-6.42,86.82,46.42-6.55,22.44-31.64,35.41-52.19,42.15C511.77,486,459.2,488.9,407.34,491.51c-45.66,2.3-92.79,12-138.4,7.66-10.82-1-21.56-2.82-32.28-4.6-14.57-2.42-9-16.5-1.38-23.82,7.85-7.5,19.95-10.89,30.62-10.27,24.33,1.43,49.15,8.57,73.16,1.51C341.69,461.22,344.32,460.38,347,459.49Z"/><path class="cls-5" d="M359.13,454.89a1,1,0,0,1-.41-2,112.18,112.18,0,0,1,11-3.9c1.39-.44,2.7-.85,3.87-1.24,36-12.15,72.86-28.83,116.11-52.5l2.22-1.22c7.3-4,14.86-8.16,22.89-11,10.87-3.78,23.13-6.19,37.5-7.37,11.41-.93,26.15-1.28,38.87,4.35a1,1,0,0,1,.52,1.36,1,1,0,0,1-1.36.52c-12.29-5.44-26.69-5.08-37.87-4.17-14.18,1.16-26.28,3.54-37,7.27-7.87,2.73-15.35,6.84-22.58,10.81l-2.22,1.22c-43.36,23.73-80.36,40.46-116.44,52.64-1.18.4-2.51.82-3.91,1.26a113.78,113.78,0,0,0-10.84,3.82A1.06,1.06,0,0,1,359.13,454.89Z"/><path class="cls-1" d="M494.57,336.62c-2-10-7.15-17.54-11.37-26.79a178,178,0,0,1-8.41-22.36c-.57-1.91-1.12-3.84-1.63-5.77-.43-1.64-.84-3.3-1.24-5a18.66,18.66,0,0,0,1.45-1.35c5.65-5.92,10.61-12.77,11.45-20.5,1.31-12-2.11-17.83-6.39-29.33-5.74-15.41-10.95-30.79-12.69-48.74a80.55,80.55,0,0,0-16-39.94c-3.19-4.11-9.95-2.67-9.95-2.67a60.59,60.59,0,0,1,4.28,6.08c17.8,36.89,25.89,69.46-23.15,78.52-29.32,5.42-48.47-6.73-56.61-34.74-5.13-17.65,5.49-36.13,12-52.43-5.36.14-9.09,1.59-11.68,6.48-8,15.09-12.6,32.94-17.11,48.71s-11.73,29.52-16,44.34c-3.05,10.6-3.77,16.57.8,26.9,3.2,7.24,8.61,13.63,15.84,17.13a121,121,0,0,1-5.51,26.68c-3.71,11.34-9.44,21-11.95,32.66-5,23.41-3.33,47.93,9.94,68.43s35.25,35.69,59.52,39.78c27.91,4.69,65.2-6,82-30.37C497.33,390.44,499.69,362.21,494.57,336.62Z"/><path class="cls-4" d="M557.07,376.44a115.06,115.06,0,0,0-23.3,2.76,182.63,182.63,0,0,1,18.67-2.45C554,376.63,555.52,376.52,557.07,376.44Z"/><path class="cls-5" d="M451.66,490.53c-1.54,0-3.07,0-4.61,0a1,1,0,0,1,0-2.06h0a303.16,303.16,0,0,0,108-18.14c11-4,21.93-8.67,32.47-13.2a1,1,0,0,1,.82,1.9c-10.58,4.54-21.51,9.23-32.58,13.24A304.75,304.75,0,0,1,451.66,490.53Z"/><path class="cls-2" d="M354.92,462.45c-.73-1.79-1.46-3.47-2.22-5.07-2,.74-4,1.46-6,2.13-2.63.89-5.26,1.73-7.89,2.5C328,465.19,317,465.48,306,464.73a131.62,131.62,0,0,1-13.39-1.32c-9-1.08-18.06-2.38-27-2.9-.92-.06-1.86,0-2.79,0a53,53,0,0,0-11.95,1.69h-.06c-1,.27-2,.59-3,.94l-1.17.44c-8.55,3.4-16,9.92-18.55,18.67a15.37,15.37,0,0,0-.56,5.84c.8,3.15,3.42,5.64,8.8,6.54,10.73,1.78,21.46,3.56,32.28,4.59,29.15,2.79,58.92-.17,88.53-3.28A53.59,53.59,0,0,0,354.92,462.45Z"/><path class="cls-5" d="M471.27,304.71a1,1,0,0,1-.83-.41c-8.38-11.26-26-18.57-39.77-20.82-25.35-4.13-60.1.58-77.47,17.58a1,1,0,1,1-1.44-1.47c17.86-17.49,53.38-22.36,79.25-18.14,14.16,2.31,32.36,9.89,41.08,21.61a1,1,0,0,1-.21,1.45A1,1,0,0,1,471.27,304.71Z"/><path class="cls-5" d="M431.24,428A1,1,0,0,1,431,426,64.78,64.78,0,0,0,474,396a1,1,0,0,1,1.42-.36,1,1,0,0,1,.35,1.41,66.85,66.85,0,0,1-44.33,31Z"/><ellipse class="cls-2" cx="406.55" cy="64.03" rx="41.38" ry="54.67"/><path class="cls-2" d="M386.76,137.83c-.28.73,5.31,2.56,5.88,3.09a2.85,2.85,0,0,0,1.32.57c10.79,2.58,23.8,1,34.89,1.26-6.19-15.41-6.47-30.65,2.39-44.7-1.78,2.82-17.47,3.75-20.85,4.31-6.23,1-16.17.12-21.75,2.71-7.08,3.27-2.64,2.54-.24,9C390.89,120.75,389.22,131.27,386.76,137.83Z"/><path class="cls-6" d="M424.82,52c3,2.8,4.08,7.65,7.84,9.29a19.47,19.47,0,0,0,5.06.9A16.07,16.07,0,0,1,451,76.25a65,65,0,0,0,3.64-37.42c-3.56-17.74-16.31-34.62-34-38.29-14.88-3.08-36.44,7.15-34.46,24.88C387,33,393.6,42,400.05,45.82,407.49,50.27,418.44,46,424.82,52Z"/><path class="cls-7" d="M386.05,259.11a53.9,53.9,0,0,1-8.39-1.24C380.31,259.59,383.32,260.46,386.05,259.11Z"/><path class="cls-7" d="M385.31,140.76c-.07-1.13-.12-2.25-.14-3.38a71.35,71.35,0,0,1,1.07-13.76c.38-2.22.88-4.42,1.47-6.59.68-2.46.19-3.7-1.7-5.55-.76-.74-9-7.57-8.35-8.32a33.21,33.21,0,0,0-3.82,5.23c-2.32,4-3.62,8.42-5.13,12.76-7.34,21.15-21.61,38.51-30.62,58.83a56.3,56.3,0,0,0,39.57,77.89,21,21,0,0,1-4.05-3.51c-6.74-7.53-11.27-18-8.74-27.76,4.46-17.27,27.92-24.81,31.2-42.35,1.37-7.38-1.69-13.69-4.78-20.18A64.34,64.34,0,0,1,385.31,140.76Z"/><path class="cls-6" d="M383.94,36.4A225.52,225.52,0,0,1,371.35,56a50.21,50.21,0,0,0-8.12,20c-5.29-8.09-5.52-18.52-3.85-28,1.28-7.37,3.65-14.68,7.94-20.82,3.91-5.59,10.05-12.76,16.42-15.43a4.54,4.54,0,0,1,3.64-.33C394.06,14.44,389.81,25.81,383.94,36.4Z"/><path class="cls-7" d="M450.78,66a.83.83,0,0,1-.82-.73,7.36,7.36,0,0,0-3.68-5.48,15.4,15.4,0,0,0-4.08-1.34,17.16,17.16,0,0,1-4.47-1.49c-2.62-1.44-4.21-4-5.74-6.41a19.88,19.88,0,0,0-4.06-5.17c-3.42-2.76-8-2.72-12.77-2.66a44.43,44.43,0,0,1-7.48-.33,21.32,21.32,0,0,1-15.89-12.27,21.31,21.31,0,0,1,1.82-20,.82.82,0,0,1,1.14-.23A.84.84,0,0,1,395,11a19.63,19.63,0,0,0-1.67,18.41,19.63,19.63,0,0,0,14.63,11.3,44,44,0,0,0,7.2.31c4.88-.05,9.95-.11,13.83,3a21.43,21.43,0,0,1,4.42,5.57c1.49,2.37,2.89,4.61,5.14,5.84a15.54,15.54,0,0,0,4.05,1.33,17.12,17.12,0,0,1,4.51,1.51A9,9,0,0,1,451.6,65a.82.82,0,0,1-.72.92Z"/><path class="cls-7" d="M362.53,69.71a.58.58,0,0,1-.19,0,.82.82,0,0,1-.62-1,66.49,66.49,0,0,1,16-30c1.74-1.87,3.27-3.7,2.88-5.59a.83.83,0,0,1,1.62-.34c.59,2.89-1.66,5.3-3.29,7.06a64.69,64.69,0,0,0-15.62,29.25A.83.83,0,0,1,362.53,69.71Z"/><path class="cls-7" d="M448.86,63.09l-.19,0a.82.82,0,0,1-.61-1c.64-2.72-1.63-5.23-2.63-6.19-.71-.67-1.51-1.31-2.28-1.92a22.36,22.36,0,0,1-3.68-3.42c-2.63-3.28-3.22-7.5-3.79-11.59-.1-.69-.19-1.39-.3-2.07-1-6.43-2.95-11.42-6-15.26-3.59-4.56-8.93-7.28-13.91-7.07a.8.8,0,0,1-.86-.79.82.82,0,0,1,.79-.86c5.51-.22,11.37,2.72,15.28,7.7,3.2,4.07,5.26,9.31,6.3,16,.11.69.21,1.39.31,2.09.54,3.87,1.09,7.86,3.44,10.79a20.75,20.75,0,0,0,3.42,3.16c.8.63,1.62,1.29,2.38,2,1.22,1.16,3.94,4.22,3.11,7.77A.83.83,0,0,1,448.86,63.09Z"/><path class="cls-3" d="M405,93.14a2.56,2.56,0,0,1-.39,0,2.09,2.09,0,0,1-1.44-.89,3.42,3.42,0,0,1-.45-2l.07-5a.89.89,0,0,1,.84-.82.83.83,0,0,1,.81.84l-.06,5.06a2,2,0,0,0,.15,1,.43.43,0,0,0,.33.2,3.41,3.41,0,0,0,2.11-.87.83.83,0,0,1,1.16.15.81.81,0,0,1-.14,1.15A5.48,5.48,0,0,1,405,93.14Z"/><path class="cls-3" d="M405.29,99.79a12.73,12.73,0,0,1-7.54-2.43.83.83,0,0,1,1-1.33,11.38,11.38,0,0,0,12.44.44.82.82,0,1,1,.88,1.39A12.58,12.58,0,0,1,405.29,99.79Z"/><path class="cls-7" d="M394.12,77.87a13.44,13.44,0,0,1-7.38-2.2.66.66,0,0,1,.73-1.09,12.08,12.08,0,0,0,9.77,1.56.66.66,0,0,1,.81.46.67.67,0,0,1-.46.81A13.13,13.13,0,0,1,394.12,77.87Z"/><path class="cls-7" d="M415.79,78.36a9.78,9.78,0,0,1-5.66-1.83.65.65,0,0,1-.15-.91.65.65,0,0,1,.91-.16,8.24,8.24,0,0,0,10-.23.66.66,0,0,1,.92.1.64.64,0,0,1-.1.92A9.42,9.42,0,0,1,415.79,78.36Z"/><path class="cls-7" d="M397.92,66.58a.86.86,0,0,1-.41-.1,14.42,14.42,0,0,0-13.05-.37.94.94,0,0,1-.5.21.89.89,0,0,1-.94-.81,1,1,0,0,1,.51-.89,16.18,16.18,0,0,1,14.81.32.87.87,0,0,1-.42,1.64Z"/><path class="cls-7" d="M411.17,66.55a.89.89,0,0,1-.69-.34.87.87,0,0,1,.16-1.22,10.7,10.7,0,0,1,5.57-2.07c3.38-.34,6,0,7.91.94a.87.87,0,1,1-.78,1.56c-1.64-.82-3.91-1.08-6.95-.77a9.09,9.09,0,0,0-4.68,1.71A.85.85,0,0,1,411.17,66.55Z"/><path class="cls-8" d="M451.31,282.62a33,33,0,0,1-5.43-.45,1.47,1.47,0,0,1,.49-2.9A32,32,0,0,0,477,266.8a1.47,1.47,0,0,1,2.38,1.73A35.16,35.16,0,0,1,451.31,282.62Z"/><path class="cls-8" d="M369,282.34a41.26,41.26,0,0,1-27.77-10.67,1.47,1.47,0,1,1,2-2.16,38.21,38.21,0,0,0,36,8.46,1.47,1.47,0,0,1,.83,2.82A39.17,39.17,0,0,1,369,282.34Z"/></g></g></svg>